<mxfile host="65bd71144e">
    <diagram name="Page-1" id="rTnBLbTzZLrFzuQIbGBi">
        <mxGraphModel dx="1152" dy="396" grid="1" gridSize="10" guides="1" tooltips="1" connect="1" arrows="1" fold="1" page="1" pageScale="1" pageWidth="827" pageHeight="1169" math="0" shadow="0">
            <root>
                <mxCell id="0"/>
                <mxCell id="1" parent="0"/>
                <mxCell id="B18a2ED0e9zdHAKTgeij-23" value="" style="shape=image;verticalLabelPosition=bottom;labelBackgroundColor=default;verticalAlign=top;aspect=fixed;imageAspect=0;image=data:image/png,iVBORw0KGgoAAAANSUhEUgAABAAAAAIACAYAAAAczR65AAAAAXNSR0IB2cksfwAAAAlwSFlzAAALEwAACxMBAJqcGAABrV1JREFUeJzsvQd8XNWZ9/+7986oWJJ77w1jwE2SC4FQbTAlPftP2Q1vkk3bvJt9k91gwLaqO5iEZDebbCCbkGX3/yb5pJIQMNgY010kVwwY996rJEuaufe853nOOaOxkUy35ZnnC7I0M/eee8pzznnaveNBEARBEARBEARBEISMx7vQFRAEQRAEQRAEQRAE4YNHHACCIAiCIAiCIAiCkAWIA0AQBEEQBEEQBEEQsgBxAAiCIAiCIAiCIAhCFiAOAEEQBEEQBEEQBEHIAsQBIAiCIAiCIAiCIAhZgDgABEEQBEEQBEEQBCELEAeAIAiCIAiCIAiCIGQB4gAQBEEQBEEQBEEQhCxAHACCIAiCIAiCIAiCkAWIA0AQBEEQBEEQBEEQsgBxAAiCIAiCIAiCIAhCFiAOAEEQBEEQBEEQBEHIAsQBIAiCIAiCIAiCIAhZgDgABOEd8uKyp9XBo4fw858+jGdfeB7H6+vgeb7+8eCpCGEYneNsmnLq3V/8PZ5+saK7Fora/Rbt1yOgP35vHeTrn3ON4Fvh+boOkbL1OY/DpS/mqfd+vTPqfFYDSMaV+mBbRP2H6ByjyHVqvWfT333TEedrMN5CgPw0GVWp98wpge8jjN6T9KVKt91o330bTX+b/XOu5l3o5ant67+9mr0f68d7heQjOqsOb7df34/+P8f0Ovf1PNt7qrXPzzEybm3HO+j/VorjtQnvwwL4FsT0tZPv9hpvp18v9CQ6F++gbq2tv2+1P5EepVSU9trIhisr0H+FbcmR707Am/ZfJ9MsX63sX579eauVtz0PTau8E53gfWpcW8XQ+FD/R1HrF3k3ehfpCnGaj1oyIhVizIgRyC3Mx/adu3DH5/4W//itb50YNuLSzu+w2KxBHACC8BYc2Ldn3K9//dvVs6qqcOT4sdTiFtM/+TkxFHXugng8BhXo5S0ZIhbLAViRifS/Pm88Pu8wevMKQyQTdIyPKFS8X9EBbDTqF1HoIYgpBEFgdj59TKjLicX11qcXztCnsjwkmrSK6OmfpD3WC83i6dFxIfzA10sir7iIkpEp34+Q1MaFH+nFUhsagT5B/9J/6x99jqfPVbRANyX18boMOt/XZesa0PJMxxIhbdL8B11R8XFUhqfLpsU9yM2hVpv26XNDap9uSzwW6FP09k2vqeFU75DOiVjppeU/5B2L+tbj9tBhXqR70afe1PVPJBHPy7dKAu/4xtChXS6KuP7JpiZdbT0eVPdQbw0enR/j8qlOVE6o6+npBvHmyJtkyP2YDKk9ur9c/1uF0tPleVQHXV9WSFjP8Mxmp+viB3FTfzJcqWxdsKf72Q/ofN3XNN7OMKMCqLwoyX0DfW0q19f1SerPAtrMEJrWBVYmfM+0X7cx5sWMoZhMmIpwb5vjabyMksOXNb2o65Hkz5U+N67r2GTkhOujy9bj6QdGNpt1XbRYsbwEHnep7l9dI1/x0QmSpViMlajAKRf6H9+z16T/9DnkBIsF1OKA60/jR32S0PIaj+fo5uv3FLU3ycdHui9iuk8SWj5ILiPrUKPr8NyhVvkRyw43ycwsbqtR/Hzuo2Rz0tRBn0vyRvIS6bH3keAzSD5JjqkcliHPjA0iMxcT/LniMhXLt5l3yrdyRsfpeoa6Xh7PW5Vqt6/rHimavwHLdED9r9uYUBHX05wfsQJrdFVqT8ByEaO5p/snqccg0JOcxp1nme+lFGAYCWZZS4YJFn8aq0CfC1cPLe/Ki/OxJNPUQ/CNrJF80fziGa2vEwuMvPnUn37E8kBy4ds56FnVOQxNf5ByTvOXxo7OD9wc5bmVtDIQM+tUZNYcWHmgsQ/8wPSfDzsT9PE0H30Fp/7R/Ix5To4V9ycd74xiqjt1bGTlj+TM0+Pn8zww60ukx9wsumaO0mekc5Jzls4NePJ6PN40HlQW9TXN/wTPKZIHktmI5z7NOS/mmfrrdis9n1jmIrsQ0OjSRCDB0v3PzmBdloqMGe/zEm/Gn0ZED4t5j+a/fj9G/arPi8fiXAbJAB3k8xzweZ6E+lgvZsbC1+1lA0eZ+Qu7t9AaG/LkA7dF0ZjQ2CS1TPB+ADTr/orTumjXPVoNeTmi/qY26LVF6T2MdhOWA2s8kHINK4+BH9fdQ/uIGd8wtU5GvMcEKm7HQ5k9ySywPAeoHYGuE48/jzF4zeSxVBGvAc16/aa1OYAZv9DXfaP/I2GnenhePq3yPEdoDGjtDALfGIaRx33JZXP/mFWX5irtifQ5NcWLBdzHZiNzck8dQePt+t6OnjJrPMkzGy+0Buo5SDJAcq70eFF9zf6oa5Y0r1meqW36b9q/qaN534Fn53VkxlDZa+t9P5GIkOMHxtjleWD2WponVOVmPZa85rEA2v713MZs9lajd2g5CQJen5O8gPjcHzyXqC+oXE+vjSTLND9ofaCzSG5Yhk1buN1UO9qjY2asaA+h/SJKJlmP4LWM9jpd/2RkVqmYlmVaP81q55n5qn8363Ur5uXwemXmJa0/yjbWGogkR3RddgYYOaI2xFgXabFoaa0I9N+8Buh6B2wIcjfyvKbxM7qX2Xt91kbM/uvrPYx0Hhr3QJk9jdbj5kRCt0vPSbveRbyPK3NJ3/Q3izu124PtO7u+W/mgsWedRpk1lOZHSOsf7DwPcnit5zlM40B7f9xnva3ZXiBG8zkwdSfZpV2N+itM0jqbY/QPqj+VTW32zVporWxdbGDmS2T3Dtq/7P7hhbYNAfW91UtofbKKrbJ6GLXHTH6rucR8HkNPX4ccYEFgHW58kTjrjFHkc/+yLumrlE6izObE9QuTIcuP8+7QvEw0Net9JWbXwRxeJ8wqqf+l6we+9WiD93lWA7Qezfokvafb0pxQyM0LcPTISdSfbkSC1gErU3kdOqCifCamT58hNm8a0hmC0AZ/+N2v1Be+8FW9mNTx63y9aHXs1BWDBg7gBbS5sQE79+xCY3MzEs2kGMd5U0nQ4m/doGYJMwoiq7xsWPipzSkVomOt3GMlotkqRHxmmvfW7slsbKuopfzIa5nIbDArs7Gy7qJMGb6L3Ab2Ny34pEz6nt1ETJ1ISYh8E4dhhY2Otba204fY1rY6X/oC4jy4ka2nMXbNa2tj8bl2j+J9Q9ljA2WMXY+V+GQq2u/Z8z3bRrOBe2ZjVi2ee+vrYJ+EqxMp1gkbTaDuTcJEELjf7clGjbJe66ilEcozxr0zDI2eaBV93pnBijKXbaMUvInq1wnX91FLvzhlh5UAG99z102PUoDbaN5x/WnVO1h9l/vA6vxszLDDwbfKlP4kwRuwMQhS5aeFg6n6HisjyhpDbOUbJYbKp75lA8aMA+uptq+Qlt2QHl323djYOueQ8a1YqrgeJNg8PqSQksKWJjN+Wv8ZQ0CljN6UfKVdnz7nfolarq/SjglhDfPQOOnSowpkKLBBbk9Qyhic1sXFsskKs+srz44vOQ+UUeqSrkrWALd6v3G8eOb6fCxa5q/n2smVtQ4Zaz86W9LNxciz424b5uaacQLpmqiAlVUjRNaJaCemGWtjfMI3Dgs/TbpIfiNn/IZ2DlgBZjFgAzSyfWlkyq07sO0h50zgRbbvA3ZEslPGTlZj/CgzT3kdUcYotuOXtEY3jwfc4IGNc19XIpk2qDE2gBQ7AZV1MibseSo6W0bY7WgcHXaM2da1k4jUV/qcnFDUlyzzpFxGRpE3a5Zz6Ng1SpmIr5N/LtsZLHQey6qLW5uFjJyyvM4rtrb4GOMsCVguaexpjTb1d+uLdWQpzxg0btIr4zhgBT4ye4aKTKu5P8h48IzJB1sGnR95br3wWCFX1lgxMuCb9ZUXVrOamPb6PJYsFmSwKFhD0/ZpaI5MKtVioLb4boxhyzJojVbP7INkp/A6ZQ1KN+QeOSVYFqwhZWviWUdLxJNDy00YmrIDE9k15ZuyVWQzZ+wc8OwcUc7pZueixw4O69TzzcQlBwYdF6btY1QnZfvvjP3Nc3u3WSuc/eLmp5nHPhtYLB5wjitwfVwbYdcumKnLTkI+JjLGnnJ6AR0XmTXBs4a+79Ygd2Fl9AWXdaE8s+lEkZVGJ/vGb2PXuBbdIHBGvgtE2Oi75/Yq3wQvPJZHn2cdfd7MTtmoZV1yYpBax22/2XnkAgfc/tDIurLrF8tRgJZF2ndykrYG23+N3846UKxc+VYJIjnPIccsOQAj0wbj4DNzOrCVILluCq0jEWn7L/WzdTYoardyu6zRM8wljVParC0uy8rU1TndTSDHzHm4vRlmTeT2k3NUGeOarqGsfuHZ+UGDEiYiM662reZafqq+zVGU6lPnezPLkdVZPJUKUvC66aUFmqwzxLMDxPuTdcrSjkXzNMHBII/XFdqjEpGZv25BjbTeo6zi5Cnn4DR9SLKkztoXXcKF26Pjdl1Sdi54cH1rjnLrCxFz59vfvCY75cdmCbo93u2Z3Xv2QId4DuI5cRTl5eFUfTO279yq932zRvTr1RmP/fVJjCsdn5re2UrWd4AgnM2BA/vHjRt52ep9x46hQC8ivXp0R2FhR9Rrg3/Pnj1oNG5ucJyNMgAKO+BvPv1Z1J08qRepJBpPN5n1yS2wcAYmRd0C3teS5GXnyJk1KslTHHqIUcAmERkvvo1YRHajiJP3VK+s5CFNUFRHRWZjU9bsoQWVAli5MVMeRY04qq9SxiJtRFSW75lzONIaRWbzsBs/R/rYOPSNquUZ/3lAUULlG49tImENDPBxRlmyjgWKhocJRBTFdLmk+jzFRpkySg5fPjJZBpz5kORyqH2xeA73b5R0DoowpaDyxk6ZDAnWvu0G7HF7ktQ3rBj7NrJnsgsodMFef4pGeCbiESYVj4XbRIwSYBS3JtoAjSlgFGCrjNGIUmSNNkZO02ZDCCaKzwaPibpQxDykyLbL7LBKGR3FSpc+v7EpwTtXjFMwKEgXsVGS0H1SkJtrIrSxXF29JCukLA8c1dLlUHSFFB2Y8VDK1McoUooj2pxNwnJjDC+fHTvgKGOSjZ7IqjcqFbngsaO+C62DgqK9QQ4PcqhM/Siy0BwmTR/QPKA6sfIfsVzF4jGOoAXOCItsZER5dqOn6EvcKD8caY8ZI0wZJTngyEjE9XeGmM/OitAau3qOxONsSBn1T9lIvVGySFySiWakXB9sJBkDyWMvkP4kbqN6MJE8k8li1CcX5aMIe2DHhqKiHkcvjAHo2dQIMhw4i4GMeZI337fzzBgwrLTYCGBKMeLosJEp41QySi05/+jzHFofQmWlD9asbFEmaQ43UvTfGkFmjlKkKsGZHp5Jb7AGqJfKIlFOIaPPbHSOjSgYh4tx/yj+PJYX5yhm4AW2DpGJUnEE31baKWCKotgBG1Ohrhc5E3JycvT5zTYKi1Q7WdbZgRXynFDsFDCavAte0ZhzJNyONckQK6gkf1q2WDYDmjqBURStpktGIoVIOVpnvY0cezReVjsOpCDG2MGVbA65XwInQ5yxEVgDxGfZV3YtpKg2yRDVhaLnAfUPZRmw9efxeFJUy90CRhNR6fUZKedawPOTonoUNTNZP2bNIYOFZ08UWQeXb28DMRF3t36Dy2ch5zWS5zRH1sBrNkdofZMJFHhmzirrdFM2G4MlhtYimAipMUBtpo3eOELrU8rNySM1HMZt4aXNT7uPOCMNSK2ftNf4XpyvlZsX40wqth5YpBQ7Q2jNoDWX1ge3D5DQs6NIJWFTc3gNof2Ashc40yDpZBDG2nSZCi7Tig1jbhQ74IOcHDiL0kSQzTrIjhLOwLErhzOAYVPLad3nORpjx0iq7yNl54pZG3PyctDcbKKYthesE8nMd6TmZMjOPpJvZTyOJjKbclka/SA1/9hRQ5H2HH1KwjjXOErtpfYidurGbHaaddry+p80x9Hek5cToFHvzx6lUiXNOsHLUeAyjayjyzPZXWTQUeQ10AY0Z0nQnpY0GQFJu6eZbK+IgwO0hiruk9DM4dAa4RyK1vKj6897AMzebPZ3do3oNcBm0tn9xjhqwPLCEeWI1nfPZn8htU4q69BTnmdvsVRsZdL+xHMgbOa2xGkuWiOVswzMrsv7DTl/jS86zvKeDJ1j0jjyfWeEemAjOFTGZUjjGTmdgNYJ0k8ik1uCVKaC3duMt87sb9SPodn3fCcn5NiKGWePdZNy9gXXw+4fnpVF0jVIb/BtwIDWnxzaj61e47vsI2t40/sURTcOJ7t2RSabQlmnHqyTz6w/LXU1up/RC/LzO7AewtexmXKBdZ6m1jcVubgB74ORjRSwEyswTkfnWkw5oay3n9dJyiBJmP3U9KGpM5Ub10Z7oslkmjkdhbffwOzHeXk5Rp708fHAZDM1JxpR1KkrOuTm4Ge/eFjrgqFe441s5eo6FXUsQOfOnXldeGPHHh6Ljh1ycbKhKatt4KxuvCCcTUXZdHXvgoVo0hvgiMEDUNShEJu3bMOJpkb+vFePzvjGN/8JQ/v0wZe++b9l/giCIAiCIAhCO2Fd7Qr144cewmN/ehQHDx7hoFlRQRz5BUXIi8Ww//Bxzt4tmzkTc+bOzUpdPisbLQitcfe0b6v7Fv4QvXp2R35ePo4cOYyT9aeRlxvHvfPn4tv/cpfMF0EQBEEQBEG4SPjB/QvVv//4x9iybRty83IxsEcf7D92EHX1TfjKV76MBx/6Wdbp91nXYEE4B6p3907oVNQdm/QiQalSP//xT/D33/ymzBNBEARBEARBuEjZ9vqm40MvHdGJbogY1n8ATh47jkP1p/C73/1ffPrTn88qXT+rGisIbdGv/wC1Z/cuXDJkELbu3InePbpjz/5DMj8EQRAEQRAEIUO4depk9dSiJejVqwcOHz6GWCyG+qbGrNL5s6qxgtAWnueposJCNJw6haJOBTh2ol7mhiAIgiAIgiBkGMOHDla7duzAiBEj8cqmV7Fv+85P9how8I8Xul7nCzFyhKxn9coVqnjCRFw+fDg2bt6CRx75Oe6448syNwRBEARBEAQhw9i59Y2HBw695IuXDBmGzTu24s5vfwcLH3gga3T/rGmoILTFt77xVfWjB3+Gwf364tCRY6g/fVrmhSAIgiAIgiBkKHlxX/Xo3hsHD+zDLbfeij899tes0f+zpqGC0BZ5uTmKvoe4W2Ehf8fr7gOHZV4IgiAIgiAIQobSrXNHdepUPXxtDhd27ITDx45kjf6fNQ0VhLaIxQLVIT8XYTKBuBfD8QbJABAEQRAEQRCETGVQ355qz76D6N6tGw4cPgKVRXZx1jRUENqic5cClTgdoqk5gd69umL3Pnn6vyAIgiAIgiBkKiOGD1Fbt+1A3z59ceLUCZw4cSpr9P+saaggtEVRUYGKKQ8n6+owbOggbNq6Q+aFIAiCIAiCIGQoY0ePVBtf2YRevXvj6NEjaGhsyhr9P2saKgit8dJzy9TV19yA8eNKsGrNKgwbNgRvbNkm80IQBEEQBEEQMoyD+/Z07tmn3/GJxaPV+ldeQ+++PbH/wGGcPi0OAEHICpY8/mc15baP4kMlE7C8diWu/vDVePa5F2ReCIIgCIIgCEKGcvPk69XSZ15E3z49sP/wYTRJBoAgZAerXnxGjb/6ekwcOwar163HFaNG4be/+Q127d0JhBHoiSCJZBJBzOfjPd9Dc2MzfD9GH2lCKM+Dr/TnXqSPi9Mv/W7Enyr9m54uSq88FenzfQR+oIuO+FNFTxzxfP2Xp/8L4XsxfT4dn9TX0B9GCqFH53hI6r9zAx9Nuj58ThTSyboYj3/pCyHwAiTDkD/39ZtUvvJN6Z6n+L3mpiTVRpfPNUCkr0fve1QL/WYYJvX19Sf6elQun0vFB6aeiDw+j5rscyfo17psahddTxdozvNdLwf6b2X/1m3T/RqFiutLJVI3+77HveTpMiLqG89cM1IR9zP1u26RvoZCopmO92FqoY/S7dUN4PJMoT6Xq0yvm0WOPue+1v2YSMLVRtlrmcpS/+h26DGghkWRsuMCcy1F/av7h+tk+8sUqs8zV6R+jPR4JPUY8fG62JDP42FifOXZlVeXow+KePw8riJVn/qG+5E/s33j6q/7JyDp8sxrI1emDixfgR6DpHmMjTICyH+bS0dW1tzfWlaSCT2uce4HaktuTi7LGT0Qk3pcF6qvZuQq8iO+FtWPq8MNMn3hm0PN9fWAUnmRvS7JOskGbH+Ftsv5tbLl+Gb4fJZzWNk0fUCCZoZH8THUX64vw0jPTT0XSW6VSnL/s4xxuVRfIycR9SHJMw0In6xM/9pxpXGna9B5MT3+yURCX5bP5PkYo3Z5pt6RFTcqg8ZW2U4m2aAykgk95wPw/LGDZmXLyIZnZT1yA0htj/Q/JHY0JomkKZ+O5znuw9RYl6EFKdkUsrxwm7kz/dT88mn+0Pj7pu1IzR/Ycqxs8QC6NYrf4Dkcp3Gm8bd9x+sXrSOel1pDdEtZbmmho7HjMo1A8LHJ5ghGdIx8ezHTbl+Z+RQPYlw+r45RZGYx9Ym+tsdzxtdyGZrxZwHRVwzsmIeK285n2TVEsVwYYaP1Iq7HKskyFho54Hrb+Unz3cqTikzb6bNI0bxXvK7T355dv0O6HvWtfp8Gnte4KLIya9YI+EitLZ5nZYv+1edGts95unL/+CxLSa6HWaN4/tjVzCxhNIfc2m7qZ+TVjBtfgS7PfeezJPm6TF53fbPQqIiOS5p+p89sg1kmPWXGnEXA43lDjfB0Hwd2bpm5Z8p311NapgL9Otkcch/wGmwXLS6D1l2WHyezEQ9f5FZ+O39oj2O54Bf6XL1W8kKpzKqabG7iPnDjbKaCWWAClu/I7luRkYnIrD90pZDnr2/mqqLXur/pGjTH7B7H/cPbVGjGmss2n7OsR3ZO0fi4n8DMNe6RtL3CbcE071xHhWHIcphSrt3e6Nl92kxAM5aRGQfT03bXCvXaowI7DmadNp/QMUFqT45I94jMJky6QEB1tLqAUnbq2HXH7Xc0Kr7WZWjPN8trZOQg1X593eYEkipyu545zzNzkDoy5Eabdii3puiX3M+K9o6kGV96Hdn90Td1oDrS+EW2TZ6TMV7PFB+XCFvk1Evt8m4P1GufivHeQv1vpolbv4xM8uSnaUlrhh0/rZixfsXzhfZ/3wk50nQcxWNE+lOqr2hPoIsFXmqvpz7wPbt2KjMqZh7Y/SlCar7zHhPB1l3xPkrrrOt3ns1Wl6FG8R7k+swz+4tnFxjez2he0NGR2QOc/LKcWL2H1n8zImbvhtujPBoj2+90jgqtTMW4fSmZIb3Hi+w+avZ6z66vgV5LaP/nNQdmTQk9WP3Fzukw4PrQ/CKdMaWPOj1R68i0voVhZI6364Ky+qeptJUvuDXP1I/liOahUk71Tek2iseFR5TnYIyqwnqRMvui1UsbG5v0HpGjz0hgwIAh+OxnPoude/eiU1ERDh07jsYs+hrwrGmoILTGji2b/jho2IiPDxnQXyveIU7VHcfxutNvOi61QZgXLQaW0XURWRW9Rf17N5iSeLn3rZ4AW6D5KL1C5idyL6ylZ09gtUyvdqEt5K1q55SGM980h5tLGWXs7M9ae8Oqq+e+XlpNW9QM84lpqjrjGmcfdUaTU/3z5la2HOal2mC2p5Y2t5xl62Q3Mje+njvWGkBKtZRuzlepdqTXNL16nr2Yk5+W9rs+dkqaMhueVZBZGXAtMRpdy8YXtbQxpWSn91Pa+Jnrpg/yGTUw76TVMXCGhDMgXVnkIIqs8qLSx6RFQD2reMHaRla3SV3OFp2qg4rSyzcKUMrISWufGytXa1IGUv2T1jYv7WWqdam+sHW2xkCqTCcLKQPO48qwk83V1LPtaunQVP957rP06yE1ZCllzx3jjGo2slyRaW3wrTOizcWElDG2ZYzS7VmZPvsY47FQZ9SH9TZYx5hSKZFwfeuldGPPlo00I9f6DdJEyaxX9oDIuUPOrnrL/OIjeR69aVbjjIPSGpSqk62DrfpZ5aszX3lp/X9W0SrtcNMlZ9YkvaSz62htVXt9U5CyF/RakQdzPdeXxqgIrXC+efbgDIONR8pYZ9bYMO4Cpc4cbS9diGHm0Rn7B9LXrzd115swBkLU0g5bwVYVRicg1phr2Q3POiZt6pxV3XeEc4hwX5yxnBlDKLX8cflvbqiz/VL1aGMczsk5DnR979m559ZPZRtM10+d2lr7vbR59uaPUvX27D8qbY84e498s/yTIY+Uc99do8WQsuuOl1aIlVtlHRbOmLQ+2TetsW5+pXbitD3WGcZn193Nbz+tPNVGH6eWyTbm95m6gZF595vmTthax7Zy+puKsv/6bv1J6z/j3DLjnVLJ0EpBaX97NA5hepvS9pO0Q6OzTm+7zmlHnesE12/WOE5/v5Ut7IytLn3+ezbAlL4Hsj/Uc/rP2RP8zEoFb9JP09Zm4Ix9KTU/07azVqb2O4AFEDGtRBUUFqBjUWc9lkkcO3kC9Q2NrS5zmUjWNFQQzoEaPngQ6vTkj8VjKOjYCQUdCnh19zjCQqu0x5FAimbxBhD5Kc8zBzfJuIxocQoRi/kpBYBNTut9pMhBFCWNl528n1qT9K1xlEyaSFsy0YSQIhx6YcrLz9fvNxuPKi3aMYpg6UUrFufdUakER6w4IufZ6Cr/JOFxEMbUiTd8u9nysqdMtEeZCnM9aFMk73QiDBG33mqnqXixmFU4KPqT4EgQ94dnop5uwY5sf6kwaRZ/z6gkZDTSJxw9pmiwZzMiPBNNYRuLooRJl7lgI//KZh1EUWqjMRFwE72B0v2qG8rv+EZh5R9SwEKzbTvPtXLGM7/dElUj5dr3zXgZw5/fZiPXc0qGNcR9zykxRkNjrzeMKhpZ45JehcrE5Sg644xhF+FMhs3GCLC7sJeKZpuLkXed22etYc9u1pFTnsirHvPTIkb8ic0UMNEHjr25yKoVcA40s2MBHB3m0IJv+pw/J71Z/9Osf3L0eFMGQ16HPI6ARtZ4JeWPxiUvJ84FsgJhrdSQbRSTddJMWQUUzYWZFxSJiSIztlQevw4jOKeaixSZKIqLCDmDryXi65QsL2mVQ2XaSpawq78XWMOWRJsVMhsltNEq3zpwPNu3LP+kiMCZerCZN7BRDjOPaH5yWyhak7IeXDQdLRaFMuMGex5FY0jRi6xxDBsFpHI404XmF8lIaH7T+hAgbsaOg56mvqGrnaJgFkWprCERmQifET3faJJUf8oise0wc9NGLj0zRzmSpq9jKh2ZSLH11qScfZGN8NEhvMbRASHXh7Iu+Nq+55pls3UUYtZt43nOeIXNpomMtHL2U0vkz2QZ2CyodGOVs2FMZIvK9jna6NnIkbIZA5Fxgth5QL9jNkrF81mZqJ6ZyMY4ZMcDjxktjEnWxHl+eCai7zJqTEQs4jXWJsPw+s6/qe02m8RF95SpsMkMcGuN84vwPDZ9wmMB3zoIbNRMmZwQF+ul/vbY4DaZGZFyTl0j18b4cu2yZl9kM3xScmjWeus+M5lWgRtDO5dcxN+uH3BjCmM08ZruO/lUPA9yKIJn+0sp384D4ywM2EGYsPUw9aTONuWpFseEi+DpMXDOLqfPK5ZNE730bF9xm5XpBxqDgCK6KUPfyAfsmuGcFp4yGTWm75VbVXlsTXTX7G80T0Jut4lSRpxhZ2Qw1Ze+c7pYGfHNWtfSJisDdqx9uDXdjDvl1LEc6f2KM8AiM8bGqNL9aq/D9eV1J0jtXSyLnsma4z0zMtLusldM/1EBMX1cws4TU1/uM2oVzxPPpYzZeenbvcPloRhZCtgKt3MqNbdb+padZZFzDBsBN2026wpsdJkzBW1WhT2as2ySSStrbn91L+j/wKzZbt/yjaCd6Qy1A290ApMhQVkJvDbbvTSV3eNce56RYRpzWt+dsW0yKEKO8vMy59t1PfLgllUjV37KYWLWItv/1hPPx8f8ljkYGT3ET8ugMZk5ijMpeA2jt6ywsL5hRyGIm/XAOdFhx9rnrBhlsr7Qso+Zv50eohAP4kYu3XU9s3a7aD47Ej27J9g2kMbmMmeojtSfgWedea4jIjM+JKM8lyK0ZJxApfbrwC2Wzjngwe63lF2VNHuy3UuN99+scawX60HiNd/Nv7RsCqcTeGYzAuyuTT0cWv2A9D6qHrWJ5imtRy4XlPV5Xj/jPDdi8QA5ek4eOHKYs3opi2nX3oN6bBJZYxdnTUMFoTUe+9Mf1O0f/ySGDxmEfQcOINHUjGaTk24WR5gd0LcpTqS7JltyuU0Uzm6SRjm1mlR6pDDNTX1mhNEsti6SQXsBpWgVFHZAXtxHhw5FOHz4MOobmlLRd05PZqvBKKruPOvkNhu2bxRTTokzu3RLRJvSEwOz7vrKmaxWUbEp9CZRziqrYVpsnDY4ranQwhm5FMHIKN6mQNs2FWtJMVZOEfdS9Qut+57S6Fw6OO9TNqJr0v2Me5wdGHaz4tsAlDHW4FkTQqVF362Ck1IorFLBCoQuiFIUOX0/co110Ve7wXqmXYGxhLiyUWja5VKMnQLoxs932p4zGuDaapUEGxHg8ynFMTTblksnV2kZBs6xYDarlCWU2rj5pWf64Iy6p5wERuGhY41BbjV7ow6aY326pcWFHZCSyzxtNOUW5CE/J4eVrZMnT6ExkTxjrtDhJs00SqWeugh8kFJUPasUWJmKlJUnpAZa2TF22QbOTvK8lui88X/YCL9tr2+VcM/eUmL0P1uC56UcCcbZZstyhds0zJaUZCPjkTumxZZiYxtoyV5IKfI2/TqKWlITU0a9bZ4jpRAZ/cYag37KuHTz2d1OYM43KZ9GabEOlqSRv8gZycoNqf1DISUbJkpsZUJZxwAfYA1BzximLj2ZFSc7fnwHjW9S9SNnHDoHxxmhfmNMcQJoKhvGSylnvh1fdii4eeuWBXOkGWev5TzPzRF3mwtgU/hb5rDre/o0ctaiZ9c/m/rpItac7ukGmvozsH1uU05N99lbVKyiny7lPN/smmGcBdYg8JFyBqayKMIolXaaMqTN/RbsnDT9ZTN6YnySXf9aLCvfmirKOgMiOy/So5se0vcOK/Y4U4FzY5Byyipl1xfT18rp5co5MaMzsgECc98J94sKnf9XpYxUY2jasXY2WzJqMeo956R0dotdy4EWebRGd+rmEytPfspJAHZIm0i+dRp7xmfJ64HbS9ycTC0BzoFo9mlzkrlNxN3u4baF0GtZe5DWj87QDazj3Dly/LS+PTvTx3Zzi5FkPMnG2Ugp1taQhptfdr1IOTzd/HMObM85TI1cRClDkFL3vZRDzCRlRCndw/W/svM6sgLkp42vZ8dPub1awTpAbeTdd4eyW9aum6pF9qxDFanMK5US43Q54lTswNwWYi7l2f3ajLVxnsDuVnb/NsMNl1yu3O0skUr5V9366dqa8m7asWSDksqyTkEOElj5Szn9lXF2uiJcUMQWn1r7zO0ZzvBs2afcvu+plrR8u5Xxus0BjsDcRmX2ZefoallnQuskcPOSnbKpFAy37hh5cRlYqfoqIx/mFh/YNcNucp51ltm5o1zmA6fjq9T8bnHe2DHgOWYzLz0vtX6x3IYeB3w8q9dEHPRxPZ+WbUNX9r202yNNO1J7qzXQ+djU/Hctc/ur2b/dngLP7TUte5xxuAepgngtiOwaZPuU629vyTXyaOekb+YD3wbKDipTTI4+q6BzB+Tm5OPw0eN0y+8ZO0ImkzUNFYTW6Nm9qzp1qh49O3XBnkMHsW3H5urG0w2VfJ8z3asaJbSSExqljY2RCIkoaRdwazXYzdZzEYTUxmT+iayFllKO+R640HqKjcKWSNBzBoC+/YcUf+7/+8zqZS+8gJ7duqA5TOKV9es/2dic+M7hg4euK+yQzxF+VqwjZ3AZg8d54VNpypYWc9hsphQ9VGhJ7/St0kv1p+gcRfwpyuLup1YuakDHhaGuZ4DUcwecMuNC1WR8Js19ESbSaJwI9AwFYwrqTSJpyvbsjuA55cUWQQ7ewEYEoVri2J7dWmhjoY3GeX5N/c1iz89qUFatUKbNrMTEAmN8Oc3a3VftFBi4DVbZtD6VSotUzuCD25CcN97Wy+3dNlLGfaDc3bNIpTma8XHRTqdwOveA3QRdhMWz7bbPIQhsfYxPxURZHC611yjPxqgJrTHhlO+UUpOM2Lufl9sBzZRdouvTsVP3Xx4+uPeL46+8FsVjrsCGV9/AV778JVSWz/zknr27/pCTm4MYPycgyQqIyTaI+P5md5+j3ePh7lP0nbJmO9ncZ2vvZOXxC/l+45ShZtuccmDRac6AMNZESiFV9lka3FNWuXe3dHDUUs8Zz907AGOtuOhKpFpUDxcQc0qyUdpVi/HNipONbHktiZhJ3X8xe89vS4TCzRHjYCEF2ClSLs3SGSicDcERPmVkhtYEz2U46PObk+ZcGyGJ8XMnjGDFyEllIxxWdGwWgZEFajtH58n48PyUQc0KauAcbEglKjhD3SlnZomjtc8oTSnnlTPfefxDM79t+1OWk1svOKPARalM/4WRNZR1RckRx7fVuvnNoVotM6FZOUk++f7NVJQcRr5tZNGtvbx+RWEqwu9Z+eF5YpV0z1l5tpEcwY/SM0wAZ04aJ4PJ0jLriZtjNmuCMjkSxgGa5OcB+C2Gul3bfTtPXcaQ1UxTUVAvlZ1kXUR2kTFd49nkDbf2mAwrlhfl857B9+taA8etV64h1B+U/ZCwho9ZO1XLNICfMqhd9o2ZaO4Ye5uBVZ7NbSq+ecZKYI3L0Dx3w9TP3netTLSfnzvBhkD6MyJaLENzfIs8UnvNMx1sdN2zORzGmuO6koyEVkZ8Vz/rdHYGjLFD7ZrgeXbdMUakM+RMOoUxnPn5JvxcHePsjik731O3PYVw+Uk2V830I9eJ6pN0Hg7zmTLZfJ7bH1L2i5NRet94VFJri7u9wo2Tm5BOmOzUhl3T2G1sr09rQ5Iz32Imp0Yh5dxMcIZZYPd6d7MbUvJNGUlx2ovtbWb8jCGzSZl5RWIfM8ael1ovTR3dbVx+y8Q33eCymOxaws8A8GBvQXTra4unQDnNyTlpI3u/u2+DEh7sGmOeCeIpl0npnpJgM1dMMotdx5SxC0PY5xekxM5czeonpo8i9rymG9hRyoD27H32ZhDpekk4J5Bx5rBuaGWN53wqgYGuEab6xUsbW3dbDzuYYgGvW5Hn2fapFuPVjplyc5t+hyZYws+xCU1mGsu5DXa4Oe78opF1lke8RsWN9DpdCCbyzlk0VodwOxvsqmTu8VcudwKwDjplPCLWk2bWqggug8mu4fqdZq3LOn0IqUyKyLTXZqYZR2lg4zAuS8uICTvDYHVmuLXcOevNM6p45nDGhXMigdcd+iyESs2JlI/FOhI8Kw+0FyYSCfTt1++GB773g6UP/OBfMfLSkVj36kbq96yxi7OmoYJwNitfekFNvOpqXDbsUryx9XWMGDESr7z22gWfE1/++y+rh3/+Cwzo3wd7D+xHMpE9C5Jw4SD1cszoK7Bm/St45OGf444vfVnkThAEQRCEjORX//M/6vN/93cYd8UVWLdxIzkcs0bvyZqGCsLZDB88UG3fvgvFl12Bla9uwC9/+iC++I2vX/A5ceN1V6ulz72AHp2KcOp0M05n0deSCBcUNbFkHFauXouZZTMwZ/Zc7+DeneN69h245kJXTBAEQRAE4f3g4L49nXv26Xd8dkWZqpo9B6Vjx2LFmrX0Udbo21nTUEE4m1jgqS6dOuNkQx0SjUmbeHXh+cTHblGPPboIPbp3xv7DJ2G+aEUQPlgoYa503DjUrFmHubMrMaO8UuROEARBEISM5L5Zs9RdFZWYVFqMFbW1qTuisoGsaaggpFM2/S41Z/59GDVyBDa8tglf+9IX8dDDv2wX8+Gjt05Vjy1ahO5du+DwsWOIQpmnwnlBlY4djTXrXkFVdQXKK6pE7gRBEARByEjmVVeqGZWzMKF4HGrWrc4qfTtrGioIZ6FyYzF000b23oOHsGfnrn/uN3DADy50pYjbb7tFPf74E7punXH8RF1WPZVUuHDQ88mKx47CmrWvoLp6Jsoq54jcCYIgCIKQkcyvqlLTq6owsXgcVqxb0/I1QFlA1jRUEBzra2vVuJLx6NOnDw4dOID8/Bwcr29oN3PhtpumqscXL0L3Hl1w7Mhxemp/u6mbkNGoicUlqF29BlWzylBWMUvkThAEQRCEjOS+ubPUXTMrMLF4LGrWr0OYzB59O2saKgiOWyd/WD2+5HmMHnEF1m/aiJefW4Yrr7m23cyFWyZPVk8sWYLe3bvj6PETaE4m2k3dhMyFvhVp/LgxqF27DhXlZaiolgwAQRAEQRAyk4VzZqlp5RUoHT2GHQCQZwAIQuYSDwLVqagAieYmnGxocl+V3W6YcsP1avHSZ9CpoBCnTteBv/ZYED5g6CGAE0rGYkXtWlRVlKNq1myRO0EQBEEQMpLZ1TNVZeVclIwdg5q169qdPfBBkjUNFQTioQcfVF//+jcwuF9v7Ni3DxNKSrB8VW27mgfXXXe1WrbsBXQqLEBdUwPCRPakJAkXFFVSPAa1q9dhVkU5KsQBIAiCIAhChjK7slyVV8/G+LFjsWqtfA2gIGQsHXLzVCLZhP69+2PHnl2I2uEcuOHaa9Qzzz6HjuQAOF2PMIseSiJcUFTJmFGoXbcBsypnoqJ6rsidIAiCIAgZyazKMlVZPRfjS8aids0ahFmUcZs1DRUEixo2cAB27NoFPwjQnAzb3Ry48cbr1DNPL0NRUQfU1TUiVFG7q6OQkajS0rGoqVmL6ooZqJw1T+ROEARBEISMhG4BKK+aiwljS7BqXS2UOAAEIfP47Cc/rn776F9w+fDhWP/665gx7U7MW3h/u5sDk2+4Vi1d+iwKCwpRf7oBYSQOAOG8oIpHjcbqDetRVT4DVbPFASAIgiAIQmZSVXaPqpqzAJNKSrGitkaeASAImQh9z3lRUQHycvJx+PgxhGH7i/4TU667Vi1Z9iyKCjrgVH1DVi1IwgVFlY4di5q1a1FdPgOV4gAQBEEQBCFDmVU5U1VUz8OE0mKsWr0aKsqeZ25lTUOF7ObBn/yb+vo3/wmjLhmBDW+8gcsuH4ZXN25ul/J/0/XXqqeeeRadigpx4lQdvdUu6ylkHGpC8TisXL0GVWUzUDVHHACCIAiCIGQms6rKVUXVbEwYX4yVNavlawAFIdPo0rFQHT9Zh0uGDMGmbdvw1z//Frd99G/apfxPvvbDasmzz6Nzp044ceKkXo+yxyMpXFDUhOKxWLV6LWZXlKFs1hyRO0EQBEEQMhJ6CGBF9RxMLC3Bippaeitr9J6saaiQ9aj+3Xtj/+H9COlFO5b926ZOVn9dtAQdCzugrqEBURY9lES4oKjS0aNQs34Dymfcjdnz7hW5EwRBEAQhI5lTXa7KKmfjqisn4aWXl7dr2+D9JmsaKmQv3/rGV9WPfvozFI8dhdVrN+DOf/5H3P/Av7db2Z960w1q0VNL0amgEHWN9DWAkgEgnBdU6ZjRqFm3HhUz7sYscQAIgiAIgpChzJlVocoqZmHihGKsXLlaHACCkFl4qnOHIsTzIhw5Wo+onafU33LzjWrRk0+joCAfp5uaECblWwCE84IaXzwGNavXobL8HlTNXiByJwiCIAhCRjJ3Vrkqq5iNieNLsWKVfAuAIGQMv/qf/1Kf+7v/hcuHj8CmzVsw6apJeOHFF9u13N904/Vq8dPPoLCwA+obTiPKoqeSChcUNaF4DFaxA0C+BlAQBEEQhMxl7uxyVVYuDgBByDi6FOWp+oYQg/v3xKYd+7Bk0aOYPPUj7Vrub5kyWT25eAkKCwtQ11AvzwAQzhdq0rixWL5mLarKpqNqznyRO0EQBEEQMpK51eVqZuVsfGjiBLy8YqU4AAQhU9ACroYNHowdO3YhHs9FQ3NDu5f5mydPVk8tWYLCgnyTAZBFX0siXFDU+HHjsGrNWlTOvAvVc+UZAIIgCIIgZCazqspUVdUcTJwwAStWrcwqfTtrGipkH9ddc5Va9txLuGzwELy6fTu+9IXP4eH//v/bvczfPOUG9eTipSjokIvGxmaEcguAcH5QpWPHomYtOQCmo3quZAAIgiAIgpCZzJtdqWaUV8u3AAhCJhHzoXK9HBQUdcCpk/U4HSUuCnmfcuN16umnl6FDYQc01DdklUdSuKCocaOvwLr1r6CqciYqqueK3AmCIAiCkJHMn12pppdXmwyAlSvprazRe7KmoUJ28eyyRera66ZiUulYrFu3HleMG4NVK9dcFPJ+0+Qb1ZIlT6Njxw6or2tAQp4BIJwfVOmYy1GzbiPmVJWhrGqOyJ0gCIIgCBlJxcx71Ky5C/Ch0hK8XFMrGQCCcLFz2SVD1Ktbt+GSgcOxedtmrF+3HqPGjL4o5P2myVPU4iWLUUAOgFONUEq+BlA4L6hS+zWAs6vKUC4OAEEQBEEQMpTyGXepOfMXYkLxOKxYvVprQdljF2dNQ4WsQ/XsVoTGZBIqGeFUfdNFI+s3T7lJLVn8FHIK8pE4fRpJyQAQzg/sAKglB0B1OcoqZ4vcCYIgCIKQkVRMv1vNmX8fxpcUY2WtZAAIwkXN17/yJfXQf/4SxWPGonbdGsy8axrm3rfwopH1KVOmqKWLF6NDUQc0nm5EIikZAMIHD31jRol9CKBkAAiCIAiCkMlU3jNNVS9YiIklxVhRu5reyhq9J2saKmQP3ToVquMn6tC9W2ccOn4cUXhxyfktN09Vi55chPwOeUg0JpGIkhdV/YWLEz/w1JjLR2Pt+nWYVV2OcskAEARBEAQhQ6EMgFkL7sWE4hLU1NYiyiK7OGsaKmQHLz67VF197Q0Y1KcPduw7gCGD+2Pr9p0XlZzffMMN6qmlS9GtS1ccOX5cngEgnC/UmMtHYd3GDZg7uxwzy8UBIAiCIAhCZlJ+z11qNmUAjC/BqprViLJI386ahgrZwS3XXqOeePY5DOzTCzv3HcBzzz2Na6658aKS81tuvVk98cST6NK5C04eO4ZQ5qlwHojn+OrSS0ZgwyuvYU5lGcqq5RYAQRAEQRAyE84AmH8vJo2fgBU1K6HkIYCCcNGi+nTvjqaGBpxoakQYXnzevGuuulK98PLL6NqlK06eOInmZPJtn0uNVe/jceln+PqkSKWf5esf+4RC/aeKzl2w5/mUzcCHePZ4d7g7xVzj7Cucux2mbICr5ttzbBn0nm8/p4NDXVjM1/XwlL6+4s/V27iOq4vSZfj6hDDt+t5Z57o2uLql2qY/iPQHqbqmlaFsn1BBdD6V76m3OZZey7Fv53g/CBCFoa6Pr+tjap6bE9Pt8zFoUH+89sZWzJ9ThellVRfd3BEEQRAEQXg7VMy4R82etwCTJozHyytX0VtZo/dkTUOFzOfOf/kXdf/3v49Lhw3B61u24RO334o/Pvb4RSfjH7llqnps0SIMGzwE+w4cgLbNEMTixmBlQ9xjQ5EMxkhb0XE/YMPU0++xgakNu5DMOZ8MXGPketY0TGrDLx7Thh+XpIxF60zgUOn/FfxYoI1K/bn9TOkLsQGtImNk6vdjMX125CEMEwjo+vo8qgt95gdKX4cMXaor11iXEem/AzY4Ay9GpfIlo0TEFff1NZJskHv6c5/L4LYoZ9Zq41nXIdAnhbpMX+kydSsCMuYj43kItGGbjJII4nGEyZCtbE9b08q6dLkHqI/QUjcon9saWe+F6YmADwytsU51ZiObe9Dn63h+RN2l3/O4fwM+QNctCk1/k5HP9VK2zxT/5ek+8G1hxlGh2x6L6S6IkKC+DHK4TaYcxc6AlJtB95OTAfqP+gm2fnTtiCpEfaLb7/FY+bCHsIdAn6HLjWg0oGh89HExLSmhYncDEokEenTtjo167lTOnI7qufMvurkjCIIgCILwdqgsm65mzZmP4jFjsG79OiQlA0AQLj7yc+IqbE5i0NBBeGPrdnrropTvW6bcoBY9vQx9e/bGoSOH0Zxo1qabDfNq45ENU20Z+taYJc6OyxuTuZWotrWEU1F7+zcV7XIlvLOi161GldOOTUW4067npR9kjeAzsgNayxQ4V/ZA2t/qrQ6GMcB9e1yUOqkl+q7aKCEVjYcx7iOv5WDP/lZn9c/ZEX3CP6vCrTfb40wE76wP22yVh7fMCvBafaVSLwOumHWe6P+SYZL7h/qqe/fO6NalB1574w2Ul92DWXMWXJTzRxAEQRAE4a0ou+cuNWfBfSgtHofaNWvkFgBBuNjYsH6NGj26FEMG9cXOnbsxoG8vbNuz/32T7wP7do1Tnne8d+/+23fv2lqVaGz6TkMi2emKy0e/73No8vXXqqeffRZdC7vgVP1JDL9kOI4dO8Lp60HgI6aNuGQUcSo7RbBVFMIPfJMFQJFtP8a/TWq4iRibCHcEDvYGAeKcjk6GX6iNXBPBZwOeou/6IBuvZss25gcw8WSFRMQFcBTbpNFHNqId09cIOXaeVCai73MU3HRP5FPUXvEtBGzn2swEimLTlzT4/NpE2jnNni14impH/AZfi4PgHjs/PGsNc8YBezxcpoFxN6gwZMucDXku09RD8QGR7SePX3MU397KYOpArbDZE+Ykbj9lOnDiguecLh7fxkCZFpHNsuB+DOI22m9FIzL/mDpEnFGB0GYXUL0DfaZuJ/9tUg50mYFxNNgsg0j3e+iZjIhYPLBlU72MFyfibAGP0/hDO34Bj6sx7yPr/ODyAno/qfsxhpj+Oy+ux07XedvmLRg0cAA2vv4GKspnoHr2PNkfBEEQBEHISMqmT1PzFtyP0tIS1K6qyapnbmVNQ4XM5sNXXamef/FlTBw3GivXrMevf/0IPvPZO96TfN995zT1xmuvYeuO7Vizfj3ibDh5nGZuMAZmXNtg3Xt0wwMLF6Jjt+649faPvqfrTp1yg1q8+Bl07FyIUyfqtEGtZJ4KHzh5cU8NHzIUGzZtwayKGaiYJQ4AQRAEQRAykwrKALiXMgDGorZ2HUJkj76dNQ0VMh7Vt2tH1IVJNNQ3Ipl8dw//K585XX3vgR+ioaEh9R5Fios6FKAoL4+N/9z8zsiJe2gOEzh17Ajqm5NINic4Cu/Z+64/8pHbMe2738GVH77hHdfjtltuVk8sekpfJx+JpgYkQ5mnwgeP7/lq3BWXoXbDK6gsn47q2fIMAEEQBEEQMhOTAbAQ48eVYNXqWkRZZBdnTUOFzOU3j/yX+swdX8SoSy/Fhtdfw8duuQGPPrH0Hcn2Fz7/OfV/f/Mb+tYAdMjNR4fCfPTv0wcNpxtw9PhRbfDn4MihI0hEPiLV8lT+mL5KTk4e3z+dp89TysfBQ/txoq6eP+/apQAvLXsJl44Z87brM+XG69UzS5chNz8P9Y2nUw/aF4QPGFUyahRqN2xApdwCIAiCIAhCBlM+Y5qaO38hxpeUYlVNLd+keaHrdL7ImoYKmUvPbt3UsaNHMOqy0Vj7+kb6irO3LdeVM+5R1fMWgKZCp7xcDL1kGI4cOYJde/e3PNzOfm1abl5MX+MKzJ8zG69s3Ig7755Jz1VHc9qT9ui+/I4dizCwT38UdCpCzapVSOhz/+GbX8W///iht1Wv26bcpJ5c8hTy8vPR3NyM5uTbb48gvFvosQ4Tx43F8tVrUVU2A1VzxAEgCIIgCEJmMnP6d9XcBd/DxOLxWFlbAyUOAEG4ONi28RU1bMxoDOjVEzv27Efvnp2x/+Dxt5TrvXt2XX/5paOWHq87gY6FhRjYfyCOHd2PvQePIh6PI4jn4KrxxZg1by6u/vB1b2ue/OF3v1I//cl/4NnnXkJjMolc38elIy7F6VOnsGnnDtx3772Ydvfdb1nWrVMmq8cXL0FBbi4aE0n6SjiZp8IHDj0Tsfiyy1GzcSOqymegSjIABEEQBEHIUCgDYPa8hZhQXIyaNavpgc5Zo/dkTUOFzOQbX/uy+ulDv8Dlw0Zi45bX8N8P/wJf+NKXzynXv/z5z9QXv/JVxDwPvXv3RMeijvzkc3pK+kdvvR2P/vWx9zwvvvt/vq2+968/5L8H9OmJRHMTDh09ieXPP4vxV19zzvLpFoDFTz+DTkWF/CyCRPjunmcgCO8QNbF0HFbWrEFVZRkqq+eI3AmCIAiCkJGUz7xbzZ57LyaVFGPF6tXyNYCCcLHgeZ7q3LEjVJjA8frT9nve2mZBVaW6p7qan9w/sHdfHG+ow5FjJ9GpsAivvrrxhr4DBjzzftavT8+uat/Boxg5eCB2HTqEMBGisbn5nHWcOvlGtWjJ0+jYsQCndZvEASCcJ9Sk0mIsr1mNyrLpqJ4jDwEUBEEQBCEzmXn3v6i5930fHyopwUu1teb7nbOErGmokHk8/PP/UF/76jcxbMhQvLZlCz77d5/Br//nN23K9CM//091x99/he/pH6yN/+17dvFXtN8/fw7unF72gc2FnHhMRckQIy8dgU2bt6Fy5jTMrJ7b5vVumnKjemrx0ygqKERDYwM9mFDmqXA+UJNcBkDFTFTMaltGBUEQBEEQLmZm3n2nmnfvA5hUOgYv16ymt7JG78mahgqZR0HHDipMJjGoZx9s3bUDmze/8adBQy75RGvHvrphrbps1FgU5OZgxOBhWP36q/z+zq3bfjhw6JDvfJD13LR+tbpiXCn69u3NXym4bcceevucDoDF7ADIR0NTM5LyEEDh/MAOgOU1azCrciYqzuGkEgRBEARBuJiZOX2amrtgIa4sLsFyvgVAHgIoCO2eDp6vevTugQNHjsOPhWhoSLYpz/nxHBVGIQYOHoo9O3ciGTYhcR6/Xm/QwN5qz+4DGF8yHiv1IvPLhx/EF+74+1avP3nyjerpJU+jMD8fDckmhAnJABDOC2pS6Vgsr1mL6soZqKyWhwAKgiAIgpCZmAyA+0HfgLRizTr5FgBBaO9Mu2ea+p6etKMuGYJ1m7Zh1twyVMyc3ao8/9PXvqR+9J8PY0i/gThw9BDq60/j+eeX4cNv8+n+7wcz77lTzV9AaUbFeKlmFSaO14vNqrWtXt/dAlDYIR9NjY1IRB/sgnR4/77OW7e8caypqRn5BYXo0qXTiYZTJzrd9tFP4sjRo+ik36McBBV5yIl5iOfEEQQePS2VvyrR0/8GfhyhipCrP09Gvv4ghBfo314ARBE8pej7FPXvCH7c0789fbyHgMrw6KYrHx799nwkE3SoWYaVSurz9fF0Ll9N6fKt50bxMyDARevrKl0hpV/kxGP6eF9fls4wN3RF+r+QTtfH5Or609c6ct3s9WO+bk/IX4VHz1zQf0SgK1L5oa5DMqImJZGfm6dP8fUxzfp4fQzVS58T6v8QmTYkQjqCLuZze+k6Sn8exOL6dYhYEEOzvn5M9xkR6XLpNTl8fvIf/4EhQ4Z8uc+AgQ9/kGPeBurKceOwfM0aVFeVo6Kq9fkkCIIgCIJwsTNz+l1q/vz7MGFCCVbVrM2qb93KmoYKmUUsyFH5uTFtkObiyMlj9Farsvz6xo3q0isuR5eiIm1Qd8Cu/Qfwg4UL8J1p95x/2dfW4YA+vbFv3z707NsPe/fsabUOU2++ST355FMoLCxAfcNpbci+fxkATy/6q3pi0WL8209+RFYxTmujn772MJFI8Oc+G9SKzdeYNsZz8gJtoGqDlh6Nqg36qDmp7XFt3moD2YsC81ufQ89S4GM8Mo6TuhxfG8dUVsQjQ0a65xuDXCXs3x59pI1wbRyzuUzlshWur6cNa8X2vmID3fwHdgZwV9LxZORrI9x+wtfWBSCmDW1Xh5C+08VXXMfAI6eAMu95io13Oj6pT49R0exJsM+A0dUIdHs5G8yj1hlXB7UgDE2byCnh63L4PD7X53rxUfxdMuyh4L6h364/kqFxOJAThK4d6YvlBjloDhOmbvpw6hWlzynSMlAyrhi/eOSXPxw0eOgHeqsKXXJSyTgsr12D6sqZqJRbAARBEARByFDK6BaA+QsxkRwAq2opUJQ1ek/WNFTIHB79/W/Vxz71Nxg14hJs2PQGriqegBdXr2xVljsW5au6U40Y3L8Ptu7ei1s+fCWeeP7lCyL3Ob6v+vTrjWNHjuJkQxPQRqrRzVOmqMWLF6NDfj4amxJIRm3f2vB2+Z9f/FzdOe272HeYnSXIz8lB185FHK3u1a07/LjPBmkQC1CYVwhPv26oa0BeXhzNiQQbyxzxDuKgeHZTpA1tbRgntUFOzzWI6LVPVnFcG7/NumXapPbCliZSMgBH+ckQ9jkib9722CgnY5ezBDRkBLOBTQ4FRbHzSB8XsANC6evk5uRwxNxjU52MahvNh+KsBE9/pnRdKNJOX78Y6N8ROSI4UyCwjoTIOBmikLMF6EPFxjj7H/TxITspvIgMeGUcI3QeOTNCBZeCQG0K9YkBJzoY50KOfpGk92DaYJwQHtedywgCdlpQ230/ps9vpts8cOpUg26GQt3RY7ob83G6sR51dXU4bZ0zV4y8BN//3n2YevsnPyj5VVeWFvODcGZXlaNcMgAEQRAEQchQKANg7vz7MGl8KVbU1MjXAApCe6ZX107q0MkTuHToQLy6eSdeePIpXD3lpjfJ8uaNG9Sl40rQq0tX1Onjm1UCjY3v3Zh+t3TuXKSaG5vQq3tPbN+9G6qN+XfzlOvVk4ufQVFBB9Q1niaD813XedPrG9RnPv+3WLNmHVu3g4YMRI420o8ePUSOBd0vp2383cCRdfuHSbQ3hrGfqqoyRrJnI/FK2Ui+MZxN3FtxGVHa3xQBp1NMtBwuZo/0v2Bf+TZjQKXXx35G1+ZIPmcbBPyOyVhQiOv3O3UsQLdu3dBQX4/9hw+zgyMdz7XpjPdarnXm0a0c1Mpx6YPT2vneWeco0x329gPb2DQC/VZObpyP61xUhO7du6Ouvg67d+/lWxFGDhuM5557obhH335r2qruu0RNKC7GqtWrUVk+A1Wz5RkAgiAIgiBkJhX33K1mL7gXkyZMxPJVK8QBIAjtmVjgqUF9+2DHgb2cTt5Wys7tU6eoxxctwYhhQ/D6lq2orJqJqqoLl9Z865TJ6vHFSzB08ABs3b5Xv9P6vUY3Tb5OPbVkGToVFuJkQz2lk7+rOj/wvYXqu9OmsdXcSxuRfm4eDus+a0pGbNB3694V4yeUYvJ115l0em3BNzU0Ip4X49T8COY4skQ5fd3n0Djfy84Bdf03Z9GzB8AasRTxTiTgUUhcUcp9yAa6Sf/nwDtHxv2Yb18ECDld35j6HG0nJwPfz08Xofv5I3NPvzLp/jn6v6SX1Jc0bobGpiR69+iGQ0ePYEZZNYYO6Ie9+w7ixsnX4hOf+Bj27T+MvJw8JFUIX9cnN1+fT7caROw+4DZRJJ/KJ+M7Fs/hjAbFLgzTBmp/ktwHVAfKeojrWiYU9xnVk56JkEzo/tK/w2TImRQm6UBxPxkvgGducVDuffsMAzrOi9Dc1IzDx47i6KHDaE4CGze+gp3bt/F4FeQFuo19uV479+7lrIO5ZTMxc877Ks9qfPFYrFq9Vr4FQBAEQRCEjKZixl1q1rz7cPWkSXhp+XJEWWQXZ01Dhczgxz/6gfrHb30HI4Zoo37bNsyZVYGyilmtyjHdUt4xvwPi2qA7cvx4mxH388XUKTeqRYufxiWDB2PLrh10b33rDoAbrlNLli5DUVEBTjU0tHncuZj2z/+sFj7wAPJy4+jfrRd2nTyMprpGfoDfv37/AXzzW9/KyLlP7oqxl12ONa9uxF/+9Gt85OOfvejbuWDBHDV/3r2oq6vn2wvoNpKjR47ieF0DHn7wR/jS1/7x/WqjGj+uGDVrVqO6YiYqZokDQBAEQRCEzKR8+j1qzoJ7ceWkiVj+sjgABKE9o4I40KtLZ/76P74VvBWuv/Ya9eILz6N3j97YvX8fvvK1r+Khh352QeX9I7dOVX95fBEuGzoUr2/fiqiNryG88bpr1NJlz6FTUQFONjTSE+vfUb3nz5+jpk8vw6C+fRH3POw+sAd058MjjzyCO+74QsbO+YN7tn2nZ78hD5SOGYvadWtx74I5uOueMu/gvl3jevYZ8H6ny593Hv3979Xn/+7zUMkIffr1x8H9u9GshejPf/w9br7t4+95XOn5hyUlY1FTazIAyiUDQBAEQRCEDKVixt1q1rx78aEJE/DSypX0VtboPVnTUOHiZ9WLy9X4qyZh5GUj8NqrmzBixGBs2rS9zeh/UU4OCjsW4OChE0iq9+9J+u+W22+5Wf31iScxYvhwbNmytc06TbnxBrX46aUozM9FQ1NTm46C1nj52WXqymuvQ+8uHTm9fN/RE+jUpQgnjp264O0/T6gJ48Zi1dq1+P59C/DPF+LbHj5genTtrI7rcR12yVBs2b4FoRajjetqMfKK4vfaVjWheAxWrV7HDwEsk4cACoIgCIKQoVTMvEvNnnsfriydiJdrVlzwTOHzSdY0VLj4mXzDh9XTS5/HZUMH4NXtu7Bs6SJce93UN8nwH379a/XJz34WVwwbjk07tqF7107Yd/DoBZf1W6dO5mcSjBw6DG9s3UZPt2+1TpNvNLcAdCoowMn6+nf6UBKVkxOgZ48e2LPnEHr16YH9+/Zf8LafR9gBsHLNWjywMDMdAETnjoXqxMk6XDJ8KDZv3orc3Bz6Ssf37ACYVFKC5bW1mFtdhpmVczKy7wRBEARBECpn3Klmz78fk0onYcWq5fQN0Fmj92RNQ4WLH7q/u3eP7kg2n0J9mIuGupNtfPVfkWo8fQpDBgzBG9t2YNmiP+OaqbdfcFn/6K1T1Z8fX4SRw4fh9c1b2vQ0TrnuOrVk2TIUFBSgvqGBHqL3tup+zdVXqhdefBnDhgzEgYPHEIYJ1J9uvODtPp+QjBQXj8bqNevxvfsW4F8y1AGwe+e27/QfOOSBwtx89OzVA1t37sSMirswb9Z976W9akLxWKykhwBWlaGiShwAgiAIgiBkJmXTp6m58xfiQxMn4eWVy80zobOErGmocHHz8wd/rP7+6/8bwwcNwZYd2zBt2rdx38Ifvkl+9+7e+Ym+/Qf+oW/PHjh57DiCeIATDe3DCP7o7VPVX/66CCOHXoLXt26mr7Jr4yGA16vFS59BQUE+TjclESYTb7f+qqM+p1PHrti1bw+WP/c0Jl1zY7to+3lElRYXo3b1Gnzv3nn4l7unZ2z7n1r0hLpp6i0Y0LcPDh/eh8YkfTPDe1rT1fhxY1C7Zh2qq8pQLg4AQRAEQRAyFLoFYNbc+/Ch0kl4uWa53AIgCO2NzkUdVd2pUxjYvy+27t5Db7Uqu3/z8U+qP/3pjxh5yTCsf2MLyqdPw+z57ykq+r7x8dumqj/9dREuH3oJNm7dDPryt/TPj+/f17lz7z7Hb71pinr8qcUozM/D6UQjwuRbz9MnH39U3Xzrx3DZyEuwZdMW9OvfD9t27moX7T7PqJKx41C7dg3uXzgPd06bkdF9cO3ECerZlSsxctBwvLZ9Mx76yQ/xtW9++1212fM8NX7MKKxcux5zq6ows6oqo/tOEARBEITsZfq0O9X8hffjwxPG4/lVq+g7mrNG78mahgoXNzE/UH169cL+fXuRk5eP+sbTrcpuXn5c5cdyEI/n4vCxY21G2S8En/joLeqPf34Co0cOx/rXtup3Wn8GwNQbr1eLnn4GnQoLUN90mr5f/i3bMGRwf7V9+24MGjgQ23fuwoH9u7v06t3v+PveiPaPKhk7BrVr1+E++y0AF7pCHyTLn39WXfXha9G/d08cOH4EPbv3ws7de99dmz16fsI4rFq9BrOqK1Be2frXawqCIAiCIFzszLhnmpq3YCE+NL4Uy2tr3tFDty92sqahwsXLt//pH9W//duPMXLEMGx8Ywv++79+iS/c8b/eJLu/eeS/1Wfv+AJGX34Z1m98FVd9aDxeeGlVu5HxT33sI+r3j/4Flw0bhle3kAOgdefEzddepxY/uwwFHQpwOtGAZOKtnRi5eTmqa6fOqDtxDM2hQlMi2W7afZ5R4+lbANaszQoHADGoX391/NQJ5AY+Dh47gVXLX8L4SR96N+1WV5YUY0XtalTL1wAKgiAIgpDBTL/7u2r+vd/DpPElWLGqVm4BEIT2RO9uXdWJEye1kZuLxtONaAzDVuV25NBBasuO3Rg6aCBe37oNa1a9jHHjr2w3Mv7pT35E/e4Pf8HlQ4fj1a2b21xobr3pRrXoqadR2CEfDc2NSCbf2gFA3+F+xaWX4JXX38A/fP0r+PGD/9lu2n2eUaVjx6CGMgDunYO77s58B8BVk8arl5avwrjRo7Bm/Su45547MX/Bwnfcbo8dACV4uXY1ZleWoaxavgZQEARBEITMZMa0O9W8hffjytJirKhZg6iNwFwmkjUNFS5ONtSsVKNKJ2D08BF4ZdsmfPf//B8sfOBf25Jb1b1LJ5w8dQrJEIjUW6fOn08+9dHb1R/+/BhGDBmK17dvbfNeo6k3TlaLnl4CeqBfQ2Ojbsu5F6Rf/fIR9bkv3sFfL/ja1i2YM6sCZRVZm76d5gCYjbvuLs/4fnj91Q3q0stGYdSIkdiw6TX8zac+hd/+/vfvKgNgUnEJlq+uxezKCpRXZ60MCYIgCIKQ4cy467tq3n3fw6TiUtZ92srMzUSypqHCxUnxqEvVug2vY8TQwXh1+0688spaXHHZ6DfJ7Wc++Wn1mz/8DpNKRmH5mlcwp6paG8EV7Uq+P/GxW9Sjjz6Bwf0HYOvu3Whroblp8mT11JIlKOxQgIbm04iS53Zk3HLDDeqJpUsxfFB/7N23T5/TeoZElqBKRo9G7fr1uH/BbNx5T+Y7ABgPamT//ti8Zy+6dO2CQ4ePvDsHQEkpVtTWYHZluWQACIIgCIKQsUy/+y41/977MHH8eKyqqW13gcMPkqxpqHDxsXf3zi/17T/wF5cNH4ade3Yi1O81nm79K/Fi2gCKx31069wDuw8daJdP8vzE7bepPz32VwwbNBibd2ynt1p/BsDk69VTS8zXADY0nkYUnrstXbt3VkcPH0ffnt1w6OgxJN7CYZDhqJIxY1G7LnueAUDQLSB5uXE0JhIYOlDL1/bt7+4ZAKXjsbymBtUV01Exa15W9J0gCIIgCNmHewjgJHoI4Koaeitr9J6saahw8fH73/1KferTf4sRQ4dgy9YtePDB/8BXvv4Pb5LZmhUvqtKJV+HyS4bi1Te2YuwVl2PNKxvbnWx//PZb1aOPPYEhA/ph6669aOtbAG6dcoN6fPFSFOTnoznRrA36c0f0+/XprA4fqkfvnj2wd99eJNqh8+M8osZdcYUe/1eyygEQC3wVxHwkmpLo37cPdu7d966eATCppBjL+RkAM1EmDwEUBEEQBCFDmWkdABOKS7BqdS2iLLKLs6ahwsXHR2+5WS1e+hT69e6PzTt20VutyuuHJl2pVq54GSOGDMbGrdvx0EM/xde+9o12J9sfu+0W9ehfn8Cg3v2w6+CeNr9uZOr116tFzzyDLh074kR9HaLw3BH9rl06qca6egSeB8qPaGxqPUsiS1BjR43B2g3rcN+8WbhrRvu6DeSDIjcnR8WgUN+cwJCBA7Bt5653lQEwcdxYrFyzFnNnV2FGeVVW9J0gCIIgCNnHzBl3qnnz7kfpuGKsWrOa3soavSdrGipcXGx5dYMaecU49OjVBXv3HULp+DGoWbWuzYf/9dTGcn1zPZoaQyTbqVx/7PZb1J8fewKDBw3E9h27tbnWumF/0w3XqaeWLkOnokLUna5H+BbfAtC5cyfVUFcPP4qg4jE0NTW3y/afJ1TxmFFYvW4D5s+Zhell2eEAyMvLU77+TQ+NHD5kMDZve3e3AEwaOw7/j737gGvzuvoH/pNADE3wHuzhCYgN3ivOdpzR8bbpbjrSvG3StGlss4dHmjZNk6Yz6U7TDMfOHt7bgASI4cXGGG+zJITQOP/nUZy+/fzNSMiydc/XHzf2g8Dc2/vYzz0695wySzU2FhdgbX6REHPHGGOMMfHkrn2ISjc+isyUNJRXm6/K48OfFGEGyq4tX/7SF+iF51/EzPi5OHqiDqfa2745NTzyr///6375i030k5+uQVpaCsyVVVhfVIycq6z43/tuu/kGev3NdxAVPh3tnZ3DVve/ftlienfXXoTodbDZ7XA6XSOOZ+L48XSpqwt+RPALVME+IHYAID05GabqamzaUIQ16wqEmAs5A0ClBKwDg94uEydamseWAZCSjIqqapQW50n3ERcBZIwxxphvyl3zMG145BGkG1NRXi13ARBnXyzMQNk1RulHk0M16Om1wgUlXMNsgkMNIdTd24f4uEg0NDSDruI1vfrWG+m1199GxNQpOHn2DNzDHAGQMwC279oDvVYD++AgBgdHTumfNH4iXeq6CD8/f2n0HjgGRw4Y+DhKTUlCZVUNNq4vwtocMQIAQcEBJAeAbANOxMZEoal5jBkAySnSP4LVKCnMQW5hqRBzxxhjjDHx5Kz9GW3Y+HOkJSejqqZGei4Xp4i2MANl147nnvkjfeme7yIhLg71jY1Y89MHsfHRx65Yq6fbmwuj42YWhIbocP58F/wClHA4rt4WeKsvZwBETJ+GtjOdw1b3v27pItq+ex9CNFpYB+1wOUceU4ghhPr7eqFQynETFewOx1U7B58Cyrj8LvbGDUVYK0gGQEBQICnJjQGHC3GxUWhsGlsAIMMozZ2lGhuK87Euv1iIuWOMMcaYeHIefpg2/PznSDOmoNJSBQ+NfOTWlwgzUHbtCJ86lU6fPY0ZUdE4frIVbufQN+QXv/wlev5fzyEpfgZqGk5g19vvYNmNN1y1a3r1LTfTq2+8iejp4Wg9dXLYaqPXLV9K23fuhkGrhm1gEC7XyO/oh+gMZLdbITeDU/or+AhAchJM1TXYUFqIdbliFLILCgwghYe8bQCjY6LR3NwytiMA0j+C5dI/ghuK8rCugI8AMMYYY8w35a19iNZvehRpqekwVVaCiDMAGPsMKSkufDLazpzD+FADzpy7NOQ6Vfj7kV7aJHs3Pv12DIzSLu+zJtcAeE2uARAZgZa2dvnS0AGAy0cA5BoAVnv/qBkA40NCqa+3W5o2Bfz9VegfEDsDIM2YCLOlFhuKC7BOkEJ2QUEBBJcHDpcLcTFRaBjjEYDslDSUVZm5BgBjjDHGfFreup9RyYafIyMtHeZKM2cAMPZZWXX9Cnrt3R1InBGD2uZmPPvHv+Lub33jinW6a9sbtGzlLUhNnIXK2mO48brleHv7zqt6Pd9x6820xZsBMBUtHaflS8PUAFhM23bthUarhd1mG/UvJLkOgq2vG/Dzh8pfCZtd7AyAtKREmGtqsbG0EGsFyQAIUKm8bQD7nS5ER0Sgpb19zG0Ay6stKCnIRV4R1wBgjDHGmG/KW/cwlW54BFmpGSirqgBxFwDGPhvawEAyGHSwOQZg77fDMcy73/FRYdTWehZh0yaiubNTvnTVr+XbbrqeXn3rXel7noYLF85jYJjifrdIr3tTep1aF4xBuwNO18gpSaF6HVlt/d4CgEGBQeiz2a/6ufgEUfLcRFTX12LT+iKsEaQIoErlTwp4MOj0ID4yEg1tbWOrAZCUBHNNDQoK86WfXAOAMcYYY76pIG8NFZVsQmZqOsorTfIlYZ57hBkou/r9+ek/0bfu+Q5S5sxG9ZGjyEiXbkiTaZg1qqTwyZNw5tw5+PkRBlxXf9qO3AXgldffRuT0MFy4dB42+9Cp+nIA4I233oVGG4QBuxNu92hHAPTUZ/VmCsip4LDaBq76ufgEUZrRCLPFgg0l+ViXJ8YmVuXvT0qlAo5B50dqA5ghzZ1JmruigjzkF/ERAMYYY4z5psLcNVRUugkZqWmoqDJzBgBjn4V5mWlkMlVjgsGA012X5EtDrs977/sO/f6pPyFs6mScPH0Wf3n6D/jmPd+76tfyrTdcT6+/8y4iwqbj0qWLsPYPvVG/6YYV9PY7O6DRvpcBMOgeOQNgnEFP1veOCkAdHIheq9gZAOnJyTBVVwt1BCAwQEXS0DE46EJsVBQaW8fYBeDy3BUU5qKQ2wAyxhhjzEfl5TxEpesfRWZ6KspNlVd1K/GPmzADZdcEio4Iw8XzF+AYdMPhHjpFXuHvT1MmGdB3yQaH0wWn+9roe3/rzdfT62++i+lTJnk366fPnh82APDWOzsgFzjsdwzC5Rx5fKEhBrJard5fBwcGoFfwIwBpl9PYN5YWYW2uGEcAAlUqUkhrylsEMCoGDa1jywDITE2CqbJG2vznIb+QMwAYY4wx5psKctZS8fqNyErLwGFzhXxJmOceYQbKrm6FhWupsHAjkubMQc2RI9i4oRhr1+VfsT7feGUr3bL6DiTOmoPaY/VYsmgh9uzbf02s41W33kivv/42xo8LQXBQAE52nhv6CMANN9Ib77wNnUYN+0A/XO6R79NQvd5bA4Ag1wAIhLVf7ABAZnKyt5Dd+tIC5AiSAaAKCCCF2yWtFQ+ioyPR1DK2GgBpxgRUWupQkL8OhcUbhJg7xhhjjIknP3cNlZQ+gqy0NBw2m6UrV/9x4o+LMANlVzeNOoCUTsK0iDC0dbZhwD502nvElKl07sJZRERFoqWpFTXVFZhtTL8m1vHtt95MW19/E1pNECZNHI/m1lNDft83X38dvfXudui0weh3OOByjlIEMMRA/X02eBRuBAcFCX8EIDUxEZW1tVgvUCu7oMAA8rhc8nERzIiOxomWljEfAaiorkZRQQ4KitYLMXeMMcYYE09+zloqWb8RmWlpqDBXwYORn7d9iTADZVevw/v30bxFixAbEYGmtpNYkpWK3WXm4dYmzQyfhpZTpxGsDkSP9dopePeVL32e/vnci9BJ3/dEOQDQ1jnk937r9TfQ6+++A11wEGwDjlHbAI4LMZCtzwpSeKBWq9Hda7tm5uQT8J8jABtKCrEuT4wMgMBAFZHLDafbg7joKDS0jK0GQGZyEsqra1CUn4OCYg4AMMYYY8w3FeeuoYLSTUjPTEdFOXcBYOxTtWzJQtq9Zz8SZsxE7YnjqKmuRlJy8hVrs3DdT6lkwy8wKz4W9Q1N+OEP78OTTz51zazhb3/9bnrmb89CHaxCdFQk6o82Dn0EYOVyenPbTmg0QbDaBwDPKEcAQg1k7e0DlEBQgNwGsP+amZNPAKUmJaKyphYbSwuwNrdIiLkICPQncnm8AYD46Gg0jDEDIDUpAVU19SguzEEeFwFkjDHGmI/KffhnVPrIz5GVnoYyk3wEQJx9sTADZVev4OAgCgoKhNPmQHjkdBxtaBpyXaoDVaQNCkZf/wDsbpe0Mb62UnXu+8F36Knf/gmqQCWiw6NwonHoQm03rFxB23bsgEYaq8PpxOAoRQDHh4ZQd083lEppLoPU6LWKHQBISzbCXG3BhtIirBOpCCDIWxQzJjoCTS3tYwwAvBc8KS0pRK4g2ROMMcYYE09h3hoqLN2ErNR0lFWZRn3DzZcIM1B2dfrH3/5MX/36tzA/OQkHq2vw/D//gS9+5atXrMsTDcdoRvwszMtOh8lswV133I5/v/DiNbV+v/GVL9Ff//kc/P2UiIuJwbGGoTMAVi5bRjt274ZOo0GvzQYa5QhASIierH02KBQeBKulz+m1XlPz8jGj1GQjKqst2Li+GGtzriwk6YsC/FVESsA56ERsdDSaxloDwGhEhcWC9cX5yMkvFmLuGGOMMSae4ry13iMAGWlpKDeb5G7Kwjz3CDNQdnUKVgVQoCoA8PPAZuuHc5jo28SJE+nS+QsImxyGM+fPoKm16ZthERF//ZS/3Y/kV4+spwcfzoHKzx+zZsejpu7o0AGApUtox+490Gq1sNn74XaPUgRQr6c+q9XbWlCtDoJV8DaA77+LvWl9EdbkiJEBEBAQSAqFCw6HGzOionGidWwBgKyUVJRXV2F9SQHWCdJBgTHGGGPiKc5fRwUlG5CZlooyU6V8SZjnHmEGyq5OSigoafYsWI4exa03rsRrb28btvjfjIhpOH2mCw4aPS3+ajQvO4MqzZXekwtzZ8Whuv7YkGNYvnQx7dq9F3qtxnvcweNxj5wBoNeTzWaDm9xQB6thFbwGQJoxCWZLDdavL0KOIAEAuQsAud1wuNyIiYpEc+vY2gBmpCSjoqoa64sLkZPPAQDGGGOM+aaivHVU6A0ApKHMzDUAGPtUrFy+lLbv3I3IqVPQevosKssPITUz+4o1+dim9fSTNTlImDsLtfXH8NtfP44f3P/Atbh2aXJoCC719CFhVhyqjhwfcgzLliyi3Xv2QRccjH6nAy7XKBkABjkDwAYP3NJGMAj9/ddOZ4RPwP9lAGwowpp1YgQAAgMDCR63HBhDdFQUmlvH1gUg3WiEyWJBaXE+cvkIAGOMMcZ8VFHeWios2YistAwcNlfIl4R57hFmoOzqo/RXkiFQC4djAOTnht0x9DvdAQF+FOgfAINBjdNnu+C+xor/vU/6pili2lScOnsOCbNmoLp+6CMAK5Ysph175AwANWwDA3CPEgAYFxJCVptV+uokF1RET5/YbQBTEhJRVScfASjGGkFqAAQFqsjtIbidLkTFRKO5eWxHADJTk1FeWY2S4nzkcQCAMcYYYz6qOD+HCorXIzM9U3r2qQB5Rq655UuEGSi7ushRt4KSjdJNl4JyUxX+/Men8K3v3nfFeqwoO0wZWdmIjQhHU+dJfPOLX8Jfnn3uWl23FDZpMs5eOI+5c2agum7oIwArliyhHXv2QKdWo3/QAbdr5CMA4w16svZ7iwUiODhY+ABAujEJJkuNUF0AAgKU5AclnE4XwiPD0dJ6cowZAO8dnygpyEVuEbcBZIwxxphvKi3MpbzCUmSmpqKskmsAMPaJG2fQkbN/EMEaacNqt8PhcAy5FsOmTqGzp88gJj4Kxxta5UvX8pqlyGmTcfrsecycPQO1wwQArl+yjLbt2QW1tJmXsyNco0QkQ0MM1NfXJ311D7RaHbp7+67lOfqoKDUhAZV1dVhfUoScPDECACq5DaCCMDgotwEMR3PL2AIAmcnJqKi2oKQwF7mFJULMHWOMMcbEU5y7jgpK5RoA6SiTuwBc23uMD0WYgbKrx6n2xsenR8TdHzZ1Ek6fPo/ouCg0Ng6dsqz096O4iHC0tnVArdWgu6fnWl6zFD5tOk51nkJ8fAyONzQPXQNg0ULavW8/NNJ4B+QaAI6RCx7KbQD7enqhUCqgVQeju0/sIoDGuXNhqa/HxtJCrBWkkn2ASkUEN9xOD6KjotE0xi4A6YkJMNXWoSgvBwUl64WYO8YYY4yJZ92an9KGTb9AdkYqDpurAD4CwNgnJzszi8wV5YiNCsex9nYc2LMHCxYuuWIt/uaxR+l/H3wIC9LSccBsQmlxAXLzi67lNUvTpkzFuXNnMGPGDBw5NnQRwBWLF9Kuvfuh1qjR7xiAZ5QaAOPHhVJvdw88CvIGAHoEDwAkJcxFTV09NpUWYY0oRwD8/cmjJLgG3YiMCENbe8eYAgBpSQkw19ShuCAH+UUcAGCMMcaYb8p5+EFa/8ivkJ6ShMqaGnjcHABg7BMjt/6Li5yCEydPI1AZAIdrcMh1qFIpKVgViMDAAFzq6oH72l+vFBMubc46OhEfF4NjDY1DjmfJ4oW0f+9+6HRaWAcG4Bql5eG4UAP19fZK80MwqNXoEjwAYExMgKW2DptKi7EmV4wigCp/P5L+74fT7UZ0RCRa2sfWBjA9KQGmmjqUFuQht4iPADDGGGPMN6396Y9p4y9+jay0ZJSbK+XHKGGee4QZKLs6bP73s/T5/7kbqYlzYaqtR3FeLvJLriw21lBfT7MS5iIuIhrH21qwYNF8HNh38FpfryT3aG9vbUd8XCyONg4dAFh6uQ1giFYHq6MfLufIRQDHhYZQX28fPNIPvVaDrh7rtT5PHwUZpbVlkdbWI+uL8bAgXQACVP7kIY/cMQLR4dFoPjnGIwCXCyiWFOQgjzMAGGOMMeaj1v70Qdr4i8eQnpwIU3WtfEmY5x5hBsquDtOmTKBzZ7swddIUnDx7Sr405BrMfWgNlT66CcYZs2E5cQz79+zEwiXLrun1KrcBDA8PR+fJU4iLj8axhqZhagAsol379sGg0cHm7JfTukcuAmgIpb6+HulXBK1WK3QRQKV8BCAxAdVyBsD6IqzJEeMIgMpPSX5+gHPQg/DwSLSeHGMGgFH6R9BSi+L8POQXcwYAY4wxxnzTmp88SJt++Rgyk5Ngrq7xhUzjD0yYgbKrBoWHReBURztmz4hF/YmhN8H+KgWFBOsxYLfB5afEwMDQxwSuMRQpbc46TnUgLjZy+CKAixfR7r37oA1Ww+FxYdAx8thD5TaANhvkd4ANGg0u9YqdATB39gzUHz0hVAAgQKUk7xkAN2HaNPmYydhqAKQmzEVlXT2K8tahoGSDEHPHGGOMMfHkPPxT2vDzXyLFmAiLpU56hBq55pYvEWag7LOXlZpMZZXVSJ41G5ZjR3Fwzw7MW7LiijW4+d/P0V3/czdWLpqPbfv34/vfuwe///3T1/xalTMAoiPD0d5+CtFR4WhoGfpd2qULFtHuA3IAIBgOtwvOQecoRwBCqaen23sze7sAWMWtAaBUgObOmYPa+iN4pLQQDwvTBUBJHo8Hbg8QGRGJ1rax1gBIhKmmFoX5a1FYvFGIuWOMMcaYeB68/4f02K+fRJoxGeaaajmRVpjnHmEGyj57KiVo3Ljx6O26CL+AIFjtA0Ouv/Bp0+nM2bOIiZuBpvZGuOw+8e6/jOIiw9HcfhIx0TFobB46A2D5okW0c997AQCX9LfRwDDz9L5QuQhgd490NyuhUQehR+AAgIQS5sxB3ZEjeGRDER5eJ0YGgMrfnxTS5t/lcSEyLBwtHSfHFABISUpEVU0tivNykM9tABljjDHmo/71t7/Ql7/+TcyKj0ZDcwvcbnH2xcIMlH223nplK920+nYkSpv62sYTKMzPRWHxlcX/ZAr40cyIKWjsPIvggED09dt8Yp0qoKCY8Ok42dGBqJhYnGga+vjDdYsW0fZ9+xCqN8BqtcLpGa0IoJ76eq3S9o2g1mrRI3ANAAllpCajorIaxYXSJrZQjE2sSqUihcKDQbkN4LSpaOs8PbYjAEmJqPRmAKyT7k8+AsAYY4wx33SmsyN5yrSwqqjwyWjvOAcPcRtAxj5WIWoNDZIb+mANznddlI8qD7n2Pn/7anpx6ytImBmPuhPNeOZ3v8G3v3+vr6xTmhEdg+a2FkRHR6OhaegMgPcDACF6HfqsVrg9I/+FNC5ET319Vsgp4BqtDr19YgcA5HYuZWY5AJCL/MKhg0y+JsBfRQo/BRyOQUSHh6Pl5BgyABSg5NkJqD5Sh+KCdcgv4gAAY4wxxnzT6fa2b0yNiPzL7PgYHG1oli8J89wjzEDZZ+fE8TqaMTMBM2Ii0dDchrCwaTjZ0Tnk2lOrAylQoYRWp8G5c11wjPLu97VErlA/e8ZMNDWdQHiENBctrUMfAVi8iHbu3QeDToc+ubifZ+SiJHINgL6eHshF4AKDgmHrF/sIQHpyEkzVNSgqzEWBIAEAOQNAKY3UMehEZHg42sYSAJCzJ5ISUFFTh6KCHBRwG0DGGGOM+ajzpzqSJ04Pq5obH4/6hgb5kjDPPcIMlH12vvblL9Lf//U8EmfFoO5YK156/t+464tfuGLt7d32Di1ZeSOSpBvR0nACSYlzUVNb70trlGbFx6G1pRlR4RE4NkwAYNnSxbRr914YdHp439nHKAGAceOor6cbRB4Eq+WsAbEzANJTjDBXWVAgbWILBdnEBqhU5CeN1D7oRGx0BJpa2scUAMg0JqHcUoOSwlzkCRI8YYwxxph4OtraHgiLjPzV7LhYHG1ski8J89wjzEDZZ4rGh+rhGHCg3+Ec9h3tyMnjqfNCDyaHjsOpi+fkI+2+tj5p7oxZaGg8jojICDQO0wVg2bIltGvXHui0Wlj7baBRjgBMGj+RLnVfgsft9mZO9Pb5Rs2EsVFQWlICzHIhO4FqAPirAsgfbjicHkRFhaOldWwBgIzEJFTUygGAHOQJMneMMcYYE09784mtETEzVs+Nm4H6xhNoajzaExs3O+Sz/r4+DfyAxz5Rr295iVbd8TkkzpyBmuMn8OCP7sNjTzw13LqjuLDp6DhzBoGqQPTYfS6VnRLi43G0sQHh0yPQ2jH0Jm35sqW0c9duGLRa9Fqtcnf3Eedhwrhx1N0tHwHwIDg4GFabz83bh0FpSYnCBQBUKj9SKfwwMDiIiPAwtJ7s+EgBAK4BwBhjjDFf1tp0fHdU7Mwl6alpqKyswuuvv4ybb71diGcfIQbJPjtxkeF08swpTJ8chub2dhypr8KcuSlXrLsv3nUHPb95C6KipqK19TSe/PVj+OH9D/ra+iTj7NmoP3oc0dHhaBgmA2D5kkW0c88+6LV69Fp75UsjzsPEkFDq6umWv7y3CGCPwEUAFd4aAMmoqK5GYX4OCovFCAAE+PuRn0KBAacLkRFhaG0fWwAgMykJ5TU1KCpah4ICDgAwxhhjzDc1Hj/aHTdztiE5cS5q647iwP5dyF6wRIhnHyEGyT5TNM6gh83eByI/DDpdw777H6INgVoTiM6zZ+Xf++LapJlxsWhqbsGkiROkcZ4bugvA8sW0fede6HXeiv7ypVG6AIRQT0+P/OWhVmvRZ7P64tx9IApvK7skmOVNbP5aFBRvFGIu5AwAbwBg0IXo6DC0tIwtAJA2V5q7+hqUFK1DHgcAGGOMMeaj6uqqKCEhBcmJs70BgB073sHS5TcI8ewjxCDZZ2NjQT6tKylGVlYmDh8qx++eegr33nffFWuu0mym1LQ0JM2MR+3xBqQaE2G21PrU2uzsaFs6LSxyV9LcBBypP4rIiHA0tQ9dBPCGpUvpnd27odXo0T9ghcc9chHACaGh1N0rFwGEt3Xgxe5en5q7D4nSjMnS+qnG+uJ85OQXCzEXchFAuQik0+UeextAOXgydy4q6+tRkLMORes5AMAYY4wx31RlOkQp6fMwLz0Nh0xmvP3GK7jxltVCPPsIMUj22Qg16MhhsyMgOBAD/TYMuIdeb3fefgu9vPUNzJ0Vh/pjjThypBZz5iT61Npsa218PDIq7n5jYgLqauuw6rZV2Prqa0MfAVi4kHYd2A+tWoN+ez/coxQBHBeipd6+fm8bQINBh0uXxA4ApCcbYaq2oLQ4D7n5JULMhb+/H/n7+WPA4UBURDha28cWAMg0GlFhsaAgdw0KSzcJMXeMMcYYE4+57CClZc1HdkYqyioq8e47r2HlDauEePYRYpDs07dv/w5atHAF5s6eiWNHj2P5dUuxbfvuIdebv0JBE8aNg03a7CqUCvRafa+I3cn2lgfCI6J/lZaSDHNVNf71z7/jy1/52tBHABYupJ0H90MTrEH/QD/c7pEDAKGGEOqz9UnbNze0Wi26e8Q9AiCh5KREVNfUYkNJPtbliZEBIG3+yV+lxMDAIKLCw9E6xgyAjBQjKqosKMpbh4ISzgBgjDHGmG8yHz5IadkLMC8jDYcqTHjrjVdwE2cAMDZ2kRFTqKP9LGZGz8DRluM4UmfB7ATjFevtiUd/QQ889BBSko0wV1fj0UfX46GHcnxuXbY2n/hrVMyMr2dKf8mUV5jx2yd+hR/86MfDFAFcTLv37oVBo0Wv3TZqAGBciIF6envhBiFEr0V3t+ABgMREVNfWYn1RHnIKBMkA8PMjpVKJQacT0RERaGkfWxvAdGMSTBa5fsIaFBRzBgBjjDHGfFNl2SFKzZr3nwyAN97agptvukOIZx8hBsk+fQooaNrUyXAM9KHL5oB7cOjifzMio+nkqdMInz4VJ9rbcPp0R8rUKdOqP+3v95PW3HikNSZuTmR2ehoOm8x44te/wo/uHzoAcN3ixbRj315o1cGwOezwuEa+T8cbDNRr7YPTQwgJ0aG7S+wjACmJiaiqrRXqCECAv4pIQXA6XR+pBkBGkhGmGgvyc9eiqFSMAoqMMcYYE0/ZoQOUNW8BFmRk4kBFOV5/bQtuXcUBAMbG5O9/fZq+9o17MDcuDvWNjfj6/9yFv/178xVrbeeOt2n5ihuRlSRv2I7BEKrG+Us9PrkmmxuOVsfEzzZmpqagvLIKj/18Ex782Zohx3r9koW0bc9+6IKDYZUDAJ5R2gCGhtClHrldIMGg1+JSt7htACEXsktIQGVdHdYX5yInv1SIuQjw95drQHqLAEZ52wCOsQhgUhIqa2qEaqHIGGOMMfGYyg5ShrcGQAYOV1R4AwC3cACAsbGZPnkidfd0Q6UKQE+fTdqWDr3OFmVn0r7DJsSFRaCxoxW7d2zD0hUrfXJNNh6ro/hZCZADAGXeAMAjePBnDw851pVLFtH2Pfug1QTDOjAAGuUIwITQELrY3Q2F9KpQvQEXu30ziPIBUVpSIszeGgAFWJdXJMRcyAEAKDxwuQjhYdPQdvLUmIsAlstFAPPWoYhrADDGGGPMR5kOH6T0bDkAkIbDFWa88erLuOW2O4V49hFikOzT09HWVBgWGVcQGzYZnecvIDstDbsOlg25zpQqkEGlhtPjBvn5w2az+ex6PFpfRbPnpiAtOQnm6hps3FCEtesKhs4AWLaYtu3aC3VwMOwDA/DQyAGA8SF66u7phfwyQ6geXV1iBwBSkxJRWVOL9SV5yMkT5wiAHABwOt2IDJ+O1jEGADKMiTBZalGYl4OCEs4AYIwxxphvMpUdoPSsBchKT0OZyYzXXt2MVbfdJcSzjxCDZJ+e73z1a/Snf/wdc2KjcaSpBU//8fe457vfv2Kd/ePPf6avfutbSEmci7r6Y/jq3V/Bn//xN59djyeOWGjGHCPSk5JgrqnBmod+go2P/nLI8d604jp6a8d2hOj16Ou3wu3yjFIEMIT6ensgnwHXS59zSfQaAAlJqK6rQWlxPnLyxegCEKBSeaNEDrkIYFgYWjo6PvS4lXIBxYQ5qKw7iuKiPOQXiDF3jDHGGBOPpbKCjKkZyL4cAHjrrddx4023CvHsI8Qg2acnOCCIxoWoYRtwwWrrg2uY9PVgPxV5/ICosOk43tyK1paWv0VFR3/jU/52PzUtDUero+NnG1OTjaj09qgvQm7+0BkAK5evoB27dkAbrEXfoA3kGjkDIMRgoH6rNNceDww6Hbp6Ra4BoKSUpLmoqqlFSXE+8gQJAPir/EihUMA56JLuqTC0jiEAgP9qA1hamI/cQjHmjjHGGGPisZhMZExPR5b0s9xkwltvvYYbb1olxLOPEINkn45//+sf9KUvfxWRYdPQeqoT3777S3jmn89dscbOdLR+Y3pE1F8mTJiIs+fOIz4+Bg0NzT69Flsaj+2Ojpu1JCUxCVW1Nfjhfffiyad+N3QXgGWLafuuvdBrtei398PlHjkDIESvp/5+G5xuN3RaDXr7fPcoxWgUcgaAMRFVllqUFOUhV5A2gAEBKlIQYdDlQkx4BJrG2AYwMyUFFVVVKC7KRx5nADDGGGPMR1WWV1BaVgYy01JRZqrE22++ihtvvk2IZx8hBsk+HQaDjmzWfkwO0eP0pW40HzuOqJkzrlhjX/z8XbTlxVeQkpKEsqpKHNj+DhZcd4NPr8WmxuPVsXEzjfIGq1zaYL356su4eZhCIytXLKNtO3ZBr1aj32mHyzlKBoBOmvd+G9weD/Q6Pbp7BT8CYExClaUGpUW5yC0QowtAYKCKFO73AgBRkRFobhtbACArxSjdkxaUcACAMcYYYz6sxmSipPR0ZKdJz+bmKrz19mu44UbOAGDsw6I58XE40tCI6LBJaOk4N+T6UsGf1KEaaAJV6DxzQb7k8+uwqeFodWz8bOOs+Jk41nBcvjTsmFcsW0w7du+FQaOB1buxH3l+QvUGulwrADqdnAFg9fn5HAGlGhNRaalFqUAZAIEBgURuF1xuN6Ijw9HUNrY2gJnJySivrkZxYQHyC8XooMAYY4wx8VRXlFNyRiay0lNRbqrEW2++hhtv5gAAYx/Y2ocepI2PPobYCGnz0X4Kf/jdr/G9e394xfp649UtdMttd0iblAi0tLVj6cJM7N5f7vPrsL214fGIqPj7Z8XG4lhTs3Rl+Hf1Vy5bQtt27YFBq0Wfww6P0z1qAMDW3wc3AdrgIPRY+31+PkdAaUYjzBaLUAGAoCAVeZyEQbcLMR8hAyAj2QhTtQXFhXnIKxRj7hhjjDEmHoupgpLTM5CZkY7yChPefGMrbrrldiGefYQYJPvk+fspKSggEME6DS6cuwTC0OfWp02dRBfPnce0yZPR2nlGep0Ya7C54Wh1TPxs4+y4eBxrbBp2fmTLliykXXv2Q6dWwzrQDxolA0CuAWDtt0qv80Cn1aK7V9wMAIU3AyAJZkuNUGnsQYH+5HF6MCitgejISLS0tY3xCEAyyquqUcQZAIwxxhjzYdWmMkpOz0J2egbKTRV4841XceMtXAOAsQ+kynyYUtKyET5tCs6cu4CpU8ahfZj0f7nVmFYTAJvNBY0uCL19YrxbfbyummYmJGNO/AwcaTghXxp23MsXzadd+w5CowmGzT4gbexHrgEw3mCgvt5euKXJDQ5Sw2oTtwggvAEAIyotFhQVrEVB0UYh5kKuAUBuj/cIQER4OFrbx3gE4HIAoLQgD7lFnAHAGGOMMd9UWVFGqRlZyM7MQFl5Bd58/VXcdCsHABj7QIwJM6nuSANiw8Lk6uPYvXsvFi1dfMXaKi0ooPyiIsyKj5c2wQ34w+9/g+99/3+FWIO1lRWUmJoBuc96dd0R+dLwGQCLl9CuvXug1QTB7nDC7Rr5CIBBryWbzQ6lwoNgjRY9PeK2AVRAQRmpKSivrLp8BECMDIBAf7kLgBsDbg9iIiLR3D62DIC05ASYq+tQkJuLolIxCigyxhhjTDwVZQcpM2s+sjMycchcjtdefgmrbv+cEM8+QgySfbLktOuwCaHotfajb3AQnmHesQ7R6MnptkkbWx3Od/VKrxu5vZ0v2fXOG7TshluQkpTo7VGPEe69JQsW0L4DB6BWywGAQbhHbQOoI5vNCpJ+aDQa9PSKnQEgt3MpN1difVEucgTpAiC3AVRKIx1wODEjOgInWsZWAyDdmAiTpRaF+TkoLF4vxNwxxhhjTDymw4coa958ZGal4XCZCVs3v4DVd35BiGcfIQbJPjm/2FhKP12bi8Q5c1B75AjuvPUWvPz6G1esqyOVJpqTmo6YiDC0t3cgOysT+8t8v/jf+yoO76WM7MVITTaistoiXxp27IsXzqN9+w9BE6yWNnQOuDyjZABodWSz2yAXC9BqNOjuEzcAoFQoKCs1FYfMZpQW5yE3X4w09gCViuBxY9DtQXxMLBqam8ZYBDAJpuoaFBXkIr9IjOAJY4wxxsRTcfggZWXPR9blIwBb5ADAXRwAYGxUOk0QKd0qhE4cj9aOdnkTOuSa+u4936Y/Pv0MEmbGoe54I9pbGn4dER3/wKf9/X5W3nn7NbrhxlWYFReNY40t8qVh772lixbS7n37odMGYWDABafLNcoRAB3122zSrzxQy0cABC4CKE0rZWek4nBFJUqLc5CbL8YmNjDAnxTSkhoYdCIuKhqNrS1jrAGQgoqqKhTm56KgWIy5Y4wxxph4TOWHKSNTPgKQJj03mvDK1pdw2+13CfHsI8Qg2SfDUlNHKUkJmBknv+PYgqiIcGnjMfTZY5XKj/wVflAqgaBgDS52dQm19tTBwdRvtyMuOhKNLe0YqQ3gssWLaM/efVCr1bA7BkY9AqDXyUcAbFBIc6tVy10AeoWa2/8mH0dZkJmB/eUmwQIAKiICBl1OxEVGSfdh60cqAliUtw4FJRuEmDvGGGOMiafi0EHKWrAA2alpOFxpwtaX5QAA1wBgbESrb1xOr7yzE6mzZqHy6DFsKlqPNQU5V6ypzc/+k+66+6vINhpRZqnB+vUlWJdz5et82fhxBurt7UNkZDiaWtpHrOz/fgaAVhuMQbtT7u0+cgaAHACwWuFRkHwcAF294hYBhBwASE/DAZMZJYW5yCsUIwAQHKCSlpQHDpcbsZHRaBpjBkDG+xkAuWtQWLpJiLljjDHGmHhMhw5S5rwFmJedgYPlFXh18/NYdQcfAWBsNDROr4dcfayru0f+/ZDrKSVxFllqj2HatMk43XkRboy8ofVFUZFh1HmyAxOnTMApaQ5GzABYtIh27dsHjToYjsFBuEbpAqDXashmt0MJgl5nwMXubuHm979QVkY6yirMKCnIRZ4grewCVUqSU0CcLjeiwiPR3DbGDIDLHRTyc9ageD0HABhjjDHmmyrKDlFG1jwszM7C/rIyvLrlRdx2++eFePYRYpDs4/fULx+nHz/0AMIjItHU2obrr1uBd7fvGHo9KRQUFx6G02fPYdL4ELR0nhVu3UWGh1NnRwcmTJ2I053n5EvDzsHyJUto55498rEBDDqdcI1aA0BL1j6bN6QQojfgkuABgMxkI8qrLSguzEF+oRiV7IMC/MlFgMvpQkx0JJpbxtYGMN1ohMliQX7uGhRzBgBjjDHGfNT7bQDnZabjkMmEV19+Eas4AMDY8KZMnUY9589hypQJaO04g+bmlleiY6Jv//9f99CDD9Avf/VrJM2eg+oj9XjuH8/gS1/9tnDrLio8jFrlDIDxoTh/sUu+NHwAYOFC2rl/PzTBQXB4nHA5Rs4A0Ok05LAPyJkCMITo0dUtbg0AyL3sk4ww11iEOgIQGBhICrcbgy4XYqOi0DDGGgCpiYmorK1Fft5aFJdsFGLuGGOMMSaew4f2U/a8hchOT0OZuRKvbn4Jq+7kIoCMDctPoaQJ0mb24oVL0OnV6Bqm97xGoya3cwATDKE4JW18yTNyQTtfFRUxnVrbT2HChBBcuNAtXxp2HpYsXEB79h+AVj4C4HbC6Rg5A0Ct0ZBzcABupwc6gwY9PWJ3AUhLToJZzgAoykN+gRhHAIIDA6Rbi+ByOREeHo7W9pNjCgDIwZPKWgsK8/NQIMjxCcYYY4yJp+zwfsrKfi8AIB9/fOXlF7CKiwAyNrTVd66mN155DTPCw3CktR1/eOpJfO++H16xlra+/CLdedfnkZWcgkNVVfjcHbfhpS2vCrnmIsOmUVtHJyZOCMH5S73ACIGQZYvm0+59B+V39tE/MACXc+QMgBCdgQYG+uFyu6A1aNHdJXYRwPSkJJhqagQLAAQSyQEA5yAiIqLR3D62IoDpxiRUWmpRmJ+DfG4DyBhjjDEfZTq0jzLmLUZ2ZioOm8x45aWXcNudHABgbEiBQUEU4K+QNp56nDx9Vr40dPE/42yqshxHVNgUdHSeRkNr8yvREVceExDBnFnxdOR4A8Yb9LjY3StfGr4LwMKFtHv/fujUwd6+7s5RagDodVpyeAMFLmhDtOjpFjcDQKFQUnLCXFTV1qKkKA95wgQAVEQeD5xONyIjI9Dc1j7GNoBGlFfVXm4DyAEAxhhjjPkmc9kBSsta5A0AlJVXYuvLz2P1nVwDgLEr/PMvz9DXvvVdJM2KRfXRE7jlxhvxxttvD7mOAgP9SRMYBLiBLpsVJPB6S0kxUlW1BeMNIXKVfvnSiDUAdu3fD7U6GHaHAx73yMcmDDo9OQbscLqcUOvU6OvtF3aeFfI59oREmOtqUVqUh1xRAgBBKiIn4CQXIsOno7mtY8wZAGZLLYoLcpBXxAEAxhhjjPmmisMHKCN7AeZnZaCs3IQtW1/Cbau5BgBjV4iYOoU6z57DzJgw1De244jFhDnG9CvW0e//+ATd+90fIXH2XNQerUduzjqUrN8g7Hq7/obraPu7OxGi16HbZofHNTh8BsCC+bTnwEEEq9Xolzb28AzfMlBmMOipv98Gj8cDrVaLnh6BjwAoQCkJCaiqrRMsABBAHqcHbnJ5awC0tI2tBkBqUhIqa2pQUpAnTAtFxhhjjImn4vBBysyej/nZmThUXo6XX3oRt3MGAGNXUkqbhLDpk3HxfBcG3G643UOfT48Om04dnZ2ICJ+OpvYO6bPEXmtTp02ks53nERQYhH7HgHxp+CKAC+bT3gMHoVZLr+13SFM3cgAgVK8nW79VLrAIjU6HboEDAN4MgKQEmGvkAEAOcgsEaQMYFEAYdGFQWgMRER+lCGAiKmtqUZyfg7xiMeaOMcYYY+KpOHSQMufNR3ZmJspM5djy0gtYfecXhHj2EWKQ7OPxo+98l5740x+RYkxAlaUOP/zRfXjyiaeGXEPa4EDyCwyEtbcXkyeFovNMl9BrTaFUkMJDUAcHI9QQgpNnTg9fBHDhfNq1/yAMWg36bP3w0MgBgBCDgfptcgaAGzqdDl09YrcBlAMAlTV1KCrIRYEgaeyBQQGkcLkw6PIgfPpUtJ0afn2NgNKMRpgtFhTn53IRQMYYY4z5rMqKw5SWkY2sjDRvEcAtm5/HHXd+UYhnHyEGyT4eQcH+pHASgjTB0ibTKl8acv0UFRZRQWEBEhNm4Wj9Mfzo/vvw2ONDBwoEQhMMWlyU5u0nP/4RfvGrJ4avAbBgIe08sB+aYLkI4OCwWRbv0+u1ZLf3g9yATqcVPgAgt7Iz19SgtDgHuflibGIDVAGk9Li9WTnhYdNwsqNzbEUAU1NRXlmJooIcFBRxBgBjjDHGfJO5/AClZS7AvPQ0lFWa8fqrr+DmW1cL8ewjxCDZR7dv53ZatPw6zJk5C0eOH8NNK5bhrR27hlw/M2KjqbGpBdMnT8SpsxfQ3tz867CY6Ac+7e/5qqIAhU8cj5PnLuJnD/wvfv74b4avAbBoEe3dvw9ajRrW/n54PCPfpwa9/r0MAHJDo9Ogt8cm8n1NqYlGVNVaUFKYg9xCMTaxAQEqUkgLZdDlRtT0qWgZYwZAutEIk8WCwvx1KCwWt2YHY4wxxnxbhbcN4CLMz8pEWUU5Xn1lC25ZdYcQzz5CDJJ9dNOnTaTz0mY+NiYGJxqaUFlxCMaMeUOn/wcFk0LajAYGBsI2OAj7gIPXmbS5igqbhI7O8/jK3f+Dv/7jueEDAIsX0N59B6BRa6S5s8M1ShcAnU5HDrsdHrcLaq0OvX3i1gCQ/kqj1IQEVHq7AOQit0CMDIDAoECC9wiAGzGR4WgaYxHA9GQjTNUWFBbkoJAzABhjjDHmo8oO7qGs+UswLz0DZZUVeOXll7Hq9juFePYRYpDsY0ET9FrYXU74KfzRaxv+XWZ/hYrCpozDmYsXMH7COJzqPM/rTC6eOGkCTl+8hHu/9U385k/PDB8AWLKIdu/ZB4M2GH39A/CM1gVAzgCwWuGRfqg1OvQJHQAApSQloKqmztvKLl+QTWxQUBCRNwDgQlTk2LsApCUnobK6xnsEQJS5Y4wxxph4KsoOUEbWAmRnpKPCbMbWLZuxajUHABjzWvPQT2jTL34J45w5qD16BA89+AAe+cXjQ66duqoKSkrJRvj0Seg4fRqPPfIo7n/oIaHX2cM/+Qk98stfIXL6ZHR0nkbZgb1In7/4AwQAtOjzpvZ/gACAXXqd2+PNGui1WkWeb0pJTERVba33CECeMEcAAr1ZN06nC5Hh09Fy8tQY2wC+1wWAawAwxhhjzJeZDh+g9OwFmJ+RhTJzObZueRmrVvMRAMa8glV+5HB6EKwJhM02cgu7mTHhdLzlJGbHxeJoQwu2Pvssbr/7S0Kvs+9/62v09F/+ickTx+HsuYtwjdLWb/miRbRz3z7o1Wr09vfLl0YOAOh01G+XawV4vEUARW4DKCHj3ARY6utQWpiL3EJRjgAEkLSw4HINIjI8HM0nx5gBkGKEucqCovx1KOAaAIwxxhjzUabD+ykjeyHmZ2bhsKkCW15+CbfxEQDGgIMHd9HC+cswKy4ex5oakDhnlrS5OjbsuomOiKRzZ84iLGIqjje2yJeEX2ML52fToYOHER0Zho5zpzFgH7mq/4rFi2nH3r3Qa95rA0ijBAxCQw1k7ekFEUGr16Nb8C4AxrlzpDV6BCVFucgTpAZAgMqPyCOtFLcH4RFhaGnvGGMbwCSYLTUozF+LwuKNQswdY4wxxsRTWX6QUjPnIzszA+UmE17ZuhmrbuMAAGOIi55GrS1nEB42BS0dnWhpOtYWHTsrarjXz5oRRW2NpxEdE4bjzW1we1zCrzGFEqQOUCEgSCVt/gdhd4w8JysWLqQd+/cjRKvx1gBwe0YOGMgZAHabXfqDPFBrtcIHAJLnzkV1fT2KC3OQL8oRAJU/KUBwOt2ImD4VrWPsApCWbIS52oLiglzkF4kRPGGMMcaYeKrLD1Fy5rzLAYAKvLZ1M2657S4hnn2EGCQbuwAoaGr4FJw+dRoepR9crpE3o0sXZNPeA4cRPm0KOi5cgHuQAwB+CiVNnjQenWfP497vfBO/+9NfRpyTlcuX0Lade6DXaNHbb5W2ZSPfp+NDddTXN/DeEQC9Gl3dYh8BSEtKgbmmCgW5a1BUukmIuVCpVKQg8hYBjI0IR1P7hz8CoLicPVFdfwTriwuQk18kxNwxxhhjTDwVZQcpI2s+FmVl4YCp/L0uAFwDgIluw4ZNlJu7FnHhETjR1oYf3ft9PPG734+4ZmIjplPbyVPQ6wywuwZg7xe7BeCPH/gR/erxJ5AibayqpI0VPsA9t3LFUtq2Y/cHDgCEGuQuAHY52wJagwbd3WIXAcwwGlFhsSA/52EUr39EiLkICFCRnzRSu8OJ2KgINLW2jykDICUhAVV1dSgtykduQbEQc8cYY4wx8ZgP7ae0eQuxMHs+DlUcwiubN+NWrgHARKeSNhVBCkKgVo1LF/vgGeUsumzKeANd6OrBlImTcersuVHPr/s6g0FNykHAXxuMixcvwuMZ/Z5bsXgB7dp7AAatHt02+Wz/yJ8zYXwoWXv7Meh0wKDXoatX8AwAo9F7jr0gbw2KSsQ4xx4YGEhEHjgHnYiLjkFDS/PYAgDS3FVZLCgpykceBwAYY4wx5qNMh/ZT+ryFmJeejfLKMmx9+SWsup2PADCBnWxrfzw8MuL+mMgwnD7VAT91MKy99lHXy4M//AE9/pvfIj4qBsdbmuVLwq6xF579O33x7m9gRnSENBetWHXr9Xjt9XdHnY/rli6m7bv3Qq8OQp99YNQAwPhxodTX1wePywWtXq4BIHYGwPuF7Ary1qGoRIxK9oGBASRHlwadLkRHRqG5rXVsbQCTk1BZXYPSwjzkFpYIMXeMMcYYE4/p0EHKmD8f89LTUWY2Y8vmF3HbHZ8T4tlHiEGyD++mm66jt97Zjqjp4ejoOIUnf/8E7v3e/466XuqrzTQ3JR0pCbNQXXsU//rrH/Glb3xXyHU2dfIEunT+EmbER6P2eBNOtTcXTY+IKRzt81YsWUw79uyFTqOG1d4PGiVrQA4AWPts8Lid0Go06OoTOwCQnmyEqdqC/Lw1KC4RowZAYEAAkcuNQY8bsVFRaGr9aAGA4sJc5AvSQpExxhhj4ik/sJ8yFyxEVmYmTKYKbxeAW7kLABMcRU6einNdZ6FUKmEb+ODF/Pz8lDR10jicOdsFvT4Ql7r7hVtn//7rn+l/vvEtpM6eg6qjR7Bo4Tzs3X/oA83DdcuW0Pbde2AIUqPPYYfHM/IxivEhBrL12+F2uaCTj2v0ih0ASDMmw2ypRm7OwygVpAZAUGAgeaTNv5wBEBsVjabWlo8UABCphSJjjDHGxFNxYD9lLFyIrIwsmM3l2PLSi1jFGQBMVOuLSygnPw/GhDmw1J3ArbfegNdff+MDr5XxBh319dsQqtGg1+6A3TEo3Drz81dQcIAa0yaE4kR7BxqbjrfFxc6M+iCfu2LZItqxax+0ajVscgbAKEcAJo4Loe5eK8jlgkarRo9VvIDLf6GUhLmoqqtHYd7DKCwRJAAQrCKnwwWPtFhiIiLR1NY2tjaAKUaYqywoKlyHgkIxjk8wxhhjTDyVZQcpNWs+sjOyUFFVga2bX8Kq1ZwBwAQ1eXwoXbzUhfiZM9BwogktbU0/Dg+PevyDfv7/3vdt+s1Tz/yn8v1dd6zC5i2vCbPWpk6cTOcunJX+QpmHA+WHcMfKG7Bl2zsfePzLlyyinXv2QafRwGa3jVo4UKfTkr1/AApyI1gdjF7BAwCpSQmorKm7XARQjCMAQQH+5PEQnC43YiLC0NTeMbYAgDERZkstSgtzkctHABhjjDHmoyrLD1Fa5jxkZaShrNKMrS+9gNV3fEGIZx8hBsk+uGNH6mnWnATMDJ+GjouX4LAPwkXuD7VOaqsqKDElAzNjo3Dh3Dn09jvhdDuFWGtfv/sr9Ldnn0PSzFh0SmO3Shv4gYEPN/aVK6+jbdu2Q6/VSJt5m3xp5ACARu4B74/+QQe0Oj26u7qFmOthUFqitImtrUVxUS7yBUljVwcEkpMG4XETpk2djpOnTo2tC0DiXFTX1qOkpBC5eYVCzB1jjDHGxGM6/F4XgPnpWThkLscrm1/CbXdwFwAmoBtXLqF3tu3B3Pg41DU04uk//Ab3fIDif/+/WTNj6diJJsyQzyO3tCB+ZhyOHW/06fX2g3vuod8+/TTCp0zG4OAgzl7qwuOPbsQDD639UOO+ccUyenvHLuhDdOjt7pMvjfj56kAVQamQAw0IMehwqbvXp+d5FP8XAMjPQX7xeiHmIsBPSfBXAk4PJk0aj44z58eWAZAkzV1NLdaXFCAnr0iIuWOMMcaYeEyHD1F69jwsnpeFvWVleO3lzdwGkAlKARpv0ECnMaD91Bl44Bn7GlEoaIJBi4iwcDQ1N+Lrd38LT/zp9z635s51tCXfdvvtVWVmC6ZPngiFtA872XkWP/nRD/HLJ5780OO94frl9O67OxESokN3dx9olPtU5a8kXZAO1oFeaLUaXOoWuwig/C52VW09igtykF8kRgBArwkmq90Of+nXk6dMltffmAIA6cYEmC11KCktQG4uBwAYY4wx5psqDh+gjOwFmJ+VibKKcrz84gtYfRcfAWCC2bN9Oy297jrMiIpE57kz6Lc74B6lAN1I/vL0n+ib93wHEww6KPwUuHipDwlz4/DOO7tTpoZNr/44v/fPyuaX/kVf/NzX4JJ+zIqNwaDbgebWU7j9xpuw9e23xjR3N11/Hb397naEaNXosvbLl0b8OhFTJ9Pps+eg9FMiICgQfX0i1wBQUErCHG8RQJECAKFaLQ26BuBySb8ODcGZ8xfGFADITE1FeWUlSksKkMsZAIwxxhjzUebLNQC8AQCzGVtefB63cRcAJpppk8bR6QtdiI+IwIVLXbjU2ytf/khr5Hvf/ib94Zm/YNrE8QgMDsLJk6fhJg9uv/0WbNn6wTsLXG2qzAdo4cLlsNkdkPbdiIuKx7nzZ9DV14cf3vsdPPm7P415bDdet5Le2b4NGrUa1oF+YJQigK++9ALd9rkvYEKIDn39djgGP3jLRh9EKYmJqKqtRVHeOhSUiFHJ3l+pJI10fzkGHYiOjcXRYyfGmAGQgkpLFYqK85GXXyzE3DHGGGNMPKayg5SeNR8LMrNxoKIMW156HndwBgATjbQYaNK4EAQEqtDXZ5PbyY2afv5B3P+D79KTv/0jNEH+iI2diQtnz+PUhXOYODEUt950E4qLin4dFh3/wMcxhk/aA/fdS7975s9wDDgQFBSIpJkz4PYQ6o4ch0vhxmOP/hz3//inH2nOVi5fTtt27oReF4zePrt8acSvt6mkkNbmFSI6LAzNnR2jBgx8mbyGjXPnorpebgO4DoWCBAAkpNNq0N8/ALUmWLp/x3QMhDKMKTBZqrwFFPMEKaDIGGOMMfFUHN5HGdmLsCAzC2WVFdj8/PNYfdfnhXj2EWKQbHS33HATvfHOW0hPSMSZi2eg0xrQ0NCIzVtewuqPIR3ml489Sj958CHvr+OiY2DQGdDS1oBLPVbvtfHj9fAjPzz005/i9s/f1aPy99vq8bijPB5PFJEr0jXolharAn4KBUgJ6b9K6b9+bUQUQh63wXuR3CDywKNUwl8+iE/wrnCPdE2mlH/6BbT5+3lCnG4yyIMihbJN+koh8kvdLunrSC+92HUOkyaHWeyOAWNxXj7qG46ivr4BCoWf9PXdCPRXIWH2XPR0XUBjR4f3a48bF4JLlz6e6vs3rFhO7+zY6c0AsNn75XGM+HXNZYcoLWseIqdMRPuZ8zhx4gjiZ8wR9d6m5IS5qK6rR0lBDvIEOAJwrKaWUjLSEGoY5z268/RfnsE93/z2hx+3dGtlpRilfwQtKCnMRR63AWSMMcaYj6qQnp8zpOfnBVnZOFxehpdefgF33MEBACYWmjxOA4N+orQpv4SJEybjeEMDFixMx779po9tnaQnJZOpptq7gR8XGoKJ48bBKm1y7X3dsA44YXc639u4Xybt96GUfi83Inw/AODdztN//ufy6+RcBWmD7vFIG/73rr//TV+OA3iL83k3/R5pp+P98d4H/C5/GfflP49I8Z+vLQcN5BT/SePGI0Svh8PtxunODun79ID8AU1AMPbs3I607AUf2xzdvHIFvbV9B9RBcgBAzgCgD/K1KTpsGlpPdSJ86iS0d54T9d6m5IQEVNfVCVMDYMWyJbRj1x5MnjgR586f/yhZO5SebISpugYbSwqwltsAMsYYY8xHVZYfotTMeViYNQ/7yw7hlZdfwOo7+QgAE0R42GQ62XEWcdHR6LFegj/5ISQkFCeampGVkYKD5ZUf6zqprSynu798N2qONXgXoL+fAgatDhqdGh63BzHRMXA65AKEJL99L23ApU0/KaUNvNvb51zuS+Cn9INS+ilv5V3Szl0lbdJd0ubf7XTBXxXofS3JAQH57XPpE97b2L/3+Up/f+njCu+fLX9tt/xx8nivDbpd3u8xMMAfdpsd/fZenDl9AVa7Aw6X6z9jmDkrFs/87rdYuOyGj/0eun7FUtq2Yzc0ag3sA/3yEYNR/ww/pZK0WpX030D0WQfgdA2Kem+TcfZcWI7WY1NpMdbk5vv8PBj0ajnxRbpvCTbHoLRO3WMas788d5fbABbn5yK/mDMAGGOMMeabyg/vpczsxcjOSENZhRkvv/Qi7vgcZwAwATyycT09vDYHc2bEo/PsOQxIG169XittgINxqvMc7rv3e3jyd3/4RNbJ2dMnk5979tmqyqoq/P3Z572bdPldeo/3rfj33o338rz/frxC2vST9/dyFoBSeoH80+15L8Xf+znvv60vp/5LnyV/nKSNkfe6nAEg7aXdlzME8H9v9L/328u//69L8JN+avRqTJgwEb998nE47INY/bkvfqL3zcoVi2n7zr3QaoLRb7fD7R79Pp0dF0vHG5sRFx2JEy2t6Oxo/ea0sKi/fpLf59VIWhFknD0L1UePYOP6IqzNKfDpv+P27HqXliy7HlFTJ6H1zHksXZCF3fsPj2nM8qGZ5JQEVFXVobAwFwV8BIAxxhhjPqri8H7KzF6IeZnpOGQy4+XNL+IO7gLAfF1z4/HWmXGzIvUGLeSfLe2n8cLzz+H55/6FnTu2SZtlFUJCdWg+2fmpr5MzZ05H+YG6PX7SH+0mTJ4yrfv9j52/cCpE2tWHTJwY1nrh3KmQCZOm/+dj506fTPaQvHFXYOK0sOrzZ06FTJzy3sfPnumI8pAixHtagNwhHg9F+SnRDaWylVyeZCgU3R7yhHj+H3v3ARflkf4B/LeFXgSldwQbSN9dihpb7L2XFJNcLr1eqoVuTLv05FL/ploQLIkaW2yxUHYXFhAbRZSOBVTa1vm/72pyd4nmUgCX5fn6MS7v++7uzLzzknfmnXmG++yOjra3uO2Xg4KHOHV33kfdNowd+PEIHGxt0NbR8btGAJwoULIhUTEYEOCPc9W1sLW1RdOVy73v+hbwUwDCoCouxqurVuKFZSvMugycHe3Y5SutcO7bB82XLiP36BFIEv7cdBShQMRiIoZCoSo0jgBIpBEAhBBCCDFTipzDxiCAcdJo5MmV2LgpCzNnUwcAMXP2llZMo9UhJDQEJceOwd3LHdW19QJ/P1/WUF2Dfq7uqGmo4w+letKNxowcyfYdPAgne1vjsn6/pwOA18fBnmk7OuDt44+KM2ewMXMtZs5b2MvOnYCFhwxB0fHjWPVSKpaZ8QiAZ598jP3znfcRPngwSk6eRMjgIBSfLP/T+eVnyUijI5CXX4jUpOVITjP/+AmEEEII6Z3y844wiWw4YmVRyFYUYMvGDZhJQQCJudqzcyubNH0GREwMPy9PnKmthb2tJZovtxrrg5OjLdN1aGHr4IzzFxs7ZSlA8vuNHz2K7dl/AA521rjS1vE/VwH4ya7vvmMTpk+Hs6M9+HkDV9o7oJLLERYj6UXnT8Aiwoai8FjxtRgAy80zBsCXqz9mS+57EL4+3jB0tKLmQjOKlLkIj4n98/kVCFhcZARyClRIS1mBJJoCQAghhBAzpcg5wiRxw5EglSBHIcemzA2YOZeCABIz9MmH77EHH34cNlaW8OjXFzWNDVDrGOrP1wV6uHpW8seI+HXxHOyhN4jQ1noFmt/5BJp0joljRrOd+/fD1soaHeoOPg7i7y7/qLBB7PjJcgT4BqD8bBkMQjG++uwT3Lnkvl5xDvnVISNChkB1/AReTU/HC8sTzS7fu77dwibMmAmx0AIhA4NwvOwU/Pz8UVFR+ZfyKoSAyWIikKNUURBAQgghhJi1/NwjLCZ2GOJiZchTyJG1YT1mzenaOF+moldkklzz/D+eZK+9+Q7s+tjDzdEZDQ0X0Kbhl5n773rgYGfBbK1scaWlDUIBH1lcR/WkG00aO4rt2HvA2AHQru74wyMwLC3ETKfTIWRwCErLTkOr1ePBB/6GDz/5rDecRxYeMhhFx08iPTkRianpZpXnjz54hz35+HMQWQvQ3ycQJaUn4e3hieq6ur+cz2tTAMKRl1+ElMRlSElfZVZlRwghhBDyE2Xe4WtTAKQSyOVKZG1ah1mze8fU2V6RSQLY21uzlpYO9HV0hJ2lJWovXIReIEBjddVoN2/vA/95rEu/vszB1hq1dY1wcXJAzYUmqifdaPzI4Wz3wcPcebJGm+aPdwDwLMRiJuTe5efljda2VtSevwAfT3fs2/sDBoaEme35NEayDwtHfnER3nvnTTz+5D/MIq8njxWxGbNm4FTpGbj26QsbewvU1jbC1tIKV9QdnZVHJo2KgLygEGkpiUhKMa/OE0IIIYSQnxTIj7Ao6TAkyKTIzpNj86YMzJxNIwCIGXjn3XfYs088Bca1jCLDInC2ug7nLzbAz88b587V3PD8uzo7MrHYEhebLsLVxRU19Y1UT7oRHwNgNx8DwN4WLW1tYIY/fp3WVFXe4+0b+Dm/iEJQYAAsLaxQXlmBDrUGni598eDDD2DylJmQxsWZzbk9X1/Lr/jQFBUWjsLiYiQlrUBKWlqPzF/DhTqntqbLqp27dvmvWLEMF5tbuca+NTy9XaFu06K6oR7hoQNRVHK6M/PHosPDkV9UhNSkZUhOoxEAhBBCCDFPeUcOMdmwERgui8WRvFx89+0mTJsxu1fc+/SKTPZG+/fvYOMnzoJWrUYfezt4enig8lwVOjRqjBweh4O/sVa4hdiCBfp5orTiHJ569AG89cEnVE+60YQxo9iu/QfQx84Ol9tbAf2fu04rTp1gEyaM5xr+VRCLhfB0d4ezswPKK6qMqwt0DT6p7H/v/Y3D/r3rJgcJrv0VCgQQMQG0BgNEAiFEIgEsLIRw7eeCttY2XLx8GXrDtbcIuTcYfiNdvzf9/33Ufx8rvP6v4Xd8yy8J/+N9/Nx+nUHLfbqQ+3QDrK0suevXC7bWFjhxqsyYj4f/fh8+/HR1Z1+XLCosFAXFJUhe8SJSV75C1z0hhBBCzFL24YMsfvhIJMTF4mhOLrZ9uxFTZ8zpFfc+vSKTvUnekSNs5vz5qK+tgUAEDPDvD61Oi/KzVbC2scbqjz/G4ruX3PS8r1/zNVt0x10I8gtE2bkzUOXLERktpXrSjSaOHcN27dsHezt7tHa0wqD7a0EYv/j8Y7b0xRWob7zINZABF0dHODq7wtHJFh3tahi4BrS1yBJaoQF6jQ7WFpbQ67iGrYj7yxjXsBaB6fiOISEMfEqEAmi444Tcn2uNVgMM/HFcg1zPvRbxzVnuOINWDyFXB/nPYEIxhEwPtVYHS0srfmlDPug8DHo++DzfeOeb0swYxQ/Xm778H5FQ+PMvKb4UDNdbyfx7GPcDX8dFTMjVcQ3EIiGutLUZG/t8w9/R1gYarQYiruEsgAWXbIMxr3yT3XC9Z0AoFvPJg4BPCJ9PPfed3DaDXmdMt+D6txtfcS+13HZLMddA5/7l88CnVsiVh4EZuO8XcdsMsLSw4Y7TGN/F+A83vvd6E5/7fAH/Pez69xs7Jq4N8eCyyr2PKxONlits7mcLMWzEdrjcfAnn6qrQ1qaDl6cnPvrkQ0yfNrMrrkkWGRIK1fESpCQuR0o6LQNICCGEEPNkHAEwfASGx8bhaE4Ovt2yCdNm0ggA0oOcPVe5ZdG8OTOO5iphb2MJFycXWFvZGiPBc00byCKjkFNQ8D/P9+23DWM//HgEwUFBKCsvx7bNmzB1Vu+4GEzFhLGj2e69++Fgb4OWtg6u0do5qzA8/Pd72edffwMd1wjX6a8/uRZce/rMxwvgt+h/bmALjA1jY+P1egOV/4/gWnvWuO+nJ9aC6zsY+/fzc/79/AsG9vN+vrHLT0Ux6K83nLlGseH6/AZ+O/vFo/ObPYc3Npb5tP684b/fzE970N/gzVx7GlzWf/6Mn/Lx08//+RbB9Xyx61vZ9bwLfjGSQPCfL9i/P0N4/b0//Sy4/n7DTyXG/SzmOzTY9ZxyBcCXmY7pjZ9lIRRBq7+WQ76Tw6NvP/zztddxx71dupoDk4SHQ1FUhOQVS5G68mW67gkhhBBilhRHjzBpwjDESSTIUyqxZUsmps2Y2yvufXpFJs3dhDGj2Z59+42Ni/79AwC1FjX19VBzDQgPT1eo5MpZHj5+W37PZ9laWzILiLmGoBbOLm6oqr1xnADSdSbyUwD2HYCdjTVa+VUA/kQMgP/lw/ffZ02XLqC2uhoCKyuuxazhGsgCiPmzb2nNNUz5xue1Z9P8ShAGHeMa1QwWIiHE1tbQ6/gn3EJjQ5b91DDm3iPgWsqC60/Q+Xa5sZHPNXDFQu5fncHYEhaJuPrFPzEXiLmG9U+9Bsz49F3AP/HnRwMYn64LjcczY6OYe79xuAAztvX5bgX+6bqIbyjrdMYOAAuRBTQ6NVduNtDpDdDwx3PXgDGNBqHxO4QW/EeJrz2B5z+LP4TxUwhExp/5fAi4PArZtQ4GfpSBcdiB8Nr38dMOhEJL7iguf9x7DHzZGIclcO/TXzuO/0J+dIPAcL2DQXRtFAPjy4S7towjAMCXpYhLnt44aoAfvcA3+C24/Nv2cUBFWRlaW9X4x7NPI6r7RuAwSWQ4FKoiJK1YhrSVFAOAEEIIIeYpN/swi40fgXiZFAqFAps2ZWLaTJoCQEzcuNEj2Z79B8GPsnZzdkWfvs6oa6jG1ZY22NhZ460338ADDz76h84xP1B7UJA3Ss/WQWds+3T+EoARIaEsMNAPQrGFsb0k5BpgBoHw2pNifoOBa9AZrg2rNjYG+ZaYMRXXBp1rtPrrk6YNxnHT1x42C64PoxYah5jzDTd+WDr/5FbIvdYbW6lc483AjA1SPd9Y5RuZXBqM49A5/KoIQu4N/FB2g/GJstDYiDU28Phh6lyrUCyyglrdDg3XmOvo0MPOzhJiKxts3Li508pp/KhRbPeBA3DgGtpXOzoAuk5J92AxkRFQqgppBAAhhBBCzFre0R9ZbMJtiJXKoMiXI2tjBmbOnN8r7n16RSbNSfXZsymTxo5JLi6rAN/s9fPyhIOdHSrrqtDaojbOv16R+BxS01/9w+f29ZdXsueXrkCwvxdKq+pw3+L5WP1NRqfWEec+jqzp8hVjp4X+lzt/nuzdmd/YtSwsLKDVamFrZ4W2VnWnlNXEsaPZzr37YW9rhZY2Nb+JrlPSHVhMeDiURUVIXPo80l9+jeodIYQQQsxSXvYhFhc/ArGxUsj5EQAbMzF9Jk0BICbkfEOd0+LFC5r27P3ReNJc+vZDHyd7XGq8hEstV41Pzld//BHu+/uDf/qcDvD3ZdV19RgSFIT8Eyf5TV0SaMzBxhaB/v4QWYqN89GF12O/iURCY2A1fvi2cbg2P5nb+PhfeC3iOh/0jQ+49vPkc4FxSLZxvvr1mOz8I38+6KFxHjr3eSL205Bs/iMFxqHpIvG1oeUC4zCCa8PO+SHk/Nx0fgK5wDgKgBnnZ1+bo20wfr7w+pxtfqi61qA1LqlnaWGBposXcPFyC1gnlde4kbexHw7+CFs7G7S2GqP103VKupzAOAIgHEpVERKXv4i0l2gVAEIIIYSYJ3n2YSaLH444WQzy5Eps2cxPAZjXK+59ekUme7rnnnqUvfXux8a50I62VvBw80XT5fNovNxsHL2++qMPcd9DD3fGuWQ+nu5oa74KjciAlpaOTq8fzz75KPvnOx/ccJ9AeG1C+U/B54xR035rNIDwWvL4Yf3sPwK64frbfw7F9stIb8bI9NeC1PGdACKu/a/jh/wb/vu4/17q7UZh4v7984hYGQ7l5nVKeU0YM4bt3rcPttbXYgD81LdBSBdjcdFRyMkvQGpyIpJT06neEUIIIcQsyXMOM2nccMTLYpAtV+LbjZmYMZs6AMgtlrXhG7Zw0b3Q6bWwEIsQ5O+PxvONaL7SYnxi/nJyOp5PTuyUc/jAPfewT774AoODB+J02Wk8+tgDeO/9T6h+3AKTbh/LdvywF/a2Nmht7+A7MOg8kO7ApJHhkKuKkJayAkkpK6neEUIIIcQs8VMAZPEjMCxWgiO5CmzelIFZsxf0inufXpHJnubQwb1s+rRpaGprhyUTwc/HG2qtBjW1dcZI/w/d+xA++vyjTj139jbWTKfVok9fJ1w4f4kPmkd14xaZMuF2tnP3XtjZ2KK1o5Vfmu+G56K+unpmcVHhZpFYBIGAjyRvAwuRAJa2Nqg+WwmhpQh9+jhjxMixdC7J78Fk0RGQ5xcaOwASqQOAEEIIIWYq9/CPLHb4bRgeK8WRXDk2b+GDAFIHAOlmNZVnU6bNnJKcrzpujHY/pP9AGJgGp7jGnMEgwIABvigtPdfp52zfnl1s7LgJiAwbClXxMcSED4Wi6BjVjVtk6vhx7PvdP8DWxsoYZ0DHn/wbY0IRV1P0hp83iHF9+Tr8e5LC/t07MXr8RDqf5H9hsqhwyAuKkEojAAghhBBixvJzj7Lo2AQkyCTIyeNHAKzHjNkLe8W9T6/IZE+wcM4stn7jt+ADzvGR/fv2c8Wxk8eNQfKcHB2wZXMGRo2d3CXny9rCgnXotAj29UFFTR3KT5WcDQweHNAV30X+t4ljx7Dde/fB2soaak0H9DeIAdBQUz3K3dtn/6hht6G1rQWWIhEsrCyM689rdQK0X23D5dZLqKutRYdGx3cK0LVO/hcWGxWJvAIVUhKXIzn9JaozhBBCCDFL8iOHmHTYCMRLY5AjV+K7LRQEkHST+5fcyT778hvjmehrawWnfu6oqK4yBqRzdrDB2owNmDR5Wpedp7feeo09/fTzCA8LQ0lxMQYG9ceJ8gqqF7fQxNGj2a4D+2FtacE15vX8qgg3HQEQNrg/Kivr0d7RBt0vdro5OsLSRowLFy+jQ6enc0r+BwGTRYYjT1WItOTlSEqlDgBCCCGEmCdF9mEmjR+O+DgZcnLz8O2mTEybRR0ApAv969232CNPPwvo9XDp4wgvT2+cqarA1VY13N2d8dnHn2PazJlden7Ky8tUA4OCI5ycHWBjaYvqhgbUV5152sM38O2u/F7y2yaPHcN27t0He1tbtLS3w3CDeAwNdTUB7p6+ZxJiwqAsOYZnH3sScxbNR/mJMji5uaL81Gk8+dRT3C+1OPx45Ag++egD3P/Qo3S9k9/CZJGRyFPxIwCWISV9FdUXQgghhJglRc4hJom7DcPipMjOycPmTbQKAOki27duZYsWL8CVq21wd3aGq7sXGhqqcKHpinG1t/fefROPP/F0t5wXF0d71nSlBcFBQThdXo5xo2/D7v0/Up24xSaMGc127dsPB1sbtHRowQy6X52T8/X1Th4+3k2xXIMttyAfuzZvunz79FlOvziMRYaGQlVSgnffegNPPP0MnVvyW5iUq08KvgMgaTmS02gEACGEEELMkzLnMIsxLgP4UwyADMykVQBIZ/P382Znz9XA0cYe3l4uqL94AU3NLcaTsPzF57Hylde67Xw42NuxtpY2+Pv6oKamDgYhP3echombgknjxrKde/bCzt4GrW3tYDdYBaCupnqUl7fv/pHSBBySH/l5jn9V2alK3+BBAdeOEjA3Vyc0nW+CtZUtrqrb6PyS38JkEWHIKyxG0vIXkfbSK1RfCCGEEGKWFHnZTCJLQLwsGjl5SmzZnIkZNAWAdJawoUPYiROlMBgM8PToC2sLG5RXVRlDtE8bfzu27v6hW8+Dr4cnq22sR1BQIK40N6P+/CUc2ncAI8aMovpgAibdPpbt2reXa7TboK29g9vy6ykAtdXVM318fDcPk0lwlPulpce1OAEXGqpGubj7HuBfe7u5skvNl+HoaIvzF5r5JSTp/JLfwmRREcgrKETKiqVIWfky1RdCCCGEmCV5TjaTxsUjIVbG3UvL8e3GDTQFgPx108aPYVt374NYKIC/tyds7O1QUX4ObRo1hvYPxLGKM91e/jbWVkyv18LX0xMXLl7C5dZ27Nm+DeOmTKW6YCLG3z6G/fDDPlhaWUKj1cJg+HUHQF1tTaSnl0/BbTFS/KjM4zf96hgrsSWzshBAJBQbRxJo2E2DCRLCY5LIcChUxUhNWorkNIoBQAghhBDzpMg5yiRxw5AQG43sXCWystZjzlxaBpD8SR999C/22COPQ8cM8O7nhD5OLqirq0NTawtEIiEU+XmIipB0a9nncZX8thGjYeAa/6EDg9HQfAG19ZeQ+MILSH/1VaoHJmT82NFs794DsLaxRJtGB6a/8dQMoUDIZFGRyMnP5380HnOxqcGpn7N7M/86NGQAO33qDIID/XCirALVVZX3+vgGfNFtGSE9DZNGR0CeX2iMAZBCMQAIIYQQYqYK8nJYlCwO8VIJcuQKbNyYgdlzKAYA+YO2bMpiS5YsQWtLOywtLeAf6IVL55vQcLGZa6wBTzz8EN7+10fdXuYvv5rOlr6QCFuRCP083KBRq9Fw4RKWvfA8Vr3afXEHyO8zedwYtnvvAVhwdUijUUN/gxgARgKw+KhIZOcXcT/8+ul+dXX5Fz4+QUuk4YMhLzqJB+67G5+s/orON7kZFhMeDmVREVJTViA5ZSXVFUIIIYSYJWXOURYTl4CEWClycuXYmLUes2gEAPkjBvb3Z6crzhlfDwkKgIEBZRVn+OBsSElehpTU7h9OW19bFenl278Aei0cbO3g5uGJqqoKdGgNePONV/CPZ16k82+Cpo67ne3Y9wOsLC3RodHAoL/xdSoQgCVER+OI8t8jAP5T7qF9LHbEGIQMCsLxU+VIev55pL1GHT7kppgkMgIKVSFSk5cjOZVGABBCCCHEPF3rABiG+FgZcnLzsHHjehoBQH6fpx97iL37/kfG569DggdAyLXWztTWoLVdAw9PF+zdtR+h4UO7vZxnzZ7Ntm751niGB/b3R011Ha5oOyDWC1FWeqLQP3hgZHenifw+k8ePY7v27IGFtRXUHWow9uvrtLGuJsDN0/tMnCQaOYr/7gBobKge5ebuc0Cenc2k8fGQRoRBXngMX6/+FHfddz9d8+RmWGxkBHJV/BSAFUhJoxEAhBBCCDFPypxsFhMXj2GxMhzJzcOWTRswc/b8XnHv0ysy2RUy1n/DFi1cAgP0cLSxhbePF+qr69HU3oo+9rbYvCELYyZP6vbyffPVVewfLywDf2r7Odiir4M9qhrPo0NnQIIsEkfzVHTOTdzUcWPY9h/2wdbSAh0aPfQ3Cd7HxwCQRoYZo7azm1zLQrGYBXh4oKK6Gv945gm8+ca7dP7JzbDYqEjkFqiwMjURK5LTqa4QQgghxCzl5xxl0fEJiJdKkZMnR1bWOsyZu6hX3Pv0ikx2NmdnZ9bUdAUOtlbwcnfhW1k4VV5h3Pf0o4/hrQ/e7/ZyPfjDLjZ/4QLjcm/Ozn0Q4O2FisqzuNzSZlxE7rvNWZg2cy6d7x5g2qTxbOuO3XCws0VLRweY/tcdAI0N1U5u7r5Nw6WROCxX4UZLBfKcHO1YWyv3GUIBrMQitLSrqQ6QGxLyMQAiI6BUFSI5ZTn3l6YAEEIIIcQ8FShyWbQ0DsNjZTiUk4vvtmRi+kxaBpD8wiP33cv+tfpz4+uQgf3BdMDJMxX8EG2Eh4agqOT4LSnP0EHBrORUGddgtIGbixva2lpRd/EC+IXfH77/fnz42Wd0nnuQyZPGsV279sDO1gZXWtu5Ztmvr9OG+londw/vphExEhxSyvlNNzzHIgiZhbUFhEIBtDoNtBpaCpDcFJNFRkCuKkRaahISk9OorhBCCCHELP20CsDIhHj8eDQb327agOk0BYD8ZFVaKktKSeEa1EL0c3WFtbUYVTW1MBgM6OvYB5s3bsDIcRO6vSznzZrOMjd/ZzyJ3h4e8PHywbGTx9DS1gEPFxfUX7hA57cHmjh+DNvzwz7Y2driavuNRwBcx0ZIpDiskN90CgB/jKO9LfQGLfQ6Az+lgOoEuRl2LV5EMdKTliORlgEkhBBCiJnKz81h0bEJuC0hBj8eleO7TZmYPptGABBO6IAgVlJaDld7e/Rzc8Wl5iu4dPUSDFqG9999G4888VS3l+HXX3zO7r33b+BXh3NytEFQ8ECcPl2KKy1XIRaLsWXDOkyZ1TsqsDmaOP52tmf3D7C1tUJruxaGG8QAaKivuT4CIApHlCquLtx4CoBAKGBOdnZoa2+DSGyFto52qhfkZlh8VDSyC/KRkrwUKakvU10hhBBCiFkqkGezaGkCEuIkOJojx5bNWZgxq3dMl+4VmfwzJo0fz3bs3g0rEeDl5QehToezdbXQCQRYsnABvly3vtvLrrz0VGVcfJz/hYvNsLISIzggGOr2FpSerYKVhRivvrYKTz39PJ3THm7apAls245dsLO1Qnu7Bnp248Y9hw2XxeBonpKf7XHjKQBiAbOysAIMBmgNDFqtluoHuRkmjYiEvFCFlKRlSEnr/qVLCSGEEEK6gzIvh8XIEjBcJsGRPDm+3bwB03vJA9Rekck/IvvIETb69rHoaFfDvY8TAoIDUVJUjBatFtGhQ7B1284vvQP97+nudA2LS2DZeTkQCoUYGOAFS0sHHDtZAh3X8huREI9DR7PpXJqJSZMmsR07dsDO2hptan4ZwJt3AAyTxSA3TwndTa5lsUjA7K1toNHroeUqi1ZHHQDkplhsdDRy8/ORnrIUiSk0AoAQQggh5qkgL5tF8x0ACXE4fDQHmzdnYOYsigHQq1RXVqYMHzY8ubKmmmt4WWFQUDAqzlaiuaXVWEgfvvs2HroFw/0fe/gB9v6Hnxhfu/IdEr7+KK04ieY2NRzt7VB24sS9br5+X3R3ukjXmTZlMtv6/fewt7FBS1s7v+mmHQAJkmhkK/JvGgNAJACztbWDTq8B3xFwvvkKXfPkZlhsZCRyVSqk0ioAhBBCCDFjBcpcFhMTi7hYKbKNIwBoFYBeZdaUqWzz9m2wthYh0MsfF5uacbXlEtp1wDB+WEiuotvL6ZknHmFvv/cxGNPDrV8f2Ns5o729DTXnGyHm/mStXYOZixfQ+TND06dMZFu374S9rQ2utnXgZkv88TviYqKgUBbcdASASAjmZO+A1vZWWNvYofnKVaoz5GaYNCoS8gIVkhOXITWdpgAQQgghxDwV5uexqGgZEuJjcTg7F1s2Z2ImTQEwfxszN7BFixdBr2Xo59oHHn37obTyHNrVGvi4uGDj1s2IjR/RrWW0Z+s2dsddd6KxuRnurv3g4eGC5gtXcLauzrj/7w/cj08/oWX9zNnkydenANhao62tA4YbLAN4HRsWI0V2voI75iadBAJ+FQAHCLVatOi00OloFQByU0waGQ65qghJK5YjbSWNACCEEEKIeVLmHmExscOQECvD0dw8bN6YiVlzqAPArLm7OrHGi1dhZ2UBd66xzwQMldU1xqX+Xnv9JTz73NJuLZsje/eyGQvm4sKFJghFwJD+g7jbcS1KyiqM+yeOGo6dBw732vPVm0yfOpFt/34nbPllAFvbuHpw8w6A4bGx3C+t3JsGAeQ2Mk9XbzRequcPh+7mSwoSwiQR4VAUFiElcTlS0qkDgBBCCCHmSZFzlEnjhiFeJsFRhRybMzMwa07vGF3dKzL5n554/HH2wfv/glgshJ+3B8QiEcpr6qBVqxEvjcbRvPxuL5P46BiWnV8AsUAAF7c+cHZwRmlZOXTc6RkU6Ic9hw+k+nkHpnR3usitMWPaJLZt607Y2ljjqrodxvUeb4yNjE/Aweyj/OubHtM/wB/nKs/Cz88LFedqe901T343Jo0Ig7ywGKkrliF5JU0BIIQQQoh5UmQfZpL44UiIkyInT4GNGesxax51AJiVL7/4lN1z39/BDIC3S1/YOjqh8XwdLl9th72NFXZ+vwPDR4/p1vJ46qkn2Ntvvwshdxq83D1h72CBxubLuHSh2RgA7oN338CSvz/Sa84RuWb6tInGDgAbWyu0tWvB2M2e2gvY6Pg4HMzOvuEIgHPnKg74+fUfyQcKPKrIx+MPP4D3PvyE6hO5GSaNDINcVYzUxGVIphgAhBBCCDFTitxsJomNR4I0xhhQexM/AmAurQJgNnxcPVk119h3sLVBoL8/1+i/irP8cH/OBx+8j0cffaxbyyE1cQVLX/UyoGewsrfEoKBBOFdxDpdbm7m9FsjMXI+Zc2b3inNDfm369Mls27bvYWtliZYOzU2nAPDD+0fIZDgkzwO7wTFKRTaLkcQjNiYSeUoVRg2Pw/7DOVSvyM2wmIhwKAuLqAOAEEIIIWZNmXOYxcSNQIJEgqNKBTZz7a9Zc2kEQI/3xEMPsHc/uraEXlBAEIRQo6yy2vjzqFFcY+hA9zaG3v7n6+yFpS9CKBDDINAj2C8Y5xtr0Xj5ivFE3P+3u/Dp/31t1ueE/G8zZ0xh2777HtaWFmjV8CMAbhzgTwABGyGT4HCe/OcRAE315wOcPVwr+ddPPPkYe++d9xEeGozCkjJ88O4/8egTz1L9IjfDpJFRkKsKkJK4DCnUAUAIIYQQM1WQl82iZQmIl0qQq1BgY1YWZs6Z0yvufcwyk3nZR1hcwm3gH53a2Yrg7xOMitMn0MYAb08X7Nm7HyEhYd2Wd0V2Nhs3biyaWtog5r41PGQoGi9eRF19A/Rc021krAQHb8FSg8Q0zZo+hW3+bjtsrazQplbzm246v/+22FgckedBb/h1J4GtrQXTaPTwdO2H6rrz3NVgntc76TRMEhUNRUE+khOXIjX9ZaovhBBCCDFLyryjLEaWgASZDLlKuTEGwEwaAdAzuTk6ssYrVyAWCTF4yCC0XGxGZV0dxGIL/Ov99/HAQw92W56PHD7IFi5ajKqqGtjZWCK0fzCa2zpQfuYM1/AHJKHB2PXDwcB+nl6V3ZUmYvpmTpvCvtu2HVZWlujo0HIN95st8SdkwyRROCJXGn/65e5+jn3YxatX4GJvhwtXW254DCH/gUmjo6DIVyEtcSkSaQQAIYQQQsxUfu4RFs0vAyiTIkcux+ZNGzBjFsUA6FEO7P+BTZ4wGVqNFoFBQdB2tOHihQu4otYgJioMyoLibstr2YkTbMSYsahrqIWIAYHe7rDv2w9lp0rRotZBGhOBLz9fjZDwaLMpf9J5pk+ZzL7b/r0xOGVLu4bb8usOgJq6czN9PQM2j4iPxcHc7F+tFNBQVfWUu5/vWwN9vVB/odkYULDhQhPVN/JbmDQyAnJVIVLTEpGclE71hRBCCCFmqbggj4VFyTBcJsPhvDxkbViHufMX9Yp7H7PI5H13LGSr16yHhaUVQgcEoaG+FnUXm437cg8dROyIkd2Wz2nTp7Kt320zFmywjy/sHKyMAQcvt2rg7OyAb7OyMHz07WZR7qRrzJg6mW3dvgOONpZobrvxFICa6qqZAT7+mxPiZDiYk4N/rlzl/OyKZc0X6msCXDy8K7l6xmbMmwdJSAiUJcex5I65+GJNJtU78ltYbFQkcguKkJ62DIlJK6m+EEIIIcQsqZS5LDImDiNipcZ4WlkZazBn/uJece/T4zM5dsxItnffQfh6u6OfkzNOlJZDrdEiPXk5ElNf6rb8RcdEs3xlvrFA/fx9YSkSoba2Ea0dbbASW+HLLz/Gwjvu6fHlTbre9KlT2NYd38PR0hKX1VrAcONlAC0FQjZq5HDsPvAjvvzsUyy5/+8/Hzdm9Ch24MBBhAcPgKr0NNZ99QUW3U31j/wmFhsdhdz8AqSncr8/k7vv9ychhBBCSHcqUMpZtDQW/HLZ2QoFNqxbi7kLqAPA5D32xAPs/Xc/gZubOxwsrHG25iyEYmts+24zxk+e1C15e/yB+9kHn3zGR2SHi2tf2Njao/nSBVy52spHZseH772Jhx//R48uZ9K9pk2dyLZt3wkH62vLABpusMRfY119gIenx5l4WSyO5OUiPSkJiWlpAqU8l8VIYwUDBvqzc2Vn4e7RDxcuXkGbWkt1kPwmfllJWUwUcpUFSE9ZjsQU6gAghBBCiHkqys9nEdExGCaTIlshx4b16zBn/sJece/TYzP5zHNPszdefwte7u4QMQOqGs8jLjIEOarj3ZKnJXcuYGvWZEEIBue+TvBy80BVzTlcuNIKS0sB7py7EKvXru2x5UtuHb4DYOu2nXC0sUFLe/vPS/z9khBC5h/gg4v153Glo/3n7WJrSzCtHt4enrh69QKaWjp+FSOAkBtgksgoKFQFWJm6AiuSaQoAIYQQQsxTgTKPRcXIMCI21jgFIHP915i74I5ece/TIzO5Y/s2NmnKVHi49IOFWIiG+ouIjglDjrKwy/Nz16K5bG1GFvQGEbxd+qKvqwvqq6vR3NYKLWN45vFH8MY7H/TIciWmYeqkiez7HTtha22Flo6bLwMoFIqYhUgAXy8f6DRa9OnbB22trbh8tQ0CoRoiC3vU1tZi9Scf4L4HHqU6SX6TcQRAVBRyC2gKACGEEELMm6pAziKjZD+PAMhavwazKQaA6bK1s2YajRo+fd1R01gPBwc7XLrS2qV5ef3lNLY8OQ0ajQ79+jqjr6MTdDoNznANLKGBYf6cOVi/cWOPLE9iWqZNmsi2Xe8AaP2NDoACeS6LksZye8UQinSwEImgU+thaWXB1VM9GDPA06MfauovUr0kv8fPMQBSkpYjJY06AAghhBBinooKFCwiSoKEWClyFEpkrPsac+fTCACTFDpoMDtVdhJ+Af5oqDkPK66RdKm565Y327PtOzZh2nSuMQWI+O8PGYT62kY0XW42PvGfMHkcVn/00TtefkFPdVUaSO8ybeJ4tnXnbtjYWEPdrobhBssA/iRzzdfszTfeRptWDee+9ujj6IxzFWfR0NSEadMm4eOPV/e4a5zcKgIWGx2BvPxCpKclYkVSGtUdQgghhJilY4VKNjQiBvGyGGTLlcjKWIu5NALAZDEfDw/uvzpUN1zA6dPHMHDg0E7Px+svpbK0V1+Buk0La5EQAf5+uHKlBTX19dBy+wcF+uHUmXM9sfyIiZsycQLbvnOXcQRAm1rN1fUeeZ2SnodFR4Qhv7AYaSmJSEpJp3pHCCGEELN0ojifDQmLxrDYawG1v83KwIw5C3rFvU+PyuRjj9zH3v/XakSFDkJBySn8fcmd+PTLbzo1D9k5h9jtYyajo6MNYoEAvr5+0DEDaqvOQmcAAgK9kZWRhWhZXI8qO9JzTJ00nn2/YzesbazR3tHBjz6huka6A5NEREBRWIiXUpOxPDmV6h0hhBBCzNKxQgULi5QiQRaL7LwcbN6YgRmzqQPAFDEvDxdo1Vo0NV/mGuadm/5HH7ybffTpV7CAGK5ebnCwc8CZykq0q9Xw8fHA2rXrcNtto3tamZEeZsqEcez73XtgZ2OL1o42MIrgT7oHk0RGQKkqwssrU/DiimSqd4QQQggxSyUqJQuNkiBeKkFunhybNmZgJo0AMC0fvPsWe/SJpxE5dAiKjp3AggVzsC6jc4Lu7fx2G5u3eA6utqrh5uwE5359caqswrhPxP3Zvm0zJk6d3mPKivRsUydPYNu/3wVbG0u0d2hhYDePAUBIJ2LSqCjIC1RYlZqEZTQCgBBCCCFmqqQwn4VGRGOYTIZceR6ysqgDwOQE+Hmy6qo6uLi4ov78edSeK++UwHsbM9eyOfMWw8raGi5OjrC3dcKpitPGfRlrvsKCO+7uMWVEzMO0SRPYjp27ILa0hEatgaEHXaekR2PSiEjIjVMAkmgKACGEEELMVpFKwSIipRgWK0N2Ht8BsBaz5izqFfc+PSaTQj74n48HqqrrYe9gg6tX2/9y2v/xxOPszXffg6tTH/h6+aPkdBGYQYjhCTLsO5zTY8qGmBe+A2Dbzl2wsbREh0YDA8UAIN2DSSPCIC8sxktpSVhOqwAQQgghxEydKMpnQyOiESeLRU5uLrKy1mPW3IW94t6nR2Ty6cceYm+9/xHiJNHIUaiQkrgMKekr/1LaV3/2Prvv/sfg4dYPffr0xenSUtj3ccAxVd5l/8AhTp2VdkL+qGkTJ7KtO3fCmu8A0GpoFQDSXa4FASwqRHpKEhKTqQOAEEIIIebp+PFCFhoSgbg4GfJy84xBAKdTEEDTMXvaFLZp63a49euDi01XoTcY/lK6cw//yGKH3wZHGwe4u3mivPo0/H08ceZsXY8oD2LeZkyeyL77fiesrCyh1eq5+q6nekm6A5NFRyAvvxCrUpMpBgAhhBBCzFZJST4LDY1GgjQGOXIlNm3OwsxZc3vFvU+PyKSdtRWzsbZHh6YFGp0eGo3uL6VbLBIyS5EI/v5+OFFajtDBwSg5WdYjyoKYv4njx7Nde3bD2soKHToNmI6CAJKuJxCASaOjkafMR2ryMiSnrqJ6RwghhBCzdPrkMTZo8FAkSGQ4qsjDpqwMzJpLIwBMCQsdHMI10o8jPGwoioqP/YV0C5iViMHXzxdlZ6rg4+mC6roLPaUcSC8wecJ4tnPXbljbWKNdowbTUwcA6RZMGhVpXAUgLXkFklL/2jQrQgghhBBTdbqkiA0MDUeCTIocuRxZmRmYTR0ApuGj999mDz32FAYPHICTp0uxc/t3mDjlzy3Jd9cd89j6DZvg4+GJ6vpaaLUGFBcpERYeY/LlQHqPyRNuZzv2/AAbSxuote3Q603/OiVmgUmioqDkOwBSliMxhToACCGEEGKeTh4rZIOHRmCYTIIcuQKZmesxm4IAmoY3/vk6e+bZ5xAZFgZV8TEsff5JvPza23843efrG5xcPdyb+Ij/QkshGhqbsH/XdoyeMMXky4D0LpMmjmc7d+6Gra0V1GoNdDQCgHQDrpKxmMgIKIuKsDJpOZZTBwAhhBBCzNSpkkI2KJTvAJAhV67Ahqw1mE3LAJoGqSyGFSiL4OfhhoqaOhw6sBsjRt3+h9O9Ki2NLUtKQmhQEErKyyGVhEOuKDL5/JPeZ9L4cWzn7j2wsbFGh7oDBoPpX6fELLAY4wiAAqQbRwC8RPWOEEIIIWbpRHERGxIWjmGxUmTLFcjKWIvZ86gDwCRYWFswt34uaG66CIFBjJaOtj+VZicHW9bR2g5bRwdcudIKHUVWJyZqwtjb2Z69P8DSygoajRoGWgaQdA8WHRGOgqJjSEl8AclpL1O9I4QQQohZOllUwAaHRyFOKoGiQIms9Wsxcy51AJgECwsRc3N2QlPTFagNeuj1f3wJwP/7+H32twcfQ3//QJw9dwbBQQE4VVZp8nknvRMfBPD7Xbtha2MNdUcH9NQBQLqDACwmIhL5KhVSEpcjOZ1GABBCCCHEPJ0sUbEhoZGIlUkhVyqQmbGOYgCYENbf1wc1jXVwce2LmurzfzjNft79WFXtRYQEh+J46XHs2/stRo/9c4EECelqUyaMY9t37YGtjQ062tth6BnXKenhRAIRi44Mh7ygAGkpK5BEMQAIIYQQYqZOHy9iA0PCES+RIlspN44AmLtgca+49zHpTFZVlH/hFzxgSejAASg5eQpL7liAL9Zk/OE021kJmVhgBZGYoalNA2b446MICOkuE8eOZTv37oUdvwxgBz8FgIIAkq4nBFhURDiUhcXXlwFMp3pHCCGEELN0+mQxGzg4HMPjJDiSI8emzAzMmkfLAN5yZ0pPVAYNDPUfOCAYpafLMGHiWHy/c88fTrOLszO70NRkfO3v6YazdY0mnW/Su00aN5bt3LMX9jbWaFWrYTBQBwDpevwqANHh/CoAhVj2wjNY9eobVO8IIYQQYpbKThSx4CERGB4nxZGcPGzcsBaz59MIgFuuvPx0c3DwoD4hgwag4nQ5Jk2bhE3fbvtTac7+cS+zgAiS20aZdJ4JmTJxHNuxcw+sLS2h1mqhpxEApBuIADYkNATHSo7j888+xr33P0j1jhBCCCFm6cQxFRsyNBrD42KQk6dA5oa1mEVBAG+9s2dKtwQEDpgRMmQwTpw4ibEjhmPPocMmnWZC/qqpkyew73fsMgYBbOvQwEBTVkg34EcADA0dguMnT2D+3HlYl5FJ9Y4QQgghZqn0RBEbEHJtGcCcXDkyN6yjZQBNQUXp8eb+A0L6hPNPpY4fx9LnnsNLr73+p9N86UKNU18X7+bOTCMhnW3S+HFs9+49sLaxQkeHmlYBIN2C7wDgf9devnIFlVXVVOcIIYQQYrbKTpWw4EFDkSCNQa4yH5kZazF7Hq0CcMudPnGMDRoyFNFhIcgvPo7yUyfQf9AQk04zIX/VlInj2c6du2EltoKGaaH7E0tfEvInGDsA1B1anCovpTpHCCGEELNVfrqEBQ8MRXycDLlyBTLX8yMAKAjgLXfqWBEbNDQccZHRyFUVoFCZh/AYqUmnmZC/auqkCWzbjl2wtrKERquHwaCnOk+6AwsbPAhqvR6nS8uozhFCCCHEbJWfPt4cNDCkT7xMArlcicz1azFrAU0BuOUKChQsKkoCWXQ08vLzUZCXjShZvEmnmZC/atL4MWzH7n2wsbbin/5Dq9VSnSddTiAQsIihoTh+8iTeenkVHn32eap3hBBCCDFL1WcrnvLx7/9WnDQKCqUKG4xTAKgD4Jbbs2sHGzdhEkKCQ3C87DjO11ZHuXr5qG51ugjpSuPGjGR79x2EpaUNdHp+CoDOpK9TYh7EIiELCxmCguISvPnPV/GPZ1+gekcIIYQQs1R1ruxtP7/gJ+NlUuTI5Vi/9mvMX3RXr7j3MelM7vl+Oxs3eQpCgwagpLwU5+tqAl09vStvdboI6UqTx49hu/ccgFAIGAQC6HQ0BYB0PT4IYFTYUBQUH8Pypc9h5ct/PuAqIYQQQogpqzpb+oWv/4AlcZJoyAsKsG7N15i/8M5ece9j0pncvnUTmzJtNkKDB6Ok7CS/yaTTS0hnGH/7bezA3h8hEIpgAIOWggCSbsB3AEgiIpBfXIxlLzyL9Jdfo3pHCCGEELNUfbY8xdc/KDlWEgVFvgrr1q/FvPk0BeCW+3ZjJpsxZx5CggbhePkpXKivcXbxoGX8iHkbN3oUO3DgAIyr/4n4EQDUAUC6nkAAJomMhKKgEMteeAYvvfpPqneEEEIIMUt1587c4+XX//O46EjIVYXGKQBzF97RK+59TDqTGzPWsTkLFmFo0CAcKy/DxbqawH6eHpW3Ol2EdKWxI+LYj4dzIBSIwAQMGhoBQLqDACw2IgJ53P8El734LF56hToACCGEEGKeaqsqnvLyDX4rNjoCykIV1q/9BnMXUAfALZe5dg2bt/hOhAYHo6SsjNvCTDq9hHSG20eOYD8cPAQLIV/dxdAaaBUA0g0EAiaJCIdCVYTEpc8j/eVXqd4RQgghxCzVVZ25x8u3/+cySRSU+XwMgC8xb9HdveLex6Qzue6br9iiO+/G0KAQlJQfBzPx9BLSGeZMncw2bfseViIh1/gXQs9oFQDSDfgRAJFRyC0owLKlz2DVy29QvSOEEEKIWaqrOjfT09dvc2xMFJTKQqxb9wV1AJiCr774P3b3PX/DkP7BOFHBjwAw7fQS0hmWPfc0W/X6W/Dx9kB93XnoDLQKAOkWTBrFz4NTYcULz2DlK9QBQAghhBDzxMcA8PQL/DxOyt37KIqwbu3nmL9oSa+49zHpTH7+xWr2t3vuw5ABA1FSeprfZNLpJaQzvPDM4+zVN95DnESKHIUcb7yajmdeSKS6T7qUCGBhYaFQFZcgPXUFEpNXUp0jhBBCiNniAyAnxEiRzd1vZ25YiznzF/eKex+TzuSGdV+xRYvvwcCgAThVdgoGE08vIZ3h9ddS2XPPJyN0wCCUlJ1G5NDBXKPsBNV90qX4ZQAjw8JQUFyM1ORlSE5dRXWOEEIIIWapsa7Oyc3LsylBEoMcRT4yM9ZhzvyFveLex6QzufbL1WzxkvswdPBgHD95kjoASK/BN8b6+/igoq4ai+fOx5qMDVT3SVdjUUOHQnWsBKkpy5CU8hLVOUIIIYSYLaFQeC0AckEhNmSswdwFNALglvvwnTfYw08+g5CggThefhoNtdVR7l4+qludLkK6nADMzkoMg0EAL9e+KK9pMOlrlZgFFmUcAXAMaclLkUQjAAghhBBixgQQMn4ZwLz8QmRlrMHsBYt6xb2PSWdyxfMvsJWvvYqhgwbj2KmTaKitinL38qUOAGL2An0DWH19FRwcHNF4qYnfZNLXKjELbGjIEBw7fgJpqSuQRDEACCGEEGLGRBAwiUQCOR8DYOM6zJlDHQC3zPnGRidXN7fmxx9/hL333r8QFRKCAu6mlLs/Ncn0EtLZ7l40l2Vu2AQ3Ly+cq6qmJTBJlxMYRwAMNY4ASEl6Eclpr1CdI4QQQojZEgvBJNES5CmVyFj/DeYtuKNX3PuYdCYffOB+9vGnnyEqJAIFxwtRV31utKe334FbnS5CulrB0SMsKmEYhvQPwsnKcnzw7jt45LEnTfp6JT0eixwaBtWxYiQnvoDU9FepvhFCCCHEnLG4mGjI8/OxYf0azKEOgFvvgfsWs09Xr0NUaAjyS0pQX3NutAd1AJBeQiwQMR8fd1TV1EEsFkKt0Zv09Up6NoFAyCLDQ1FYyI8AWIqkNIoBQAghhBDzdL6u2snV06cpIToaOcYOgLWYu5CCAN5yixctZGvXrUdUWCQKilWoqjzzjm9A4FO3Ol2EdIdhsTKWJ1fB3csV1dU1aDx39mk3P/+3b3W6iNn6eQpAauJyJKfTKgCEEEIIMV/89MdYSTRyFfnGVQBoCoAJuHvxIvZNRgaiQsNQUFSIsorTB/v3Hzjqr3zm5fPVAX1cfSo7J4WEdJ1DuYfZiNjhiAwdAlXJCcyfOxUbsraZ9DVLei5jDIDwMOQXFSM9eQUSUykIICGEEELMl1AAJomJgkJRgPXr1mD+IuoAuOXmzJvDNmVtRHRkJJQFKpypKP82sH/QzFudLkK6i5BrlLk4O6PdoIH6cis0Jn7Nkh6NRYYPRWERPwVgBZLTqAOAEEIIIeZLJBAwqSQKefJ8rF/3NeYvuqtX3PuYdCYXzJ3LsjZuhCxGimxFHipLT54NGDA4gN+3d8dWVnziOBzsHcAYg5AZoGUwrpvO9GoIxBbQ67UQGBi3jdsuYBALrMAEBgweMBgz58xAS5v6P75NcK00uM/66Ucj9t9pEnAtsj4O9rh97BhkbfrOpMuP9Hz33L2IffHVOoQPCsaxU+V4+61/4omnn6F6R7oCk0REQFFYiPTkRCSmplM9I4QQQojZ4pcBjImJhEJZQB0ApmLhnDksc8tGSMJjkFugxNnyU4X+QYMi+X1CiLkmvx7/bqELIBYKoTPo+eEcXDtewO1h1/dcO4rfbrh+ONeOh5+nD9TaDj76FSwtLGBlbckdJ4BOrYGDowNEYiE0HVpYWVmACRnaWtRo1bThfN2F650Nup8+npAuYykUMSc7Z1zRXoUtV08vXW2hOke6ApNERUBRUIjUpOVITqMYAIQQQggxX0JcGwHAxwDIWPsVFiy+u1fc+5h0JhfPn83WZ25GdFgYFEVFKDt1HMGDQgQb1q9nCxbdgYFB/rCxtIGFhRhWFtZcbgzQ6DQw6LlmvNAAZhDDINRDzDXWmVAIxrgGvUaDltaruHixEXqdEHqDnl8DknufnmvQGyDkGvpq3X93HPxExP21EIswqH8Ad7wAp8+UwcLGFh1tbSZdjqRni5PGsBy5EoP8B+DU2VLs+X4bxk2eSnWOdDYWHR6OAu53bWryMiSl0ioAhBBCCDFfIgGYTCJFrlyOjPVrMY9WAbj1FsydxTKytmBYjBRHlHk4V36q0C9oUGTfvi7s0qULGOAfiMtXm3Gp6TJ0zGB8j6WlBXQa/sn8v5vujO/fERh+fvpvPE4khJWlNZhACCF39m2trCGyEMLG2hoW3DuGRkbDwcEWllY23OdpIeSOc3V3w6EjR3Dk8BH0cbCDvWMfVNXU4u7FC/Dl2gyTLkvScxXKFSxCKsOgAHeUn22EhaUA7Wod1TfS2Vh0OB9wtRgpNAKAEEIIIWZOzI9+lMQgR6FExtqvsWAxTQG45RYtmMXWZWxGbKQEuSoFKstPHwwIGjhq5MgR7ODBw5BFSZBXIMfbr6yCu4cb2riGusjSgmvAAxrGYCGyNI4KYHoNmEEENdNA3dYGB+s+mDJtSqCLh1fln0nXM889xd54/W34e3tCw31n3fkL/GaTLkvSs7n1dWRXW67C2ycQZRVn8Phjf8N7739GdY50mv9cBSAteTmSUqkDgBBCCCHmy7gMoCwGOXlKrF/zFRbeQVMAbrnFC+axDZkbEcPHAFDJUVF6HP0HhAji46JZdk4+wkOHoqjkGKqrKlN9fANSujNt/QMCWVXVOYQMHozikhKkpiQhMSXNpMuT9FwH9v/ARo25HX7unmhoboROo4feYNrXL+lZ+P8JSsKHQl50DInLn0f6S69R/SKEEEKI2RIJRCwidAgKjh3D2m++wKI77+kV9z4mnck7FsxjGVmbEB0WiTyVEqUnijFgSJhAEhHOFIVFCBkQhBOlZ6CSH0KEdJigtvLMF14Bgfd0V/osxSLmYGuHNnU72tVafpNJlyfp2YICvFlFVR2GDhqAE8dPY+Kk27Ftxx6qc6RT8B0AMRHhUHK/W5cvfQErX36V6hYhhBBCzJYAAuPoRz7+0Vdfr8Zdd93XK+59TDqTC+fPYVmZGyGNliJbKUf58WMIChkqGBYbzY7IVfDz8sK56mocPbIfCcNGd3teJo4dzXbtPQAPVxdcaWtFaysFAyRdp6767Ewfn8DNgX6+qD9fj5Z24zKWVOdIZ2GyyAjIVYVIWvEiUle+QnWLEEIIIWaLXwVAEh0OeX4hvv5qNe68mzoAbrk7F8xlGZlZiImQIacgDxUnj6P/4JCf0swG+Pui9GwVdmzfjklTpnR7XobLpOxwnhz9+jjg4uWr/CaTLk/S8wX4erKqqjqEhQ2Bqvgk7lqwAF9nrKd6RzoDk0REQFlIHQCEEEIIMX8CCJkkMgRy1TGs+WY17riTOgBuuUXzZrLMzG8RHRWDvAIFSkuKMCA0/OcOAH8vd5ytbcCe77/DuMnTuz0vwYF+rKa2BvYOTmi62Awd05t0eRKzwfy8PdF0/jza9Dro9aZ9HZMeg0kiwsFPr0pasRRpK1+mekUIIYQQs8VPAZBGRkChKsTX3/wfdQCYgkVz57ANWRsRHSWBvECB8pNFCBr87w6AQH83nDnbiIx1X2PBou5ftkEoFjKvfq642HgRzEqIjg6NSZcnMQ8xEUOZsvAYwkJCUXy8BDGRYVCqiqnukb+KySL5eCsqJNMIAEIIIYSYObFQwKK4ex9Fvgpff/1/uJNiANx6d8yfw9Zu2IjYGClylHKcPlmIgYMjfu4AGNjfF6crqvDxvz7Eg488LGhoODvT3d1/S3ekbVhcHDuSk4P+/r6oOFuFcWNHYs/egyZdnsQ81J6rfMrLL+AtGysLeLt7oKyqBod278CIcROo/pG/gkkiw6FQFSFx2QtIX0VBAAkhhBBivoQCMFl0DHLzlfjmqy9wx120CsAtx8cAWJPBxwCIhqIwHxWnS9B/YOj1NAvYoP6+KK04hy2ZmZg+b1635WXxgtlsbcYmDB4UjMbG82huvgoDM5h0WRLzkrJ8GUt9ZRVCgoNx6nQF7Gwscbmtg+og+StYTPhQKIuOIWn5C0h7iToACCGEEGK+hNy9jzQmArnKQnz95f/hriV/6xX3PiadycUL57EMrqEdEx6BvMJ8nCk9fTZwwMCA67uZh4szrra0Iy5WBt+AANRUVkKr1RpzJRaJuH+F0Oq4Aw1aCIUiMIEOeq0eBqEFDLoO6PSAwcAgFOnB9AwCgcC4XyjmY0Jy38B9hEgkBr/gukanhYWNLQoLVVB36ODr6Q4vT0/k5qvwxeqPcc99D5p0WRLzY29lxfhq7urmhrLKauzavgkTpsyiekj+FOH1EQByfgTA8heR9hJNASCEEEKI+eLvfWIiI1CgKsRX33yJxXcu6RX3PiadyYVzZ7Osjd8iPHwo8gsLcfZ06WX/gQOc+H38mtUuTs7g2vBobm6C4Zdv5nPG/p1B9ge/m2tXGT/75w/iCIVi9HGwgbuHB9qaL+NcQyOGDu6PYycrTLociXn6/NMP2b0PPIzowYOQf+IUHB3scOVqK9VF8mcxScRQ8PElkpOWISVtFdUlQgghhJgtvj0ZHRmOwsIifPU1dQCYhMULZrENGVsQFR4BeZEKleWnDwYEDRzF77MUCpidrS369XOHWKxBnz790KFph07PoDPoIDKIoGcMBoMeAqEQep0O1mJL6KDlXushFHBZFxjAHcrtN4AxIYSWQgi0Aoj4CSFcY18kEnCfwe3TGCC0soBBr0PL1RY0/D979wEYRZX/Afy7fdN7752QkB4BK7ZT7/RULEjvIlaslJAOqJyKYqOT0AUblsPeTqWkbkJJ7733zdb3n1lQ73+NlpDN5vdBTDK7O/PevDdhfm9eaW7l9gLcevMUfP3tD0Z9Dolps7OxZP39Sri6uqOmrhafHf4Ad959H9VJcilYXHQEchSFSE1YhaT0tVSPCCGEEGKyhFw8GTthAnILCrBndwamz6I5AEbcrOkPsn37DyHGsDSVAtWlJdU+54YA8C02dtZWkApFaO/pgUZ/tg8AH9jr2X9/3i/k/ur/w/fne+9vzERymFmbY+PG1zBrjEwUQYzXob272IyZc+EfHIy68jIMcjVWp2NUL8mlYFdFR+JEngJJq1YgbR0NASCEEEKI6TLMARAZiZwCBTJ3Z2AmNQCMvBkP3c8OHvgQMYalqXJRVVwE35BxZ9MsEDJnO2u0dHYhaflypL30sqC65EyX3Mx8mUgsqBKLRPm2zh5dF3O81pZ6WyfuMy0NDVHO7u75w5IpQoaYo4016+zvQZC3H0oqqvHcM49h/WtvGvW1TYwSizesAlCIpIQVSF37ItUhQgghhJgsAQSGJZD5oeYZmdsxc878MXHvY9SZnDVtKtv/3keIjuBuSgsUKDl9CsHjz60CIABzsnNAa0c7Nr/9JpY89oRR54WQ4XK6UMHGR0bB08UFvX296O4d4LZSLwBy0Vgs3wrO/SOYsnoFUtZQDwBCCCGEmC6BgO8BEI28kwXI2L4NM+dSA8CIm/3g/WzvwQ8wMSYWR3OzUXrqJILCws+mWShkTla2aO3uwPq1KXghIUXQ0lg1z9nNN2NkU03IlRcXGcZyFKcQ7OeP4soK3HfXnfjg08+M+vomRof7R3ACshSFSE5YjlRaBpAQQgghps1w75NfeBIZGTuoB4AxmPXQ/WzfgQ8QOyECWYUKFJ8sQEh4hCHNIoGQOdo6oLmzA6+/nI5ly1cZdV4IGU61leUZXn6Bcz1d7LmLWoza5mZ+M10T5ILx3eBiI8ORzU8CuHolktfQEABCCCGEmDQ2KZofap6PXRk7MGvugjFx72PUmXzw/qnsgw8PI2ZCFLIUOagsPg2/kPG/r+zn6e6KuoYmvLw2HcsTEo06L2R4dDY12f7y86+dOmig1+mh159dBUKt1hhWfhAIhBCIAJ2GQcjVELmZHM3tnWhpbsKsGTMxLjzcZOrNDEOD2fvw9/JAZW09QsePw+nTRSaTPzK8+IlVoyPCkVdwEitXPo91L/6N6g4hhBBCTJbQMAFyFI7n5WPv7gzMGCMTvBt1JmfNmsYO7n8fUeGROKHIRXlRAQLGne0BIBAImLuLC+qbmrB+XSpeWJVs1Hkhl+bpJx5loSGhOPLVl/jl6D/Q29MHjZpxQb0YIokQKtUgmJ7vEcIF+ecWf+Difej455kCBn6T0LBdAD33k/Dc0g7/afUH7hO495670dXZiqbmZqxOSMC1107J9Pbzm3eFsjsUmLWtOWRSGbrb+1BaUvSjT0DAlJFOFBkVWGzkBOQqCrFq+XNY+/Ir9DuVEEIIISaLf/gxMToSx/MU2LsnAzNoFYCRN3vGg2zfvoOIjY7Gibw8FJ/MQ0h49NkhAEIwDzc31NQ34rWX1uKZFQlGnRfyvzU2NEa9t29P3udHvsQ/vv0OAgmg0TBDIM+4cJ2P26USEVzdnMDF/Fz5M4hEIlhZmhteE4rFEAqEhoBfJBRznzsb7Iu4P2IRd3VzL/A9A7Rabo96Bg33ek9PB3TcCzKhCDq9Hu2dXVDpBFCr1P+SOgEsLCxwx5+ux6KFSxAWEfW0l7fP61f+LJ3f5rc2sCWPP41AX09U1jYiLCwIBQXUC4BcEBYXFYHc/AKsXPE81r5EPQAIIYQQYroMqwDERCArV4E9ezMwYyY1AIy4mQ9NYwffew9Xxcbjl+wslJ4uQND4iN9XAfD2cEFNXTPWp6fihUTqATCaVJeX/rDuxXU3fPH552hs7YBaqwVfqDKJBGbmIjjYOcBcYgYzLsBva+cCdS5w7+7rBvRCaHVqaFU6qAVcMK8727Vfw/79GHyFYIbn+md7Avy2DYbtf+B7DPBDBfhWAntbS0jMzeFgYwd+7EB/fz+YVoOGxmZo9Frozn1GzB1UbiFHyupEXHfdzZh49USjqX/mUimTCvWwsndGfVMrvv/mM9xw021Gkz5itFhcdCRy8hRIWPUC1qxbT3WGEEIIISZLcG4IQFZePjUAGIvZ06exA/sPIj4qFr/mZ6Oi+BT8Q84uA8iHax6ebqita8Qra1PxXAI1ABi7L7/8lL134EPs37cXSpXaUPkk3P88vF1hLrKEUCxEd3c3Wju6oNFpodWfC7fPRvIQc190QiHMxGJIzKTI2LYNdXW1XNzOIJGaAXp+zD/3ZikX0usFhqBexAXCYELDTvTc/kQiMYTcX7lIAsb9/MV3R/D1N99DIpEibFw4jh87iq6+XsPx9OcaD/gGBgtLC9jb2nBBvyWgBTraW9HR3QMdtw+BSARzcwlc7ZyRuTMD19x804jWxfSU1SwxZS2CfN1RWl0PG7kc3cpBuj7I+bCYiAmGOQBWr34B6WtoFQBCCCGEmC6+ASAuMgrZinzs25uJ6TPnjol7H6PO5KyZM9iBvfsQGxOD47m5KC06iaBxv0/axrzdXFHT2IT1aWl4ISnJqPMyVh378Ts2e/48VNU2QqPRGLa5urhCKhPCRipDQ2sL+noHoeIC6bPD8wXgO/Lb2NkgMyMDzU11OFNUhNc2vH1Fy/fUyTzGmASH9u3Fl19/gbKyErR19f/+ukwmhZeHK2RiMfr6lejuGUCvshs6LT8EQYgbr5uEdS+tx1WTrx2pesmsLCwQ4OeD/JNnsH37VixcuIiuEfK/sLioSGTnK5CUsAJpa1+i+kIIIYQQk2WYBDAmFlm5Odi7OxMPzaYGgBE3e9pDbN97BxAbHYcTedk4VZiNsAlxvzcAeDg5oL61HWtSUrE6hXoAGAtFThZLTk7Hx599it8625uLRQgJCEFbbwcG+gfQ3t1j2G4mExve8dwzz6O7vwtvbnz3ksqxraXO1tHZs2uo8vDfnDl5ki1f+SxKThehqLz67Ebut4ezrTW8PAPQO9CF5sZG9A2oDPMLmJvLMP2BadieueuK1s9N725kS5c+jXHBQSirKIJMJkdfP/UCIP8Ti54wAXmFhUhavQppa9ZRfSGEEEKIyTIMAYiJQnZuPnbvzsQMagAYebOmT2P79r+Hq2JicIzvAXAmD0Gh0b8PAXB3c0JdYyteSk/HikRaBnCkPf7Iw2zPnkx092kME/fxyzRaiOQQyQXo6upGc2unoUs9P0nfzDnT8cC99+KOu6eO6nI7+uMXbO78xWioa0KfWmO4ouzsbODu7IyB3n40tbZCqdZCzG2/88+34+PPj1yx/NpaWrK+wT442jqiqa0NG954BU8/9dyoPt9kWLGYc6sAJK9eidQ1L1JdIYQQQojJ4hsAYiMikFtQgD3UAGAc5k2fxnafmwPgWH42Sk+dRFDYH0MAgoN8UVpahaQE7mZ1Ld2sjpSkxNXs1Q2vQtmngoW5FK6urpCJhGhqbkU7FwSLhAJIxWI8MG0qVjy/HKETokyyrL798gj76psv8dbbb2FAqYNYLoGbgzMkQhG0eg1q6xogEEkgEenx7sY3MP+Rx4f1PDQ11Ea5eXrlBXv5oLalHjqtACqNxiTPPRkSLD46Atl5BUhOWo2UtDVUVwghhBBiytik2Bgcz8nF/r2ZeIjmABh5c6dPZ7vfO4SJkVE4npeNM6cKERI24fcGAD9fV1RWNWHVihf48dZGnRdT9MqL69jzqxK5ktBBKhHDxcUdQmjR3NYCjQ7QarS4/ZabkJm5O9rFwyN/pNN7JW3429/Ym29sQAUX9EsFQlhbyeHq6YXW5hbDcoNaPYOtjQW++fIbxE2aPGx119PFgdU1t2NSTBSO5eZjxvSHsG//AbpWyH/C4iIikFNQgJSkVUhOoyEAhBBCCDFpbGJ0FE7k5+PAvl2YNn3OmLj3MepMzpnxINu97xAXvMTgaG4OzpxSIDQs8vcGAB93N1Q3NCI1ORHJqelGnRdTsmvHFrZg8cPgq49UJEb4+PFc0N+Khnou8GdayGUyvLb+RTz61DNUJpzrr4lhR7PzoFExWFmawcbOAhZyG9SVV6Nfr4Wfhxs++ORjxMQO/VKCDfU1U9w9vL/38/VEZ1snuvv6+TkXqFzIf8Lio6KQzf0jmEiTABJCCCHExAkgYHGGZQDzsH/fLkyfQQ0AI27OzBls774D4Lul8k8vz5wsQGh4hCHNfIE52dujpaMdTz/xODa8+ZZR58UUfHL4Y3bP/fcDGj3k5iJ4OnlAq1Whor4RYoEQXt5u2LotA7fceiuVxX+QsHw528P9cqmubYSFXAIHWweYW1qgrrYafSotnnxiCTa+uXnIz13YuBBWUV6KCeHhOJFXiL/cdjM+//IbKiPyr1j8b6sAJK5EajoNqyKEEEKISWMTo6JxPD8P+/fuwvSZ1AAw4ubMfIjt2nsAk2PjcTQnC8WnChASdrYBQCYTMxHEYHoNtEwPjZYZdV5Gu/DgYHa6pARSqRh+fn7g+/hX1NZDpVEhOnwcNm3dgomTr6cyuACfffQBmzFjFnpUgzCXiRAaFIy6uma0dXVAJBTh9VdexqPLnh2yc1lVUtblGxxo4+rsiP5+FXr7e/nNVFbkX7GrIiORpVAgKWkVUmkIACGEEEJMG+N7mmfl5mLP3kxMpzkARt4cfhLAA+9hYiQ/CWAuznA3pqGRZxsAbK2smVLVD2sLC7R2GpaUu+y8VJSd6fIPDLW93P2YkueWLWWvvP4uRNz3Hq7u0DEVmlq6ua9auDs54tsfvkfoH/MykIuwf/8uNm/+IqgG1fBzd4PU3Ax1dfXoH1Thpmsn47ufjw7ZeV08bzbbnrkX/FCA8qoahAb44ExZNZUb+WcsLiIK2QX5SElaiZQ06gFACCGEENNlWAYwOgo5+fnYvWc3ps+cPSbufYw6k3OnT2OZ+9/DNdFx+DUvG8Xc3+DoOEOa7a2t2YByAHY2tmhsa+M3XW5eDAvWy0ViDPLTpRPYWVmzzt4+uNpZwtbRgQtOm9CnVHLn3gqZO7fjrvsepPM0BP562y3sky+/gZlUCFdXNwi5qlxeUweRSIhVzz6P9PUvD8l5FkDIHLiytJDLUd3YgqO//IzJ11xLZUh+w+IjI5ClKEDS6hVIW0NzABBCCCHEpLFJ0dE4npeHffsyMX0G9QAYcbNmPMD27D+EyROicLQgH0UFeRgXEW1Is6WZGdPp9HC0tkFtWwu/6ZLzIuYXpxcK4Ovpi7LqSsyZ+SB27T34b/t74Znn2K8//4SJk+Lx6sa3jfrcXY4vPvmU3f7XuwxnNNDPHxLGUFxZyQWmwKatb2PR4sdMNu8j5cC+3ezRpY+io7sXthZmcHVyRV1TI/oGB3H7rTfji6+/vexznr56NUtesxa+Hl6oaKyFg4012ju7qSzJb1i8YSKcfCQnrkBqOjUAEEIIIcSksYm/NQDs3okZs+ePiXsfo87kvNkz2e7d+xEXyxVMTg5Ki84gaFyoIc1mMgkD00AilEPPRfB9fcpLysvxX46yiddMRoi/P1RqJZQDgwifEI1vf/zu9/3VVVW/XtNQ+dSUG2+DWqUybPvLrbfg869NbyK1O269mR35+ls421nBUm7FBaC9aOvtNUxY19rWbnL5NTYvpaew5NQ1UOm0GB/oi16lGg11DbCxNkdJUUW0o7vrZS2nKBeJmJC7XmytrdDQ2old2zdjzsIlVK7E0A0uOjoCuXkFSE9JQmJKGtULQgghhJgsgUDA4qOjcSI3F7sztmH2vEVj4t7HqDM5b/YMtnvvAcRFReE4VzBlZ04jMHT82QYAqZgxPfdVLsfAQD+YWAitRmfoxy8SCsH0DHr+jlbP/m2/cqkEg2otDNkXMDjbWEIs4/4KdRhUDaK1ow+Mf9xt+Owfn5eYieDv6YeKqgpoNHrAyM/fxYoZP44pThfD09EOQrk5GlsbIdIx7Nm7B/dOm2FSeTVmVRUVP0y5/tobqrjA387GDJ7uPig8UwShVIgPuOvh3gcufejFlrffZA8/9gRCgwJQX1uLHpWar+JUtoTHosLDkX/yJNakrcbqpDVULwghhBBiytikuFgcy87B7l1bMXvO4jFx72PUmZw7cxrbu/8Q4qIicSw3D1WlRdW+QeN8+ddc7CxZc2cfnG3tIBYJoNHpuaBcA4lIwsUzeui0OgjFDIwJwPQCLngSQT+ogUqr5YJbMSxkZpBayYE+LTp7OmFuLoeFuQX3fh10ehGYRACxnkEoFEEqE6FPOQiJWIbaplZoVUq8seEVPPX0c0Z9/i7UJx8cYjNmzATffGJvY89t0aC+pQNODrZobe8yiTyORmkpfG+AFEi470OCx6O0opSrvxrMmzkNO/e8d8nlYmVuyXQDA3D2ckdVbSOSXliGtPWvUjkTFhUZhnzFKaxJScDqlLVUJwghhBBiytjkuFicyM7BrswdmDl3wZi49zHqTM6bM5Pt3b0PV8XE4JecHNSUFlV7n2sAWJO6mq1OXgM5F9jrdDpYWFhwuREaAn+ZRMp91UALPZhGD51AD7GYXzIQ0Ou5bVo91NzrunPHiY+ORW5hvuGzv+FPzL/2HRBzf/XcMf5yy434dAjGZBuDRxbMZ5t27ISMy5e3tzsGB1SobW3FU088gjfe3GQSeRzNvvzsQ3bbnVMhFgoQEBSE+ppaDChVsHOxxqkcxb2unj4fX+w+P9x7gN0/bzb8XR3Q0tWD/t5B7lrQU1mPcXyHqaiICOQV8EMAEpBIDQCEEEIIMWGCc3MAnMjLQ2bmdsyeu3BM3PsYdSbnzZnB9u3aj5jYSBzLyUdteemPXgFBU3573d3DhTXUN8NMbobBQaVhm4gL07XQGr6XiISQSKVgOmZ4ui3gInqhQATIBQjx8sMLy5djxpw5/3YOmptqpogEel+tXtDFmKBLr9NFKfv7NwSOCzfq83Wx7rnrLvbxp5/Cx8sDOhVDZ3cH+lWDeDk1EcuT000qr6OdXC5hmkENvH08odGp0VjfBht7C3S0915SObm6OLKWlnYE+wegtLwcTyxditfffYfKfGxjMRPCkVt4EmlJCUhKowYAQgghhJg0NjkmDifyspGZuQOz5lAPgBE3d9YMtnfPAcTFROFYbi5qKksPe/sF3TPS6TIFf7rxevbV9z8hwMcbfb39aO5oh7O9Lb748ghi4icbdb0Yq5YsXsi2bt8OJ3t7ODrYoay8CmK5DP19AxddXtXlVT/4BPje4O/hhtb2TvQODvKbqdzHNhYbMQE5BYVIS0lAEvUAIIQQQohpYxNjY5GVk4vM3dsxezY1AIy4BbNnsszdB3BVfAyOZmWhqqxY4RsYEjXS6Rrtpt93L9v/wUfwcneBVCxGVW09Avz8UVJRYXT1ob66cplEKvm4ory88vWNb+KHH77DgEoFlVoNpmVgej0/hadhGAg/XwP/lQn4Dj3sj3Ec3FcR/x49g5enO4IC/CAVidHR1YXb/nQH0l8aPcudzZw+le3d/yHsrC3g7OJmeHovlcowODh40XkIDQ5iZ0rKEeIXgNLKUtx+y834+zemMbSFXDz+qomJjkROnoJ6ABBCCCFkLGCTY+NwIicHmbt3YBYtAzjy5syczvbu24/Y6CicyM2nHgBD4JYp17LvfvgF7q6ukAiFqGysh62ZBboG+o2mLnz+6Ufs2WVPw83VCd//kmXYJhCeXd1Bq9PDx82V34I+ZT+EkEAiFUEsEUMqk3J5EhmGfAi4gJ/xwz74XHGf4xsCNFotOjo60NPbCz1j+G2BCDOZECqV3tBI8NyzT6K/rx93TZ2KW//0Z6M5J//svnvuYh8dPgIXFzs42jrhdFER7G2t0dp1SRM2MmszOVycnFBaU4vqqqo3fHx9lw15oonR4xsAYs81AKSnJmI1DQMihBBCiAnj733io2KQnZ+LPXt2YsYsagAYcYvnzWE7MnZjYnwcjmdnobKs7EfvgMApI52u0erOP9/Gvvn7l3B0cYXMTIbyqmr4ernxM8GPaD048umH7Oefj+H1DRugVGsgEou5iqmDtYUl7B0cDBM8iiFCZ3cn97oSnR09GFCr/99EjQL88cD/3xd+/OM9PBH3VyKXc4G/GE5ODtBoGHp6u6BRaTCo0hpm2hcKBBCKRYgJC8cdf74NqeteNqprZfnyZ9n69a9y6beDvbU9isvK4erugsaG5otK5+MPz2Nvbc3E+AB/FFVUID46AsdzFEaVV3Jl8M1kUePDkHv6FBJXvoD0F9dTPSCEEEKIyRIKwGIjo5CTn29YBWAWrQIw8hbOnc127NqNSTGxOJqTg8riEviFBBt1mo3VzAemsvc/+hiuTi7Qc8FtXQO/xrwVOrovbRK5y/XVJx+x6bNmo7dXCTXjV18QwlwuQaC3L5R6NcykMvT1dqKqtpnvv294Yi8SiqHX6+DqaA97Wxv4+AeBX9pBKpUaGg30Og33Pn7FBykGlH2wMrOGpZU5lBo1Ots7YGtri9bWThQqcmBuYYWa+kbDqhBigZhfONJwDHsrKwQFBqK1vQWaQS1qW5p/T7OTvTVuvu4mHDj8sVHUwYQVz7G1L70CB3tb2Flbo7yqBt7+3qiuqLm49EnAzAXmsLEzR1NzG2oqTnd7+Y+3HaZkE+PFosLHI//kaaSsXoGUNaNnaAwhhBBCyMXiOwzHR0YiK1+BXbQKgHFYNG8225mxB5NjY/CzoQHgDPxCQo06zcZo6aL5bPP2nbC3s4dcJkV9YxNsrc3R2XPxk8ddjo8/OMjS0tZCoVAYlmC04AJ3CxsbWMhlkMst0Nxcg96eQWh+f4YvRGRMGBKXr8ZPv/6MZY8/Ue0fFOw7lGlqbqiOamluzZu3YDFqa6vR1tYJPb9cBJ8EoRD+bq6QmptD2atEW0cb1Bo1NIzBktv25NNPYN3ake0Z8Nr6deyZF1bBxdnJMBSivq6JS1M6ViYkXnC6El94mqWv34AJoeNQWl4Ge3sHNDRdXE8CYhJYXGQEchSFSEpYjtS11ABACCGEENMlEAgY3/s1K5caAIzGw3PnsG2ZuzA5Pha/ZOWgsqS42y84hJ5MXoQl8+ew7dw5dLRxMDw1P1NdAVszLvjvv3LB/wNT72GHP/wcamj5bsZwdLSGtb0T5EIRiopLoDXE+wzmMgmuv+UGuNg5InPPgRGrmwrFCZaWko6vjnyF3kGVYRuf7nEB/pDIZGjv7UBbYxsGtfwEhAzXX3MNDn70/o2uTm4/jER6p/71TvbhJ5/Bz9sDgyo1Gptb+c0Xdf4sZFKm0evh4eyK2sZGfPb5Ydx+x51G/fuBDDlDA0C2ogCpq1cgmXoAEEIIIcS0sbgJE5B7shC7M3dgJi0DOPIWzZlrGAIwOS4Gv2Rno6K4GP4hIUadZmMy+6EH2N73DsHd2Q1mcilKa2sN3cXb2zquyDn88+23sr9/8bXhe2szMzjb2UNqJkdZbSV0aj0EAhHMrCS4Zcr1WL0iAbFX32CUZXswcwd74tln0NrWaxgqwDcGeHl6wcrCHM1tzWht7zK8Ly4qEvt2ZSA4IvqK58PS3JJpBpVw9/RAfW0dtFwK9Hr9Bacjc/s2NnfhIoT6+6OiugoifhiF6uJXFiCjGouNjESOQmHoAZA2wr1bCCGEEEKGGbsqOhLZeQrs2rUTs+bQJIAjbsn8eWxrxi5Mio3Fr9lZKD9dhIDx44w6zcbi6aceZ69vfAvu9k6wsLRACRfUOTs4oqW9bVjPX1lJEXvqqcfwxZHvoRfoYSmXI2x8KLraulHZVAe1RgNLCzPccuONeOG5ZzH5+ptGVXlmbNnKViUmoKG5xfCzjbUlfN190NbVgdb2Vi5/erg42eL9Q4dw3ZSbr2jeHKytWY+yH26Ozmhqa4VGo+NXQrjgNMhEMiaScPuxcUBdcwP+9tJaPLciYVSVD7ksLGZCOHILTyJ59XKkrqEGAEIIIYSYLn4VgLioKGQrFNi9cxtmzaMhACNuybz5bHNGBq6OjcGv/BwAZ07DL3S8UafZGGzb/A5btORRuDu7QCoXoaGuETKZDL3K4Xui+/WRz9iiR5agprre8LOLiyN8PDxRUlGJ7u4ewwR7Nra2OJl1otpriMfxj4Sm+vopq55/+vsd+w4afuaHMwQEBkCjU6OyqsawXKGnhyt+/vXXwz4+/ldk6cqfvjrCbrzjL3CwtoWXmytyTp/Bn268Gl99/8sFlfuRTz5md/z1Hjg72aO/tw9KjRZ63YX3IiCjHouPiER2gQLJNAkgIYQQQkyc0NAAEI3s/DzszNyGuXMXjYl7H6PO5JL5cw09APhJAH/JzkFVSVG3b/A4mgPgf8g98SuLuepqWJhL4enmgdLKakAPNDc12Dm5unYNxzFvvfl69vW3P0EMPvB3hpVUhsrGJsNyegKBGHff8Se88+47qe4+vinDcfyR9vwzT7K/vbbR8L2NlTmcHZygYVo01DZBrdfhnr/+BW++sfENL7+AZcOdlpUJq9iLa1/EOH8ftHd2oaO7G3U1tfe6eXp+fCGfj4kIZadOF8PPLwBFZWVIWv4c0l76m1H/niBDhsVHnZ0JNzVxJZLTX6RyJ4QQQogpY3FRE5CTX2gYAjCbhgCMPL4BYNvOTMTFxuB4Ti6qSs50+waHUgPA/yASC5hcIoK7uxuqq5qh1qn5zcNSzo89vIi9s22boYHBxdkFtmYWaO9pQGvnICRSMVav5IKI1HSjrmND6dCBXWxlYiLKSqshN5PA190Lyj4lapobIRUJsSNjB2bOnjfs58PN1Z01NTXCx8sDTQ2NEEikUA4qL+i4//j+a3bDTbfCycYeA9p+9PepueK98GEEZFRjsdERyMkrQGrSCiSnUQ8AQgghhJgukQBsYsxVOJpzApncffqceTQJ4IhbvHAB2759JybGRnEFk4fy0tMICKIhAP+NWC5herUOwUGBKCsrB9ProGNDX8YtLbW+40InVHZ0dcPBzBz2jg7o6e1Gc2c3ZGKxYWx/+rqxO3742WWPs63bd3DnRAk7S0s4cueno6UJ7QODcHawwa+/HkdgyPDOZcGPabKwlMHPyx+FZ85g+gN3Y/+hwxd0zKhJsSz/eA5C/ANQXF6JuNhoZOfkjNnyHEN+nwMgLXEFktKpAYAQQgghpou/X746Pha/ZuUgY+dWzJ2/eEzc+xh1JhfNn8d27MzApLho/Jqdh7LiU1zgFGbUaR4pVlIJ69VqEODtjfKaGsNTeQxD+QYFBbLS0jJIhCJ4ezhDbmUNvss4b/mKZXj5pdepfM5547VX2TPPvwCdTofQwEDIhBLkl5wxvLZ8+fN4+eXh61qfm/UPFhN/Hfy8faAeHEB9SyuK8nIxLjrmAo8pYC7O9tBodejo6EFLbfl8Zy+/jOFKLzEKLP63ZQATVyKJhgAQQgghxKQJ2NXx0TialYvMHdswZwHNATDili5cwDbt2IFJMfE4mpOFiuIz8A8JNeo0jwSRSMC4e3dMGB+Gk6fOgDH9kD/5//C9PWzaQ/OgYTo42srh6emLqqpydPWp4WhljdOlRXbOru7DMsfAaDd7+n1s9/4PDN+HjwsxLNPXp9LAztYSR3/+GQHjhqdXy8Pc9bOFu34iQ8NRVHwaQpEESrXqgo51151/Zp99/ndMCAlCQVEpbpw0Cd8fO0bXnmljV0VPwIm8QqxJTsDq1LVU3oQQQggxWWdXAYhAdv5JZGZswZx51AAw4h5ZOJ9t2ZmB+KhoHM/NQ2lpUXdQUAjNAfBPXJxsWHNrNyaEhaGsogRKpQanC3IxPuJCn/Se39S77mQffvoZhEIBPBxdMKBRoruzG1rutX2ZGZgxd/jHtY92X37xGZv90EPo6lLCxcMNIu7Sq22ph06jx7vvvImljz4xLOfQ2lzCVCoGD3d3VNTW4KmHl+CNLZsv6FgCAZiZVAone0dUNzag6FQBxoVFUFmbKP4fwejwMOSePIW05JVISqUeAIQQQggxXUIIWVzkBGQXFCJjJzUAGIVHFi1kW3dkIDYyAify8lBecqY7gCYB/J2PpzurrmuAn6cXWjpaoBxQITf/OKKiJg5ZuXq4ObL6xjY4WVnAwdEdVfVVGFRrMO3+B/De+4eMuv4Yo8mT49ixo9mQySTw8/BGZV01VGot1q5Nw6qEpCE/nyX5ChYcFQlnZ2tAL0JbWyeKz5xCUOj5h9Ic3JvJHpw5F/6+PqiproaHpyeqa+uozE0Xi50QjpzCk7QKACGEEEJMnojvARAbjazcPOzcvglzFzwyJu59jDqTjyyYz7bsyEB8dCyO52WjsqS42y+YegDwgn08WUl1HQLc3dDb3Y2W/gF8dGg37n1g9pCVqblcxgYGVQjy80FHZyfau3ogkQhRerqw2zcojMrhEr2c/iJbzgVYUpEIbi7u0EOF2oYWeHu4o6a+YcivybvvuJ19euQLhI0LQWFRMbw8XVFb13RBx5FIpUwmFsDJ3gmVdQ3YteltzHlkqVH/3iCXjMVHRiJLoUBy4nKkpo/diTwJIYQQYvr4VQD4nuZZeXnYtmMz5i9YMibufYw6k4vnzWPbd+/CxIgoHM3LRWVZscIvMCRqpNM10uysrVlPTw/c3VzR1d6GXrUWaSuXI+nFoblh3/Lum+zJZ56FVqNBkIcXHyyiT6fGo4vn4p2tmUZdZ0aLtqYm2+Dx4zq7Orq44NoeNrZWKK2shrncHOVlp+919fD9eCiPZ2kuYdCK4e7pjJKKarz88losX55w3rLc8Pqr7OllzyI8KBDFNTWwtzJDc1s31QETJISARU0IO7sKQMoqJKWso3ImhBBCiCljE6MjkZWnwPbtWzB/4cNj4t7HqDO5YN5ctnfXHkTFRON4djYXGBVVBwSO8x3pdI0URb6CRcfHQ6BRw93VDf39Pejo7ceqF57DuvWvDElZ3nLTFPbNdz/A0dYG9lxQWl5Vz68Dj19+/QFXXz3FqOvLaBQfF8GysgtgZyHngnNvro6XgHFnuaK06g0PP99lQ3UcRW4Wi4yJR5C/Hzo7O9HZ3wudWndB5elgbca6lEq42buhsaUJb729AUsfXUZ1wcQI+WUAo6KRnZ+HtWlJSEhKozImhBBCiCljV8fF42h2FvbuycCMWWNjXjOjzuSihQtZZkYm4qKjuILJRnVV6WEf36B7RjpdI2FdWgpLSErhCkwIf19fNDXXo0+pwtZN72DxI48OSTla2liw/u5+BHL7FwoZiiuq4WhthbaeXqOuJ6Pdvr0ZbMbMebC2lMPGyhbtHW0YUGmx6c3X8cgTQxdoh4WPY6dOFiE2Ngw5Oafwp9tuwFdf/nje/SuyslhkfDx83FzR0NYEnU4AvZ5RnTA9holwchWFSKcGAEIIIYSYPjY5Ls7woHnv3kxMnzl3TNz7GGUmWxvrbJ3cPLtmz36I7d99EFER4cguKMCZU4UIDZtglGkeTjdMjmU/Hs2BrY0V7O1t0VTXgAGNDvv37MH0WbOG5Hx4eHix+vpa+Hl7Qt3Xj8aOTphbmKGvXznmzvdI+PzDQ+zOqQ9AJpbAzc0JrW2d6FMqMX/uTOzM3DuUZcD4Rh1zOyvUVDeiqrgAviHnv6bGhQSwouJy+HFpq2nqwPJnn8S6VzZQ3TAtLD46Etl5CqSlJCAxhZYBJIQQQojpEgiF7KrISBzPz8OBXZl4aDY1AIy4ZU8sZRvf3oz4sAgcL8xHY0PNjW7u3j+MdLquhB1vb2Fr/5aO8qpaw8+ezs7QC7Vo4IIv3k/ffIHrb7l9SMovMMCfVZbXwNXRBjomQFN7G2676Xp8+d1PRl0/TJFULmbQMri7uECn06ChuQ3pa/gVAhKHpCwevPdOdvCjzxA1PhD5p8thKRWjT605774ba2qXuXl7bfD38kRLayv61RowvZ7qhwkR/NNEOGmpCUhMpgYAQgghhJguoVDA+J7mJ3LysH9PBqbTEIAro7Gh7h4IGMRC4Q8C7isXU9hqBrXzPHx9Uh564D72+eHPuADVE4oz5aipKj3sOYxDALj9fwyt3tc7MCRqX8Z21tjaBikXIPX2qWApF0HJBT1813ghxBCIAD0XqIExMC7d/N0z/4X7DyKBEIbQiPtBr9fzLxleN/zVc3nkAjsh90ej00KlVHPv0cHBwR5vb96EpsYmw/t6B1Tc5/UIDQiAVqtHTWM9VGo1nF2dcCq/wM7J1a1rKPIcFhzETpWUws3JCf39fYau5zOn34fMPQdGvG6MRS1NjbbhoeM6Wzu7EeLni8bmVnQP9OPHr7/EDbfeNiRlYmUhZxqlFj4+3iiurMCh9/bjgWnTz7vv+Khwllt4CgE+ASipLMefb70Vf//qK6onpoPFR0YgS1GA1NQEJFMDACGEEEJMGN8AMDEyDsfysrBndwZmzqYGgCH3/defsRdf3IDvv/8OZuZmUGrU0Kh1htmn+MD4N2IuVXxsLZWKYG1pBalIjB4uONVqtRjUaM9G2f+WDXbuOwH33b+94WzwzX57H/tj07+8lU+KQCyCkAviNRrNRefxj5T8/58F5/7q/y1Nf7xbxP1sYWEGWxtLiERSSLh8V1RWQcuni3vr4Y/ex1333D9kZRYZEsgUxWXwdXVDj7IP/YOD2LUjA9NmzhwTld9Y1VdXpPj7ByTruEvDz8cTDY2N6FdrcfJkIcLDL38IzAcHD7D7HnoI4/0DUVNXa7j0BlSq8+63uanR1sXNrTPYxxct7c3o6R3kJ4ikumI6WFxUFLLz85GauArJ6bQKACGEEEJMF9/7cVLcJBzLOn5uEkAaAjCkzKUyNqBWQcR972BnBwsrS8glUlhyAa9QKoFOZ+gFwAXLemj1Iphzr+mZFl09vYYIWiSSQMj0GFRx+5BJDbGziF+8Uafn3seH/PwTeP7p/Nkn8iKIwYfbWu4zEgnfKMAfWQgRty+dkPsfF9v3DfRCp9VCqVZDJpPAXC7n9q+B3FzOfcYcUgn/fm6fXLq0ej3fTMQF6SLDzwJ+H4zbp4APz8XQcV/5p/qMi6b4ngwC/km/oVeAgEuf3tCyIOZ7BjA+ZBIY3qvVarj3CjDIBd58M0BbWwc6OtuhV+ug4vfP7cPeygpbd2XgvnvvG9KyWvrwQvbulu3wcXfnzqc5KirLsPSRhXh30/YxUfFHA3MLOVP2DyLELwCVdZVQafQ49o/vMem6Gy+7jHw83VldfRMmhAYj/3QRlj+7DC+/+vp593vX7VPYp1/8gMjQICjOlOK6q6LxjxN5VGdMg2EOAH4pnJSklUhJe5HKlRBCCCEmi38Ue1V0LI7n5WDv7p2YOXv+mLj3uSKZvOu2W9iRL7/BuOBADCiVqKtthNYQsjPo/uWZveGJ+bnH5nygzQfgOnb2dalQYBijzgf1/5yBf37CfvYp+9mt/6EfwP97Qm9taQYzuTkkYiG6e/rQN6A0bDd04+eDeX5IAt+7/7ceA1x6+C79//aY/z/tnO/xz+/jn9L6xxN/If65J8I/f5x/i4e7M1ISUrHw0aXDUj4JiYlsbXo6PFzdDHmra2pCZFw4FNknx0SlH02EQglXkbUIDQxBRVUZRBIxV08HL7uc6qsqUnwCgpL5a0DHVfIBpQoarfaC9iuUiJidhQwS7ipp6upFe1OTnYOr65AMSSEjisXFRCE7Nx8pSauQkkY9AAghhBBiuvhnyfHnGgAyt2/BnAUPj4l7n2HP5M6tm9n8xY/A19UVnd1d6FcpsWjhAri7OcPC0hYifky9QASBSGgY867l+z1zRGKRIVbWa3WGoEej0xsaBPiYWSwUGLroGxau5p+489uh474XQCKRQKPSGLrxy6RyaLnPM36f3P4F55ocNOoB2Fq7YFXC8+jkAn+xQIxBjRKnCgvR0dqKqtoaiKXic8MSBH80Kgj0hiXQRPy++Kf75yL+38b5Mz7BjEsbX5vO9Rzgmzlg6BXA90Y4uz8R33tBLDP0AFCp1JCKpVyaVLju+uuf9vD2eX04yyN11UqWvO5FONhaGc5VU2sHZs+4H7v3vT8mKvxoJBSJGD88JCjAH+XVFTCXy9DZ1X/Z5XX9pInsp2PHMT44GKfLy3D7rTfhiy++Oe9+lyyZxzZvzkB4UAiKyothbWWFjm5aKnK043+FRU8IQ37hKSQlrkRKOvUAIIQQQojp4qI2FjchHFmFBdi+bRMWLnpkTNz7DHsm7W1sWV9PF9wdnNHQ3Y5PP/wAt911j1Gc3NDgIFZWXgqZiAvAuVBddQGzoY9mLU0Nvt4eXpViiQAuTu6orq/FvJkPYdvu/Sadb1MglQgNk+57eXLlVlMLXy83VNQ0DkW5MWtzOexsLFDT2IGiU3kICYs6736FYhEzk4hgY+WAhpYm/PDt15hy8y1Uj0Y3FhMZjjzFSSSuWo60dS9TeRJCCCHEZAmEAhY/IQInFArs3LYJ86kB4PLl5xxjMbGTMc7LA5WtLYYx9d29Z7svt7fU+zo4e1QN5/H/m4bG6mXubj6v+7i7sqbmNki4dPUPqsGMYFWE4WRjbckPrIC9hTkqG5tw/XWT8NM/jpl0nk3FDz9+y6bccDPsrC3g6uaBkrIKPPnoo9jw5sbLKr+nly5lG959F0GBgaisKIe9oxNaWlrOu8/Hlsxjb2/ZDT8Pd+56qoOFmQU6+vqoLo1uLCYyAvmKQiQnrkAy9QAghBBCiAkTCgQsNiIMWYqT2LFtExZQA8Dl+/brz9jNt96JqPBw5J88idzjvyJm4tVGc2K9PFxYc0MbxBIRVFoNPxbaaNI21BxtrVhb1wCCvLxQ29xoGJKgVJl2jwdTc/jQ++zuB+5HsL8Pujs60NzVi0PvZeKBaZc3Y6lEKGQyMzncnRxRWtuAwwf34q/3TTvvPvmRLjKZDPZW1qhrbcWxo79g0uRrqE6NXiwmOhK5eQqkrk5A8hpaBpAQQgghpotvAIiPCMdxRSENARgqmze9zpY+sgyxUZHIKzgFrf7CJhm7Unx9vFldbS3MzczQp1RBr9cZVfqGyvo1aWx5UjK83dzQwQWOvcpBvLnxFTzx5HMmk99vjhxh+bk5sLS1QlzMRMRNniRorq+bMjjYn6LVwzcgKMR3pNM4FNzcXFljYxOixwejuLgaOoEGKq3+sspxXVoSW5WUBl9vDzQ3txnmzBi8gAkBN218nT3y5DJ4ezqhta0DZhZW6GjvMpk6NQax2Khw5OafRHJSAlLSqAGAEEIIIaaLX68tjotT+SWQt27fjEULl4yJe59hzeQzzzzONrz2FsLGheJk0Rm0tTTZOTobz2zhPt5urL6mETK5BFou9ldp1KZa6EwiBGzsHdDW1o7VK5/DmhdfGZV5nTtrNsvKzkZ9bTW6+wcgl0qhUhuGb8CMy6SWX+FRq/8vnxbg2qvj4eLighi+kSA6ErfdedeoOw9yqZDpdXp4e/ugrLIakaHBUJwpuax8yGUSJtQBbp5eKK+qwLdHPsfNd/zlvPt0drBmLZ29iB03Djmnz2Dbu9wvz6Vj45enCWJxkVHIVuQjJXEVUtJpFQBCCCGEmC5+Pvm4iCjkFOZj85Z3sGjxo2Pi3mdYM5mw4jm27qVXcXVcHH7JzkJ52WkEBI43mhMb4O3JquuauIBKgEE1M7oeCkPB3tyCdQz0YzwXoJ0pKsK0Bx/AgYOHRkU+Tyvy2JLFC9Ha0Y6S8uqzizKAXwVCCEdrW1g62EAul0HV2QO5pQVkcinUag1EIil0Oi2kMiH3GRH31QyDyn40NTegpa3LsLrEb4tE8isyONjZwt7FAQf3HEBEbPyoODfcryxmayGFo7MbyiorsfXdd7F46aUvG/nh/t1s6qw58HF2RVNLK3de5ejuP/+Y/s8++4hN/et9cHf3QH1DLb+QB7QmPpeGCWNxUVGGVvDU5FVITqUGAEIIIYSYLr4BIDZyArIUhdi27V0sWjQ8S7Abm2HNZGrKKpacsg6TYmNxLCcH9fXVqR4ePinDecyL4eflyerqGiHjGwC0Omh1pjUHwEtrV7MVCWvg5uKClvZWmFuYobf78pePG067dmxhipw8vL5pK/RcEM+H6XKJALaWdjAzl8PKxhZ6NVDfXMUF7xK093SfC+X/cHZxxj++SgzLRgJikYgL9u2h1AzCydkF/FN0tU6DpoYmDA6q8Vu/gfDQAGx8403c9Kc/G+25+uSD99nd9z0AbxdndA32Q6vVor9/8LLS627vwNp6uuDp5IDKxhZs3/ouFiw+/y9CX083VlXfiHC/AJysKEda0kokpdEEcqMQi42KQE5+AVISE5CSTkMACCGEEGLS2KQYLk7NzcG2bZuwiOYAuHwvp6ey5YkpuGbiVfj1+HHUVJVnevkGzBvOY14Mby9P1lhbD7lMigEugNLpTGsOAIlYzFwcbSGWilDX0IpDh97HvfdONco8rlmTwta/+CKUXCCu0TG4OjvBnAv4LSyt0N3ZidbmFii1On69DvCPmQXcHzOJGPdNm4qBARVkYgnMpFI4urkiKNAHLa3tKC4uQXdXD9RqFbQ6Lb765gfDsf5oIOD2IZPAys4aTK2Fu7sLurr6UV1XZ3iflZkZps+djc2bthjlOUtOTGCp6WvBr91ecPIU5GYS9A9c+sSOp/KyWVh0HMJCQlBTVw1+ZoH+vvM3KhRkHWUR8ZMR4O3Onb8edPcNQKu/vHkJyJUnONcKnq0opCEAhBBCCDF5fFQRExOF7Nx8bNu6GYsWj41hrMOayZfSU9mqpGRMiuZbVnJRXVH2o5d/wJThPObF8PRyY811zZBKZRjQqMBMKGiJHB/CTpWWwd8nACVlJfjrXX/CJ59+ZXT5S01NY+vS0qDignpzqQiOdg6wt7dDS0szmlq7oOefywsFcOK2XT15Iu6bOhVz5i++7Hz88vMPbP97B3Ho0CG0tbZBp2MQioVwd3KAA5eGgUEtahtrDD0D5AIRpt5/F/Yd/Njozh+XZKbnzs+4wBCcLirC+4f24f4HZlxyOl0cHVlnZztc3b3AT5C58dWX8Pizy8+7vwkhQexUSSmCPHxRWleNRQsWYMuO7UZ3vsj/xGLOTQKYsnolUtZQLw5CCCGEmC6hUMCiJoQjzzAEYAsWLnp4TNz7DGsm16UmsYTkNFwdF4uj2TmorCz/0cfPeBoAfLzdWX1tI2QyMZQqLfTMNIYAZGefYHFxE+HsYI+B/gEoNRp+TLxR5W3OrNlsz57dhm735lIz+AX4csH2IJqb6tHHBd38I3p+8sjHHn8Ejz7+1LCn/dgvP7J7Hrgfzc2dYEwLPmEOtjZwd3NHT0c7qltauGBbgKcfW4q/bXzHaM7liaM/s4mTr+XSaouu3i7uvEmh1V/6ZJZ5x39hMROvQYhfAEoryyGWSqBSn79XQU1VWYa3b+BcFwc77joSoo07Z4zmAhhtmGHFFoUCKQkJSKJlAAkhhBBiwvhlAKOjI5Cbq8DWzZuxaAn1ALhsa9OT2eqkVBjGVuTkoLKiTOHrHxg1nMe8GD6e7qy+rhHmMhl61YP85HAmUege7g6sqbED44ODUVhcjE8+/hB/vcc4uv7/+P137La/3AnNwCCsLCzg7+eDxqYWNHe1gu9zbmdvhfS0VDz66LL/mN7m9oYpLg7uPwxnGr//7kv28OIlKC2vMvzs6GIHd0dXNNU3oKWrG2KBGFn5RxEdaRwTBt5y0/Xsu+9+Qui4AJwuKcfSuXPxzs7MS06bK1d/WhvaMT6Erz/leP7ppfjbhrfOu7+7/nw7+/zvX8Df1w/lVVV47OFH8NaWd43iHJELwviVMbLzFEhPWo3EtDVUdoQQQggxWSKBgMVERSI3j18GcCsWLLz8XsajwfD2AEhLZKuT1mBSXJyhB0CVoQeA35ThPObF8PF0Y3X1TTCTyTCgUplED4ADe/eyh2bNRKCHO8rrGmDPBdTtHb1Gka+wkEB2qriM726DIP8AqAcH0djYiEGdHtdNjEd6egqmGNHEeyWKU2zukjk4dizHMGdASGAApHI5ikpOg18xMiYyHLmKAuNIrxDMzsoScpkcjS1taKqrv9HV0+OHS9nVT19/ya6/9TaEBwaisqYCg1ohdBe+QgZzs3cAP31jZ2cntCZwTY0hLI6r09mKk0hLTEASTQJICCGEEBMmgJDFRU1Abn4BdmzfgrnUAHD5XlyTxBJWp2FiTAxO5OWjqqL0sJdfwD3DecyL4eXhxhoazvYAUGrUJrEKgLWljKk1DB6ubqhubEDurz8iIu7qEc1XeUlxV0jIeBs908PJyR5mMjO0tXegTzkAbzcXfPv1dwgKDzPqc29ubc4GegZga2UOTw9vNDW1oqOrAyKRBCd+/QeiJ04c0fQ//tgitvndDPj5eaOkvBLhIT44WVx1yWlydLBhPR19hgkVT5VWIGPLZsx7+Pzdoq69dhL7+efjCAsNxKkzpZh+/z3Y/77xzZ1A/iPuH8EIZHP/CKYnJSAxjRoACCGEEGK6+CEAsYYeAAps274V8xcuGhP3PsPcA2A1S0hag2uviscvWTmoriz+0cs3aMpwHvNi+Hm5s9r6JkMDQJ9SyQ/7HtWF/tHB/ezeB6cjLCgYRWWluP+Be/DewY9GNE/zZ89iO3fvgVgggI2dDSzNLVHX2MivuIA927Zi1qLR09L22qvr2PKVSdCotXA7N1lgSWUlNBoNVi1fgbUvvzSieRGLwazkZrC2c0JNXS3YZTx9P37sFzZx0jXw93BHS2cHdBo1lJoLmyRTKhIySwsz7peqDl3dGtTW19zo5nFpvRHIlSMwTAIYhZz8fCSvXolUmgSQEEIIISaMv/e5KiYa2Xl52Lp1GxYsogaAy/bimmS2anUqJsXG4XhONqoqyn709g+cMpzHvBj+Hp6sqrEeFlI5egeV/KZRXej8UhYyiQQWFnK0dfVxW0a2R8PUO+9gH352BC729rCxsoZS2Wfonh4zIRInChWj9lz/+Y6b2d+PfA9rSzm83TzQ1tGJpvY2LFkwF5t3XPrY+8v1+Ufvs7/cez8CvD1QXtOAyLBQKE6dvuT0+Hh5sPr6BgT4BaK4vBSvbliPZ59+4bz7S054gaWtW48AHw+UVdUjNmoCF1QWjtryHkPYVbFROJGTj5TEBKTQEABCCCGEmDC+AWBiTDRO5OZh587tmDt/4Zi49xnWTKalJrKU5DWYGBOPY7lZqK+qyHT39Zs3nMe8GCGBfqy4rBIW5nJAr0H/oG7UFvqK5c+zl19+DeOCfVFRWYd77/wTDnz06YjlJz0lkSWmpMPP2xM6xlBbW28YR//kk09i48aNo/Y8/2ZtehpLSkwyfB/g64+Wzgb09g4imAuWz5SXjVj+zEVCphMB9pb2aO5qg15/6dd4U0P9FFd3j+/H+XqiubMLfYNKaFQXeo3wvQAkcLR1QENTM8rLijK9/ILmXWpayBXBYiLCkVtwEikJK5GylnoAEEIIIcR08Q0Ak2JjcTQnBzu3bcF8Wgbw8q1JTWJJyemYFBdraFmpLC8xqjkAQgP8WXlFBWTm5ugdGOCXnhvNhW7odi2TiNHV1QvdCPZmWLJgEdu8YxucHOzgZO+I06WlEHGpOXVKgXHjI0fzOf5/6qsqXw8LC3+qq78f0eND0dHTieq6Jni4OqC+qX1E8rlz22a2aPEShIeEoqCkBH+943Yc/vzzS06Lm7MLa2ppRsyEcOScOom3Xn8Fjz/53Hn3l5aWwpJT0hDk442Kmipcxf0O+PV4jsmUvYli8RGRyCpQIHV1ApJpGUBCCCGEmDDDJIDRE5CVp8COrZuxYDEtA3jZ1qQkckHAGlwVG4PjOfwcABWHvfz8jaYBICjAh5WXV8Pa2gI9Pf2jdg6A6vKyjwMDg+/29nFHeVUdrr0mHj//kjUiebn//rvZ++8fhrODPWzt7FFaVgZXR1s0tnWNynN7IRytzVlbzwC83F0gEstQVVuDO26+FUe++XpE8iyBiNk7WkM7qEFHXx/f8+KS0/HLd9+xa2+6GT4+HmhqbgV0OgxqLmxFAIEQzNpcDgdbB9TU1SP7xM+Iuupak60HJoDFRkUYZsJNS16FxNR1VFaEEEIIMVkigZDFR0fgeK4CO7ZvwvyF1ABw2fgeAMkp6YiPicfxnBOoqSw77OUXaDQNAIF+3qyysgauzi5o72rH8heeR1d7B/QiAUTcqVFpNYb3iYUCCMUSaLVaCPl+7HouyJKIodXooNcziERC6AUCyCQCaHV6aJgeTMe9j2mh579yr/Ez4Av4/fKf50IyQ2cDbruAO4SQ26jh9iOWCqHW6CEVAYNKDRj3Yb5Lyldf/v0NL5/AZf8tH7Hh41nOydPwcXNAbVMnf6wRqbyfffQhu/PeqbCxMoebCz8bfRHEIjHU2gteQm7Uuu2mG9mX330PD1dn8L3uW5qbcfNN1+Grb/9xxfM+48H72IH3P8Q4P3+crqxCwnNPYe361y45HR6uDqypqR3BIUEoLi3D6mefQdrfXj3v/tavS2WrkpIR4heCM6XFsLa1RldXj8nXhVGMxUVGIFtRgNTElUhOpyEAhBBCCDFdXCTG4qIjkZOnwM6dmzF3Pg0BuGxpyatZauoaxMfG4kROLqqqyg97+xpPDwAvN0fW2NgBL3dXdPT2oa+vhwue+cn0+OBcBB0XwAtxdmQA/4ed+8OfNL5Lu9bwXt7Z186eTvb/jvHbT4J/+vnsu4SGTwnPbdefe/W3PfCvCLn/67m/MrEcKu3g/yorFuDugerWJng5O6OyvvGKV96840dZ9KTJsLG0hrurC0rKymBnZ4G2jr4xcSHxJkdEsKMFBfB0dYWG6dDc3IoP9x3A1BkPjcQ5YA62NtAN9kMtkmCgX3nJacj+9R8s7uopCPTzQG1dEz+8HyqV5oL2Z2YmYkImgKOtM6qbG1BeeqY6IDDU91LTQoYVi4uKRHa+AsmJK5CaPrKrWhBCCCGEDCuBgF0dE4WjOXnYvn0LFiykBoDLlso3AKSvQVx0LHJzc1BZWZnpZUSTALo7O7LW1k54+bhzAY0ejq6OYAODMLM25ydPA9PxPQBEfN3gTpQEAokQevUg3wua2yzktxie4vNhOt8TQMi9V6vXQCDkn/gLDY0EIr4fNPd2PWOGOfmFjA/oJeCf0TOmNwT+OpUaQn4NN/6dTMS9SYf+ASUXvKlQXF0NuUSCQc1/Drgef2QJe2vTZoQHB+NUSQn+/tlh3HHn3Ve88tqYm7NBjRKRYZEoKS9Dd+/ldT0frcL8/NiZyko42Nmif1CJAaUaI7Eaw/XXXc1++sdRhAYH4ExJGT44uA/3PTjjktNhYS7hqiuDnb0z6hsasPG1DXjymafPu7+tb7/JFj/2BKJCQ1F45gwcHR3Q3DYy8yOQ82Lx0VHIyqNlAAkhhPwfe2cBWNWR/f/vvfe9uIe48eJOSIACbaHUhVJ3o76l3kKLO9S90BYq1G237kapoSEKxF/cDeLP5j8z94b2t7v9LyThkYT57NIk9903LuecOTMjEIx+1GsA07Fj92688vIG3CAOARw8a5YtIUtWrOIeADvZGQBlxVvCImNOOpJxHg7hQf6kvrEFhvAIVNZV8mX93i6ztkovHVzt7/cAgGSjSvvhxSFL4F4FhwvzDLBpP3fv2oq0CVP+a125uzoRvd4B5t5edPWZWFx2b7hxEcGkpKIW0ZEG1NbWoKPXhMK8bMSlpB3RtGTt2kY++eQzvPLKy2hpbUcfyz/7QNK8OMCMLGxrhQJXJwecf8FFWL1yxTOhEVF/u51iKHByUkifyYq0xFRk5efBw9MJB/YPfAV+IBTkZZL4lAmIDgtDSU0lDCEBMFY1DDgNr7+0nlx36+2YmJaG7OxsWPUSbOZD22ri6uJE2F6YkOAwFJWVYcsP32H6qacfEwPsCOPPLQCLF2LZanEGgEAgEAgEgtELu0I9fXw6dmXtxqbXNmC22AIweB5avYwsWrwCx02cgO07d8FYUbwlImL4GAAig0NJRV0NPN3dYFMUtLeNrIPqtv62hUw5YTpiwiNQWlmBiy48Fx9+ZN+r/955cxO58prZCPYPgMlkQnN7Gx5/8mHMvW/+EUlHQX4uufXmG7B1ZxZMFit/5u3mBgv9n6e7N/eq0OkUWG0W/ntfHzuHwYL9Bzq5IYYlihkJvDzcsHbNasy5854hT2deXjbJGJcBR0c9TZMXqhvr8eB9d+KRJ5+za924ODkSK7HCh6ahvrl50B4Zbs5OxNXNFS4OrjDWVOLH777CKaef/T/D/GPLT2Tq9JORHBuFgpJS+Pp6o6GpbUT1tWMD9SAc5gGwfOF8LF8rtgAIBAKBQCAYvcgSyMS08dielYXXX92A624QBoBB8/Dq5WTh4uWYlJ6Bbbsz0VBbPSMgOPTnIxnn4RAWHERqaxuh1wO9Fubzb39X7cFwwcyzyMdffINAHy80th1Afa3R4B8UXm7PNFAll7ADE6MMBuwpKERiUhLy9+wZ8nJ8783XyE3/mIOurh6+tcLX2wceVIl3d/dAY0sLOva3wWwh6O7jLve8YesVGcxtnW3J8PF2h7eXDyxWC6z0WXVDA0y9Zjg6OOLma6/C8y+/OqRpfnvTRnLt7JsRHh6E2vp69Jm4G4hd29eH779DLrnsSsTEGVBSaMTPv2zG9GkzBpyGpx9eQ+6ZvwjR3OBUhbS0BGRlH1pdOzk7EJitCPLzR0V9E8oK9+0fGxvjNdC0CIYetpspI1X1AFiyZCFWrRIeAAKBQCAQCEYvMmRy3IR0bN21C6+9tB7X3zrnmJB9jmgmH1m9gjy4eBmOS0/H9t27UVtlXBEcZlh+JOM8HCLDw0hFZTVcXBzR0d3LHo2oSldkhXh5uvOVbrbSu39/l13T/8K6J8ltt9+H4zImICc7CzoHHTp7+oY0DVm7d5JzzjgLtVTJZ7csjA0Ng6uzG0rLy9DR2aMdnijBRadDxsQMpCYnw9mN1uf+HnbwHUoqymAsL0czVfgt2lYMF0c9woMC4eXpg6KyIrR29NDv67H60RW4776FQ5b+0OAxpLq2GRnjkpGZk48zTj0F3/7wo13rSJYUEuzvjZrmFoRGhKKqrGpQ8TvJDoT+nxtgquoa2KNDCu+T998lF152FRITorC3oBQTMxKxfVf+iOpvxwBkYloqdmbnijMABAKBQCAQjHpkdg1gxjjs3J2FjS+sx43CADB41ixfShYvX4nJ49OwNSsbtZXGFcHhw8kAEEIVtDro9U7o7e2lSvTRuT5vIJQWFbRHxcZ7xhuiUGgsxeqVq7Bo6RK7pp+dW+jk6AA/n1AYq8pQmJ+HuOSUIUvDg/fdS554+ilIsg5x8XHo7uxAQ0Mjunp6oZNlnHrKaZgz51bMuuDCQ4rz+2++JS+8tA6bf/kVbS1t3O8nLMgfod5+KDAa0dbVhfCQYGTu3D7eLzgse7DpL8zNI3GpKQgN9IOlT0J9WyMK9uxGfFK63erJEB5MjJW1CA0NRG1tE2w266DifmzNUjJv0UpkJEUja08J0lMTsCt33yGF6eLkQGCT4Rfgi4qqOuTlZiIldfyI6XPHAAfPAFi6eAFWCgOAQCAQCASCUYzMrwFMxY6sHGx8/jncfMedx4Tsc8S3ACzQtgBs352JmkrjipBhZAAYGx5Eqqgi4uLshs7eThDbyPEAOG/WTPLFl18h2RCJPVR5ra0sn+EfEvazveK/9aZbyOuvvor42HhkF+QjyN8fdY2NQ1Z+TnqF9FptiAoMhE2SUddcj94+K/zGjMHi+ffg7rmLBxVXXnYmue2WG/B7Zg5gBSJCIuDsIqOUlqXVqmDJovlYvnrNoPNz+vRp5LstvyBKO6dh6uRx+GNbjt3a2cMrFpL5K9YiksZfVlGBd99/E1dces2g4tc7OhEHxQx3V0/UN7WyR4cU3oYXnie33HYHUmKikFdcivNnnYtPPrPvmRWC/y/aGQC5WLZkAVasEgYAgUAgEAgEoxdJksik8WlUT83CS88/i1vvuOuYkH2OsAFgBVmweBmmZkygitYu1FRWrAgJj1h+JOM8HJgHQFVNHRwcHVUPANvIOQMgyM+PNLU2w83JBe1dXeyRXdOu1ynEw80NsmxDU2sPfWIZkvjra6vPDwsd+7HVZkVKUiJVMOvQ2NgKN1cHPPfsOsy+8eYhz+fJM44nP23+HU6ygrT0dGRn7QI7EuL62ddh42ubBh2fBIWM8fHkt0o0t7Xb9ayJaqNxU4Qh8rq4aAOKKipxwuSJ+PnXrYOK/5LLZpEP3/8c6UnxyNmzD9fNvgavbnrzkMLUy3qiyBJcXVzQcmA/jsYViYK/hWSMS0FmTh6WLJ6PVavFIYACgUAgEAhGMZJMTsgYj9927cYL657GbbfffUzIPkf2FoAVy8iCZSsxJW08tmbvRk1F+TMhEWOP6BVsh0N4eDCpr2mEg4MePWYTrJbBuUfbE3ZqZWhgICrr6nH7zbOxbuPgFdVD5dN/vUfOu+hyxBqiUGQsxUnTpuHnX34ZdPw//fgtmXn2TOj1jggPC0d5eSk6evpw4bln46PPvzqi+assK/rEEJdwnmy2IiVtHMpLStHa1YlFc+/DmseeHFTc9911G3ny2ReQGGnAvjIjzjjtNHzz/fd2qy8dJOLu4cxVbRPNX3f3kJzTQMZ4uUFWdGhp2Q/rISryyxfNJ8vXPIIYQxhKjJVYNP8+rH54cOUrGDLIJNr2d2TnCA8AgUAgEAgEox+qT7GF6m27duG555/G7XcM/e1gw5EjewbAymVk0dIVmEILdiv3ABheWwAiwtktAA1w1Dmgq7d30Nek2Yu333qVXH3NTUiJi0ZeYQm2/Pg1pp18ht3S7u7mTvp6OuDt4YOGtjZUGfflhBni0wYTZlN9w1i/wACjXpao8h+KupoGdFtM+ObzT3HmuefZLW/sJHRCG0LsWANtE52oqW/CunXP4vbbB+cSpFDlysPdCTrFEU3t+3lUQ5Pi/83EjFSSmZmH6MgwFJdVMU+EQcedlphA9uwtpH0oFCWVlZi/YB4efuixQwpXp1OIi6MOjnodDnT0os86cgxvoxwyIS0Nu7KzsXTRfKxcIzwABAKBQCAQjF6ooEMmZ4ynemoW1j33FG6/895jQvY54ocALlq+EiccNxG/bd9Jlbqq64NCwjYdyTgPhxhDBKkqr4bOSY/OnpFzC8CpJ51Mfvj5Z0RFBKO0opo9slu6v/ryc3L2OechNT4OeUUFSElIQu6ewZ/m7uaoI71WIDk2HkWlpeju60F9tfH6wFDDpiFI9mFx8glTyU+//YGEmChUlFegx2xB3s4dSJ44acD5PG3G8eT7zb8jPmosCkrL8e5br+KKq2+wS71999mn5MxZ5/G499K4MQTtpba08OewqPjpYSH+qG1qhslkPeRwr7vqcvL6O+8hNSkeufkF+Ohf7+PCiy4bEX1vlEMyxqUiMycXy5cswHLhASAQCAQCgWAUw84AOH5COn7bmYl1zz+D2+8QWwAGzdoVK8jCZcuQmpKE/L170djU5D3GZ0z7kYzzcIiMiiDVZdVw9XRBe3vHiPEAyEhNJnn7CuDr4Ylecy/aDtjv+r/k6GhSVlkBQ2gI9lRU4I0X1+Pam28bVPynnXYK+f7HzYiPDEVFWRV6bATbt27FcVOmHLX6uO6aK8nrb75D8xmKqvpaWCz8wsEBp2fntt/JxMnHI9ZgQFmFEZHRkSgqKrNL/vpvjIiNNKDIaMQjD63Cg/MHf2OEr78faWls4kagvH378OL6Z/CPOf/79NSK4n3tETEJnrERYaisrYb/GLaVpW5E9L3RjKzIJD05BbtycrBq+WIsWb5a1IlAIBAIBIJRiyJJZPLEDPy+Yxc2vrQON996+zEh+xzRTM6+6kqy6e13kJaUjOw9+di5axsmTpg8bAo2JtpAKssq4eHpiqa2A+zRsEnb/w83Rz3xpMp/XXMLEuIisaeg1G7plhWFeDo5wNFJj9b9HTBZBudO/tsvP5ITpp2CiJAgNDe3wWQ148svP8XpZ8w86nVhCA0k5TX1SEqIw969hYiOi0JR4cDLWq+TiaJXEODji4qaBtjzADydLBFXd3d0HjgA3zEeaGw6MOi43960iVw1ezZS4uNpGyyAN+1HLfsPzRgVPTaMlJRXIc5gQKHRiOzdmUhLzzjqdX5sI5GJGeOxM3M3Vi9fjMXCACAQCAQCgWAUwzwAJmSkUR01SxgAhor333qdXHb1dchISUZWXj5y8rOQkjx87v2OHBtB6utq4eXpidrGZvZo2KTt73jnzU3k6uuux/ikJGTSMv3g3bdx6RVX2SXd2/74hUyeOg2pCQl8xfe0M2fgu282DyrukIAxpK6hDXEx0dhXUoTnn3ocd9xz/7CpB0WSiX+AN4hVQn1TM3746jOcevasAaXvzttvIevWbUB0VASKS6vw9FOP4u5759olr/GxBlJZWQsfH080Nbehz2QekngddDKxWmyIjo5DYUkhtv6xBVOmTv+fYddUlT4dEhZ1d0SIHypqmhAXGYbCsqphU+/HKGQSmwQzs7F6xRIsWrZK1IdAIBAIBIJRi6LIZFL6OGzdmYWXXliHW28TBoChghjCQmCsqsErG1/AjYN0Fx9KQkMCSENjO/zHeKGmjq3IDn8DwMsvrSM33Xo7ogwGfmd9fVXV9YFh9jlXITU5geTlFyAxOhp7SoqRl5+LlOTUAZfZW6+/TK6efQviI8JRWF4OZxcHdHebhlUdLF+wgKx86CEkxkWhoLAMDooO3daBKc9/bNlCpk4/CfHRBhgrynHuWTPxz88+s0t+/f19SHNjK8YlJSFrzx72aEjivf2WG8j6Da8iKS4e+YXFmDQpDTt2ZB5S2K5OOmK2yvBw0qOtowvWEdD/RisN9TVeAYEhbVMnTMTWXTuxeuUSLFoqDAACgUAgEAhGL4oskYnp47Ft1268+OJz+Mc//vdW1tGAXQwA3l5uOHCgC6dOOwHf/vzrsCnY9NREkpe7Fy5OLugw98JmtQ2btP0dHq4upKOrG35ePmg70AGzbWhWcg8JBcTPwwsmkwn7aRowyPYTHhhIqurrMSElFTvzcvHee+/g8suvHHZ1EOTrQxpbWpExfjx2ZmXhy88+wtmzLhxQOh0dHYm7kwOIrKC7qws9Q7QS/7944vFHyP1zH0R6ciqy9+ahrrZmfEBgcPZQhC3LIIEBY9Dd0Yf2zk4c6taGa66+krz51jvISE5EZv5e7N6+A+nHDfygRcGgIRP5LQA5WL1qCRYtWSnqQiAQCAQCwahFlhQyafw4bNu9Gxs3rMfNt8w5JmQfuxgAxnh5wUpsMPda0NnXPWwK1oUq05LNCpPZRhUzPTq7hk/a/g5XVyfipOjR02NCcHgQSkrL7XOQ3L49JCohCWFBgaitq8dZp5+CL777cXBX48kSSYqOQUlxKbx8PFHb0jpsy1/WSyTUOxi1jTW0Dtyxv6tjQGnNmJBO9ubkICQsFCVlFeyRfeqvMI9EJ6RgXHwisvfuxfy59+Dhx58ekrinTs0gf/yRiRMmTMBvu3Zh8cIHsHrto4cUtgyJhAf50zbVhNiUJDz/5NMwlpdA0ckgNhvbmwWrzQKLldDfbfR9BTqdA/3Myg7tpAO3pN7hQt+1EZld50qf0ndl+lim/6HPCB17bPSZLPGP+Bs2+r5CP2fhg937yL9JeDiEWbroNySimjKIjcUN6BQdLDaWBhYx/dDK4qdhyAr9x+JnNjIJNplHAKIoPC6FBkK0uNl/rBZ2EaOVh0Nj0eKh4Uo62KxWHvef5UPfoelj/1hcHJoYljWJvs/yxvJJrDYteJsWETvSlJaWrPB8WVm4LBH0uzpWLArQ09kLvaTAw9cT1r4eXD37NiTERiG/uAhrViwVBgCBQCAQCASjGonqIselp2Pbrky8vGE9bhIGgKHhovPPIp988jUSEuKxt6gAX3/+Oc44+9yjXriL5s4lax5/HMmxscgvKsJt/7gRL7z4ylFP1//C2VFPvDzc0dLWhuCgIJRX1dolzR9/8A654NIrkRwTRxWEQnz7Na3HswZej3NuvoGs3/gqJjOrW1Yu3nv1NVx+w+xhW/7eXu6kt6cT/r7+qKgd+HaR5599itx5172IiQxDUVkVnnpsDe6dt+iI53vvvjySmJCC8eOSkZWTj6svvQRvffDhkMS7Y+tvZNKUExEzNgzVdbVwdnZDa3v7IYXt5KAQWa+Dj4sHapua/qL6qqhKsgrVWWHVfu/Xp/sjIX95Nlz5X+n7a17/6/f7bRV/+30JtkMqATUlkmb06I/b19sTXp5eKKmoxEp2C4A4A0AgEAgEAsHohhyfkY7fM3fjpRefx63/uOOYkH2OeCa/+vwLMvPcmXD3coJi0aG1sxPffPERzpw5MBfqoeDl59eTm+6YA3dnZxDJgs5uM3s8IiqcKgEkwM8HjY2tNP0u2N9jH68FQ2gIqWtqQOzYWOSWFKqH9d1178BPxFd0xMXZEa4uDtjf1oMuc++wLv9nn3qa3H//vYiIiECJsRx333Ebnnn+hcNO84fvvE4uufI6pKXGIze/kBlC8PxL9jE8Mf0x1hCO4ooqLFvwIJateXjI4vVwcSBWqp37eHqiqrEJ5aWFOWOj4tL+1/fiDKGk2FiDhNhoWPrMkBz0cHNxpu1cho1YIdnYFgMFNq4as9V2qrJa/1wjV1iH4K4A6t+E/iERG19xl7mKy1a91WV/mYdp48v6Nr5yrvDwWWiqYi3xlX0bW8qXuVsYuKIs9Zce80awqv4BkrYizz600UC0d9XoaPgsKOZyQH+RJLbiz1b6CVe7ZfrTTOPXyTLbdgR1YZ6oaWE/malDUvNttZpVTwdNWVcUmV9JKSla3ojqtSBzbweJ54Wln3lcMe8Imkoah0X1GuApJLAQB/q5CXr6HVkhMJnMsJisvOzMFhOqqmuwdMl8LF05dO1DIBAIBAKBYBhCjs/IwO+ZwgNg6COhUjuTjxOiolFZU42+nl4qfOu42ysT4G1UkNbR361MfmYvai67zL3VSlQBm4mvChWoLZrgzOCrfkzIJpocToVp7ofb787LXGOZAsGUAr3MhWWT2QyZPvNyd8EYXz8UlVfAx8cDra2DvxbtSPPH1l/J1Ckn0nT7ormlBXfdfhueXXf4SuhAcNZTBY9WTdAYf1RUV6Oxvm68f2DQgPaQ//jlZ2Tm+efDn12H19CEm2Zfjpc3vTfsy59CokJDUUMVJHdvd3Z15MDOAaAapDNVck1mK06ZNh2ff/e9XfKuc1CIs+yAzt4eXH35pXjzvQ+GLN7HVy0nc5csR0xEOIyVlYiPZq7kh3ZlopeHK2k/0MVX+BWq2JqZyz3r94qqTDO4wm8jfy6j035P+N/kYP//99VxGf1jhKqj/zsKVBd8mbnIS6r7vpWNFf3f+481+z9XzPlf0p+faslQ42VjkZZuRSJ8XPs/6enPj7YG3w/5j0zIfGvBX15QFX4et/Tn6G1Tn8k8n1J/UlWjB4/rP70C6PBL0yzTsZHlmSr/9G8XR2eE+weioMyIxYvmY9UQGogEAoFAIBAIhiFkMjsEcHcW/vneB7j48kuPCdnHnpnk0ntqUjxfOSs2lnLxt6/PTBV79QW+w5cKuIqereppoqsmWDMl3sq+wfbi8hVBVZSW5f6QVflYoWFYrBaqSCgHhXuuKFAUqnm56l35XfNuLm4oq6qEi4MO3SbLiKjs6VMyyJatmYg1jEWRsRw5O3dh3MQJ9lEeJYX4jvHE/q4eeLm4or65ecDxPrZqNZm3ZAnSE5KQU7QH77/9Ou1w1w77OshIG0f27dmDoMBgGKuqYDvEw+7+HTdXZ96qPZzd0djaCovNape8zzh+CtmyfTscaP8j9F+fachvXCDhIaFobWlGd5+JrbIP+zoV/Ak7jyFjfBp2ZWVhyeIFWLn6IVF/AoFAIBAIRjOE6aa5ewowY9oUbP5l6zEh+9g1k16ebqR9f6e60idLcHF3hdVqg8VsU1fCqFLCXFdtVjNPGnfRZX6xXJGXVSdgfqAWUd1qNa8Am5Wt9qsutuw95nrLD+uSNG8AdkAYWx2zWmCzMRda7vKP+JhoFBSXjJiKvvTCC8gHH3180ADwxisbce2NN9sr/cQ/wB/729swacJ4/Pr7jgHHe/K0E8iWX/7AGF9PNLS0oaKs9JmIyKh7hjKxR4Lbb7mevLzpLcSERyC/pIQ9GlAZRI4NJZXV9YgMC0axsYqZqOxSh9MmTyS/78jkHiTt+9vQN8SGL4MhhNRUN2BseDCKSqvx8T/fwQUXXz5i+pcAZDLt2zsys7F08UIsX7VG1J1AIBAIBIJRC/MPzxifil1ZuTh9xgx8u3nzMSH72D2T8+fdS9569z00NjZSxd/K97nyE7dlbV+uTeL7XdlSP9sDbOvfQ0v+zRlX3ZLLXW8PugNDdfcl1v+Mt/+ALRc3Z6xavhz3z31wxFXwLTdeTza88hoiQoJQUVOHD999G5dccZVd8qGXJeLl6YmmtnZMmTwJW7cN3ADg5uJEXFxc0HngAAL9/VFWbZ+DDAfLpx+9S8678CqkxRqQXVSKXzZ/g2kzzjzstB83MYPs2JWJ9NQUZOXksXZpl/xPTB9HMrPy4O/rg7aOVvT1De0K/VeffETOPv9iJERFoqi0BNExUSg8xG0AgmEBOWHyZPy+bTuWLnwQK9aKLQACgUAgEAhGNWTS+FTsyMrFGSefhG9/+vmYkH2OiUyOFm646mry6ttvIdYQjSLjwFegD5cvPv6QzLzgckQawlBpLEdCYgLy9u4b+AGAEoi3tzf6enqYVwgq6ge+ncCefP7h++S8Sy5HYowB+cVlMIwNg7G86rDTPikjnezI3I0JacnIzMmHtu38iDNpfBrZmZWDQD8/NLU1s8PkhjxenU5H2L533zHeaG5shckqtgGMIMjkiRnYsWs3Fi1kZwCILQACgUAgEAhGMxLJSElEZt4enHHKSfj2R2EAEAwzrr/2KrLpjbcRPTYKJeWl/UcfHHHm3HILWb9hA8aNS0Fuzl689uqLmH3DwLceSHw7gQ8aGlpx4dln46OvvhoR7fDxNavJ3EWLkRIXhb3FRsw6/0x8/NHhp336tKl8C0T6uCTsztnDHtkl/1O458FuhIwJQHVrIzs0c8jjvXX2dWTDpjeQmjYO+Xl5WL1yGRYsWjoi6lcAMnXiBGzduQuLFj6I1WsfEfUmEAgEAoFgFCORCeOTsSsrD6dMPxE/bvn1mJB9jolMjhZuuPoa8upbbyLWEIXiCiM728Au9bdswXyy4qGHMTXjOGzN3D4ow0PW7kwyPj0Dk9LTsGN3NrJ3bUPahMkjph3qoZDo2HAUlZTj6qsvw+tvHP7tBTPPPJl88c1POI4fuJYDq53OADhoAAgMQFVjA7tOb8jj/X3zd+T4GafDMNaA2poKePr4orGhacTU7zEOmTZlIn7btgsLFzwgDAACgUAgEAhGOyR9fAp2Z+XhpOOn4OffxSGAgmHGTddeTV5+4y1ERRpQWl7xlzu/jizz77+XPPLEU0iMicOe4kL8seUXTJ0+bUBx79z2G5k4+QTExkZSJboCjzy0Bg8+OH/EtENHBz0JCw5EWUU1Zl97JV59/e3DTvt5s84mn372FSbQAScnfy/MZvvcAjBpQjrZuSsLQWwLQGsTzEfAAMBg1w06KRLcvHzQWNdotzMOBINElsiJkybi1207sWzRg1ghrgEUCAQCgUAwuiHpqQnYnbsPp04/ET8IDwDBcOPaKy4jb7z7PhINsdhrLGKP7FJ/a1csIwuXrUBKfBzyCgrx5Sef4Jzzzx/4GQA6iRgCg1BUXYtF8xdizcNrR0w71DnIJNDXH9V19bhw1hn46LNvDzvts846mXzx9WaMS4pHzt4C2Ih9PABOnHIc+W3bdkSEhqOppQnfffctAkOC9zs7Ot8THByyib1TU2G8JyTC8HRFcVG2k4vjPQEhET8fbjzXXHYJefP9D5nHAbZlZuLqSy4B/XvE1PExDJmYloKd2XlYtXQxlqxcLepMIBAIBALBsKahoXas1WZOCw6K+ORwv+vm5EiiYmKRk5eHycelY9v23ceE7HNMZHK0cOUlF5J3PvwYSZGR2FNWyh7ZxwNg3v3k4ceeQFxUNApLS/DTt9/i5DPOGHDcMmSSEh+DnIJCrFm9BosWLxox7dDf14t4unmitLoKiTQP+XsKDzvt45LjSXFJESKDDdhXZoQV9vHkOHHKZPLr1m0YGxiCjp4DaNnfwZ/335DRj4veEd2WPn7TxkVnzURTSwOcnFyxv6MLNlsf2rt6+Hf6+rpB6BcjDWMxa+Y5OG7qVASFhm555823pi9cshyxYeGoaqxHT5+JBTti6vhYxUUnkYjoKOwrKMETjz2G++fNE3UmEAgEglHBskULyIHOdirb6PktYzqih04BrBYTZNmBS2KBQUFoqq/7j2ddXVT+oc8O0J9MnLHQ3xX6ZTZJSuz6MRAoih5WAn5pOVvXYbebsZvMbVTKY/ebWS0WyA4Kv71M4qdhsZfZ5eXsgXrtuazTQWZXolus/D2rTCDz29C0TMjqLzaLGRYi03doXLDwq9GsVgl6+n32BuEXo9HvSmo6CL9i3cau9AL9Is2/xIU/xUZTJ7H3FPqOet2aLMs8Dp4HSZUOWfwszTZJTa+NnV5Nf1dvYLNpV7OpERNZvYId7EY2+n123Tuh/ySFloJOj/473WzsuyxNso7d0w4HRz1MZiYRq5/L7PuyjcehV2i56BU88sgT9KcOZrPlMGtfUutIVq+bVy//s0GheXB00FE5NhxFxaUIDQ1FWcXhH+49EjkmMjlauOqSi8jbH/4L8YYoFLJDAO10evxzjz9K7pq7AAlREdhbWoZvv/gMZ8ycNeC4FZ1Mgsf4UuWwFakpcexgwRHRDv/59uvk4quuQ1JsIvYU7cX6p5/BnHvuPuy0O+h1xIkOQs6uLugy9aKzs9cu+Z9x0hTyy8/bERTkR8dqBXpnJ3i4qtcx2tgkxa7dpBMUG3t7rSa0t+5Hn9X2X8OicyYd8vk08F8/d3VxgLubB3q6u2Cikw2boNjkJykKzCarOinRiYo9Y0cg6NkszOYcCx3s6SQhEW0yUQj/nf2zsGtCAX4tqE7iUyw3QPBrRNmESdjgTicJ9h06YVq1+0D5O3zyYp/raTh04maTMQuLsAmNfp9OpCz//FpSYjt4FSn7MpuM2RWlbMJk+VbneokZbvi8x7ohSxN7rCgyzLTMdHoqYFhYDITv1JEVdlWpet0pmwxlJhiwOCVtkuezO31Ow2WTr8T+phMiEybY57KiTlo6iZYZEyZsXF6gQoiF1waRbfw9lj9wgQC8jK00DInmiU38OlrGFquVCxYsf9a/XKzq6uwKs6UbHm7u2N/RTfPBypuGbzLTCVLh77DydKJ1ZoZWPlAHIDaHs/ZEtPBkVk+yKhTZaHxcqKCCEUu0zIpM5qKPmh9W/kxggJpvNtFb6Us6qAIVD5OFz4Ueics+7D2bVbsaluVVywZ/zspPz0qEpt9qOyhY2WxW9XMb+552TyxRq5i1fVZvJisVzoj6O0sh4cKNhYlQ9JnCv6CjYZmJhf6UuGBoo0IIqyuimdFkWj8WFhcrACq9EFb3vMFIavvk99SqbV6ikVltNv5Ov4DGCk7WhDEuBP3l7lsrr0Mq3PEME15/rB1YaH6YUMMyw/JtpvGzOuN+RTa1LbDPWK50vB1pohBR+65N60MsXtZ+WLws/wpv/loP53lkQhjNP2s/ilpXtoPhs7xpAi0VrvnVvVCFO179rK+zcqEpZO2XlQjLu9qBWPtV+ydrM5LNcrA9sTi4EA21/bMi4eMAGz9oGnjj40K02o4U1rN1Mu87/B1WT6zfsfzQ9s/GNy6u8gHBprYB1ko0IVe2ybxcWRtg4Vp5+Fo5QW2HstQvPBIWjZp32sfA603mbY1nSNbKgyeR5oWVK82rpKitBQfLQG1LCh9DaPthmeTlTvh40N+XWN9l9cu+z2taUnscH994nydw0jvw+rXRtmxj+dcEXVkmfPxhwjvvfbypEbVv9tufaXh6vSN6+nq18Yl9Lmtji8Tzo9D2zduvOgRqWoY6VrNgdNoHXDlQ1H7u6uSC9q4DNG2OcKDCf3tXBx8HWCiOVKA/2nXMy060s1HXztjGSktvH/wDAtDc0szjs1j/epl4P+pc9n9/A3w9XeHj5UvnBTOaqCzU090NLRXqxCGr4yQfpokqK9gOfq6Fw8Y+PldowrraFFQFm/TPb38uwdi078r484pz/qmmlPP6Ze2I1b2sKrNMsebBcBFKVtuhrEpo/RM04QNs/3gKXq/QZCKbFhdX9rU5l2hZVGUqqb8SeOJYW1L6mxwvBiaL2fDnG+y5xNPK+gVrbzab2hL7JUa1z6gShKyN8ywsVp+8aFj/4nKEjoZj4Qm0atP2+MRkKiOo7VNhmWZZsdi4LGUy27h8YzX1aXKdwo0GvNzp36z+9bRsWB+3SWp6WPDsNjImD2/bkYkZ0yZj8y/bRoROMliOiUyOFpgHwLsffoT4qCjsK7WfBwCPSGau796oa2rBzz98j5NOPW3Acbu5uxBmdXT3cEVNfSsbKEZEO1yzdDlZtnI5kpMSkL1nH377eTNOOGnGYaedisfE1dWVTlIyDvR2o7fPYh8DwPTjyeYtvyMiOJAKIDZU1zdzZe6vyNo/LqrTX3R08GRKtQP9aeOKkwxH+rdCBQBJsfLBX9Hr4OsbiI7eTjjSPLHJu7e3ByaTiQp4OpgsTNoz8QnZbKF57mrn32MKpQ66g0KFlY7ETDAhdCBnL1tp6iSiKTxssrUy+4CNnTHAZxoLS7uVt011QmLam6YY8olTkg5awrkAIqsWbCagQJuUFa6Eg0+SLB4bV0TVyVCVq4hqeZfUiY9bxxWFK5Gq2iqpFn82mTJrMhNNdKrCZ6GCg/oFmgdN0GKClZUp+GaacJ3EDRXcsi6pihLRFHs2QXODxEH/DFlT7CX+uWpwlzQhUxVe+4UkNmmr4pftoHIn0TSx8lOFS7YIoApPMjcEOdPqscCf9m+mjFpsJnR193CF0NRn5ZOlzBVUmStx6sSqKXeSqrhygwUTSi3qLM0MKZp1hpfzQcOKKn3weuKKoKQq87ImEPAcMqGGrX5w4Ufmqi4TTJlh5aAwJanCCi8MouaJaNITa0eKThWMuCJtU4Uwq2aMUBx0qtbLbSw2njYuC/OYwAVvWQ1dE0+gtQ1NWQXRVkOIJmxJvI8QbmzpF4aYImvlRhRoAjY3dNDy1TvreD0Qq5kLKFwIUv4UmNQEs+/b+OqQzWbTZDlV4GP9iSkCXBHRFHNV2lQtXVZFrX+bFh4PRlINDSweXj/cqMUyZuWGKG75sGrioPRn+1PrROJCIF/pkdRVG0Vrb2oZqX3Nwtud2kaYUE6s/flRhS++WgTVosXLVTO0sfBZHhWoAidLm2pwsfE+x8LmAiLADXeEDUy8MavlyZUoJqz2Gz50qs7FjSQ2tVso/StSUAcEW/+Uw/olV5hkaHYubtxhyWYGJJ3CDBcWLlD3KzlWrjCqY0j/qpiqSIIri4QLsf3vqeoEEzr7DTGs/GTNvthvX1XDUE1y7JFeUQ2c3MbI+gf7m4aro+FaVG2QN3ipv93YNIOYZjxk9cDGFFaPVqtFzZ/MylNS+zJXAlWDk6SNc3zsYQoga6+yatQkWt+xMcMqMxBTAZsJ1EQzAsraIp/NovYjFpgLHU9YvdloP5To+yb6tpurM51DHOBO570uOuexMjaZzVQxazvqdSxpY7toZ6OrnZVWVfHwg/39YabzW2BgEM+ziSqHCh+n1Tmbz5QsDEUzLLNxh4bX1dfLx2cmpzGjp4uzA5yc3FTDi6SWg46nRaFjH51z+ADGvAn6IDnoedPhsgkPV11gsfKhXRvjAc3g22+oZ98lfOzrn865Ik8DYtOqXlEVZlOPSQ1DVvg8wAws0OQbG59nNOOBNkfxOpJVOYAbABQmgVp5KyeaZwKLQ53fZF6XvLzZmKyo86tqALKp8wTU48ckWR3HuTHDpspvbI5lcy6fP2XNqEQ0oYP/X+JBMBmPhyFpix1Q5woLW9Vnf7J4WT+TVcOxhcqSEu0jbHEoc1eWNj+rffUv9i/026D/RA1bWz9Q08LmVtqOLMD/CYf3Hyob0LYyIvSRoeCYyeho4NILzyeffPoFxoaGo6iijD2yW/0ptLd7eXuira0N11x5BV5/+90Bxx0W6E8aW5r4QN3d08d0gRHRDmdffil564MPETnWQMu/Am+8vAHXXn/jYafdQa8nnh7ufOXd2ckRrR1ddsn/SVOnkl//2IagYDoRmrox55Y5aNrfgq6uNhzoMXMlp6WlBXXGSkhODqgor0QfHXitXM+mk4FNHWzZ1GX9i5zz11VKbSwH+c/o1c/BVn30moL9lxVETdjgkwCf5lQliwtlVqKtMtDXFPYfWVVooApLfAVDUhUeljhZkTWhia18m1ShR1LVdU3/UBVNLUEHLd+qrMM95IhmPFBN7xIXDHgwqjWAr95w5ZRN6vjLxEPUSV8iqkCpfqAqyTJXum3cTVBdJeYRgK93M2GKhcXTYlUV/f6JEaowxwVKqAYaHk+/YR79q7hq+eoUSVvVkfmk3f9O/wTJp2fVygBVraWTt4UZCSQ46lyoom1SDSKs/OlszQRUJgCr+VeNGERzXWRCgk5WhUbVEACuJEuSWm7M0MSLTlI9H8BX2dRJlyt6kmp0sXGlVhPytBmdCy/Mk4MLzqoMwRc+NBsCL0+oq2P9wrsq1uBPAUSrV9j+ssIjqUI4V4iZeyET+lSrl6owa4aUfoG1XyfvL19u29DqmVhtB9tN/wqI3G9cklT11qLKvwc7hawud6teKURLmmZE0ZrbwXgPGrBYvvhzppgQzQuA6+yqi6mk9idub8JfjAKa/ajfO5MpHWYQbXVJ81ogOJg51dihNRQunBFVVtVWq1ShVxWeuReD1n76hwK+qqJJZZIWlo0LnX8pX0lVmPrrVBVT1RVPorrqqEqIoho/VOOTViY8W6pUqXqxaIK0VY2737DFKpSPLyCatwrUMlEUbqRiwr6OG0+sB2VxrnRx4wYOpuPgCpm2TKa2n/72L3GFCFrb6x8uuJcHW820qQoQH0s0RVHmy1XqmCfJqtXK1i+x9teXNpj015n0Z8vV8i/x9PF00sRbyF/Kkq24EVWwZwZGhahlS7QVYKusDhZaspmDlSrca22H9PcfTZGU1Mapjkjce0kda7XqV+tAWzHvT6s6VP5Zj/8ulPM5RB1Oodcf/Trm+otoZ6Ounbk5O3F3eHcPD9TV18JshWAUcNllF8HJ0VnzfrPx/qt6Tqp92UHvgl5zL+8fXD4gqqcda4w6nZ63E7aIxAwX3V3dcHRwop+bETM2CvOXLh8RushQcUxldqRz8XmzyOdffIFg/wAY6+rYI/sZABSZhAUFo7mlEZ09g9vT7eftTZrb2hAdHYHikopBhWVPPFydiE7nQJUkPepbWwa0BSNr53YyfuIUJERFYl9pCb774hOcPnPgByoeDjNOPJ5s/vV3OLm40AnZhq6eodt6sHD+XNLR3gG/4EBIZubyK8HBQQ9Pb29k7toBveIEZzcnvPDSRrg7OkHSa6suirrvjFmaD+424L9olmltpVCd+PkyAVUM9Jq1Wl1lYG6IqmFXx4UvK3eNBFe01dVYVUPjKyJcqVBdv9QVSVVqUPi2OIkKdgQ9ZrYiQzQlVXO51xQZ7v6oU9PM1yaYNMskC7ZCwjVFKy1bPZeUWNyy5orHvsuEPjbpOLK88jhV1clktvCJycpXz5nQJHNBqX+llTti0p8mi4X/5Cv3rGSYWz1buVBdG7gg2B+vqoOpeZU0fz2iuZeb+/r4SrDNpqaZeUFYqNKvSCwNZnWSlDVhjTm7KjIvZ242YVm0aEIcF1CtXBnlrnpQlT9Z9bjjSrHNZtWs/JqhhbvvmzXBTTOySGpdcEVRE07VFTnw1YR+5blfgJW0VTqiaruqe7+kRqro1VUc/qnmTfGnZqsKjHyVRcf2cBK+LYLL2Ip00BBl698rKeOgBwb7yVxmddo2BbW9/nUFQjVkKP3CPDd8aF4kNJ96vjVEc6Hv6+F1oSiONN9mzQOCKgyyJvj3S83QBkbNaKJ6dtA6MBN1BZCXraK6SEIrY0nSHEEkbUuERVW8Wf0r6lYIJwcHtayhrrDxbS6Kusql9Bs7NOOTthlC246gGaK0PMqyttdUs8r0G5sk2md4HbM2rlMOCvBmHpWF9ylWT9qiFe+/fOVTIn8qGpqRie2H5V4zVuvBfsDqh2irjpqaxj/v37Kjo+WqrobZNEOSxOuLcCOUWV3UlXHQO0HdnsNcmRXVaENUhY57JdD4zBbN5ZX9YxKmyaoal7StSbzpEaLVdb8a2L9VxapVparosnanummrWzpUTweoW5GI6vEhEdWjgpW1TlGVMG441KleJhazSe07Sn8nA2/obKyx2ky0f8joowKtg6LT+omNb72ymtVxjBneef9i+5etRNsepSrBLD3MA4iNpeqgK3NXd1YvrIj1eoX2AW38herRw/csc8VQYQf8wsfXn3scsVVyPnbQ0NmYwvqbngrezJBsYv5btFyzcrKOeh3zeUG0s1HXzn744Yd+Sy26e3tBRoicKRDYC9EhRhCnnzKd/PjTL4gxGFBQZl8PADbnBAX6o6erF/4BPigsKR9w3Nv/+JUcd/yJSEtOQHbePjz/1BO44977h31bdNTriJ/vGDS1NfPJsM98+K5Ca5YvJYuXr0RKUgpy9+Rh/TPPYs7dd9kl78dPnkC2bcuCs5MznXzN6DX1DfsyFwgEAsGxS9HefBKbmIyMlBRk5uXh1Q0v4IZbbrPL3MXsWn4+3mhua+f3g//4yx8Dilevl4i/tze6e7rR1tHLHg37uXfyhHSSmZWL0OAQVFRV9O8oPyzm3HwDWb/xVSRpV0iXFRUgMjbeLnl30CvE1UEPnaMjmlv3CwPAKKSpsd7Lzz+w/WinY6QiOsQI4sILZpHPP/8a45MSsSMnB4uWzMOaVY/ZpQ7dXJxIn8kKHw937O8+gN7ege+Tqa+rPj8wKPTjOEMoCo3ViI0OR1FJ5bBui++9/Qa5/KprkRyXgPzCfXhl/fO4cc4dh51mdhXf1q3bER4RioqKWhTsy0VMQrJd8h4eEkBq6xvh5eaGXqsFnZ09w7rMBQKBQHBsk7n1V5IxZRpSE2ORu7cQzzzxEO6+f4Fd5i4nvSMxyyZ+Vo1OUdDVPTCvubNOOZV8/eMPMISHwFhZg/fe3YTLr5g9rOff6IhQUlffCkcnHUx9fejsPfwFg1tvvI689MrrVG6KQ2FJEWprG7z9AvztorA5OeiIi6MONqJDe2cnezSsy1sgsDeiQ4wwnBwdSGBAACoqqxEdGYLismq71OHZp84gX/2wGfFRkSguLeNepYMJLyUxnuzdV4yxoaGorKtCaWnxivCIqOVDlNwh5+JLLiH/+vBDREcZaP7LUV5WmDM2MjbtcMM58fjjyO9/bIePuyc6zCb09dhPCdfLCvH19kB7Ryf8AnxRVVUv+r9AIBAIhi2lhXvbo+ISPZMTkpBfsAdLFjyAVWsftcvcdfN1s8mrb21CgE8AapsbUFRUiNiYuMOO++dvviYnnXUW0uPisbugABefNxP//PSLYTv/NtbVjQ0IDjYmxURjX0kpxlC5oaGl/bDTm5YUSwoLy+Dp5QU3d0eUGGvslmcHBx3x8XBFR1cf2+7IHg3b8hYIjgaiQ4wwvD08iaebK1Wa6xDg74W6hja71OF3X39OTj/rXCTGRKGwuBQrVy7HokEcmPHRh++TCy+5DOmpycjK3YuVyxZjyYqVw7Y96hWFODs68JNhvT080Ny2f0BpZbv5Qvz90d55AC60Hhsbm+2WZ1nWE19fd7Q0tcE/cAzq65uGbXkLBAKBQJCblUlSx2cgKT4ee6jyvHblEixcusouc9eSRQ+QVWsexbjoKORQRfjNNzfimmtuHlDcLm7OhN3s4e5K5+C2Vrbnf9jOv+eceTr55vsfERkShuLKcnz6r/dx3kWXHXZ6FVkmvm7u6O7roRq5Dp0d3XbLs4ujIwnw90NtXS3SMlKwfXvOsC1vgeBoIDrECMNRp5CggCBU11RjXEoiMvP22qUOd+34g0yYNBXJiYko2FeAk2aciB9+2jKouHWKnuhkKzw9/NDS0gDLMG2PD8y7nzz22BOIjYxEYVkZHntkFeY9uOSw0/r915+S0846D0kxMdhTXIybrr0WL7/xhv3OcZBADKGBqKhqQFhEIMor6oZleQsEAoFAwKgsL9sUPjbyugA/f7S2NWHNsqV4YMkKu8xd1TXl94SGjH0qLiYKRcWlmDZ9KrZsGdg5AJPTx5MdWdkwhEfASJXqJQsWYsXatcNyDnbzdCHs1E4rUa9j6+k7/K0PdXXV5weHhH6cnpSMrLx83DD7Ory86XW75Hfrbz+QKSeehoy0ccikZf7tl1/gjHNmDsuyFgiOFqJDjDDYYXxsJdpmtvJTqS1W+1mRFUki/v7+6O7pgourIx3gWwYV9ysb15Mbb55DFWsDtzLHRUSgoHTghwseCapKC7Kj45LG8TtnLTZ09PT0Xyx22Nxy3dVk4xtvIyEmBoVFRSgzlr4eYYiaPaQJ/hvWLl9CFq1agwnjkrFzdy5+/ekHnHjyqcOqrAUCgUAg+HdiDaGkoroejrIMdodIT59dD7AlUREhaGhSry5u3d85oLjzcrNIamoGEseGo6K+HmaLCX3D0Atg3XNPkdvvvBdpCcnI3peP+++9G0889cxhp/PO228jz617EcnRMdhbUoTm+lqDT2Bw+RFI8n/w0rrnyK2334kJKcnYlZeP337bghNOmD7sylogOJqIDjHCeOLhNWTBwkWICAtCRUMTTIM4jO9wcXTSE3blma9/IOroBEbIkExexMvdFUEhIdhXUISVK5dh6VL7WPcPBVdHHZGIjLDQYBSWV+GSC2bh/X99PKD0sevDPTxc+ZVpHZ3dVAAw2y2f/3rvbXLx5VchKDAAtfUN7NGwKWOBQCAQCP6OlFgDySsyIjw4AFUNDWC3j9orbm8PV9JLlfXgMSEorSoHBnD9bz9erm6kq7cXcTHRyC8owOMPr8Dc+cuG1Vys0yn88DxvT19U1NaiobZ6RkBw6M+HG874lHhSsLcAPp4eqGvvYNcN2i2febt2kJQJkxBvMKDQaERBUT7iYu1z2LJAMFIQHWKEsWrZUrJkxUo6sEWgqKICn3z0IWadf4ld6vGaqy4l777zARIT4vlpvI8/vIpOXosHFfetN11PXnr5NTbBo76uBU0dB5C943ekTTr+qLdNT1cnsr+rF6lxCdhbtA8Wwm+tHlC6CnLzSHxqCpKi2TaCSsRGhmBvSYXd8hhrCCflFbUYM8YbtY1N7NFRL1+BQCAQCP4XY3w8yf72/XT+8kNTWyssZqvd5q91zz5N7rjrHoxLGYfsvBy88eoGXHvDLQOKf/P335IZp52JoJBAdLd08Ot4u4bRdbxhIYGkrq4e4eFhKCuvxplnzMA33/40oPTpHPQkwNsXDU0NOPH4ydj861a75XPjc8+Sm++8C+OiY7CnpBiFBXsRFZ84bMpZIBgOiA4xwph7z13k8aefxbj4JOQU7MG655/B7XfcbZd63L3td5I++XhEhASjpr4WcdGx2FNYNOi4x3i5k9b2DsTHxWBvYTEUHWC1HN22eeHpp5GPvvueu6+VV1Wis68PWzZ/h+kzTh9Qus6bdRb59LOvERUWBmN1FX777VdMPf5Eu+UxMMCH7D/QCYlI7D5c9AzgSh+BQCAQCOxNTEQ4KauoRHBoEKqq61BfXX19YGjoJnvEXV1VdU9oWNhTY8PYNoB6uDi7oKWtY8DzZ3paCsnKy0NSbAL27itAjCEChcajv/Xx7jlzyDPr1yMuyoCm+kZ0W8zo7TMNKF3PPPUQue/+BUiJiUN2USF+2/wTTjjpZDt6qzoTR8kGFycXdFn70HHAfocPCgQjBdEpRiCOOh0J8PNGZV0Trr/2Krz2xtt2q0dPd2ciSzro9QraqdJusg6NJV6RJeLq5IjgwCCUGCtAdARWs/1cxv7KxNRUsjM3FxFhY9Hb04WG5mY8+9SjuOveeYNJDxnj5Y6enj64u7uivtk+tzcwairL7wkJH/tUSKA/6hqacNop0/DtD4M7wFEgEAgEAntw5x23keeefwFxkQYUlhlx2UVsK95ndpvD/LzdSWd3N4JDwmGk8dsGKTs7yHri6u5A5SkflNdU4YJzz8XHn31+1Obkl194ltx0213M0wI+Xl4oKqvCN598iDPPv2hAaXL3dCc9Xd1wdnBEH5V5TMR+HhsMCY7Ew1OB1cR2rZrRZ7LfVlmBYKQgOsUIxN3JgbBVXFkno7fPApPZfoPbvXffSZ5+5jkkxsZgT1ExXn1lI264cWDX4vyVl196gdx0623wdndDSGAgioyV9KkVObu2ISFtot3ylxgTSYqLK+Dn50HL2RWFVdW49uor8cZb7ww4DfPm3kcee/xJRBnCYKyown333InHn3zObnla//TjZM49c5GaEIfcfYV4YvVq3L94cFs3BAKBQCCwB3VVFecHhUd8HBboj6q6Rtx642y89Momu81hr298gVx3821IS4pD9p5C3P6Pm7DuxZcHHP9Xn39Mzj73Qni5OmCMXzBKyo04/aST8d3PA3O3Hwyff/k5Ofecc+Hq6IjY+Fhk5+TB3dUVB7q6BpQWY1lxdlRk7LjxqcnIzM3HtOMn4Zfft9stX8XFBSQ2NhGhgX6oqWvArHPOxidffiXkHYHg3xCdYgRy1mmnku9/+BH+Ph6oa+sEsdnPulppLN0UERV9XUhQMOrrauDu5oq2AwObKP6dhx9eSebPX8q2BMDPxx/Gqkr0ms1Y9MD9WPPoE0c0jzVV5ecnxid+3NHVi5AAHzg4OqOsqgrp6WnIzMwe3HWHUIi3tzsUSUHT/nZYh8hr4lCZfvwJZPvOrQjyDYSR1ll1RdmK0IjI5fZMg0AgEAgEA8XNyYHIigSdooPFigErqIOA+NB5nNgIurq6YRrkCf6PPvIIeeDBB6ms4wk3Vxcq79QhOTEa+XtL7JavnX/8QiZOnQZvV2cEBwSioMwIFyrTdXQOvGzHj0siBXsKEBQUTvNkRGFhDmLjxtktT7fccgPZsOF1RIUFoqymHk89/hjuue8+oesIBP+G6BQjkPfffotcdtXVGBcfi5yCEnz8wXu44NJL7VaXKUmxJH9fEWLHsgPtKrD+2Ucw5665QxL/808/Ru64bx6cdXqEB0Wgo6cTtc31dIJyx7fffYdJU6YMaT7raqrTbr3pxqwvv/4WioMegWO80dbejo5uE1LHJSM3J39Q8a1dvYwsXLwCsVEGlJYacfIpJ+P7H+1r5Q/19SJ1Le1wd3PCgR4TbHa8OlIgEAgEgsHi5+1JDnR2InjMGFQ0ttB5zL5u3ZdfeC756POvEBUShtLqSpx/wSx88OEng0rDjddeQV554134ervQf/4oLi+Ho6RDbU2Vt09gUPtQpf2/ce9dc8hzz78InSQhNDwUVRU1UJz16O7qGVSe2FXVKQkxKCwphcXM/DjtK2+kJscSY0k5PL08UV0vDjwWCP4O0TFGKGyQ9XZzwYGuHgQHBaGyttZudfnPf31ILr7oEowNDUNTSz2I2YJuy9Dt18/c/gvJOG4a9DoJfh4+sMpAS1s7HGgU5150Hi696FJcdPllg4rPaCz65NKLLj5v1+5cfiheRFAA/Khgkb1nDyw24IH77sWjTz416DwpUIiHhzNcHR1Q3dTKHtm9z9HiIwmJidi7dy+mTT4OW7bZzx1PIBAIBILB8uiq5eSBJcuRGheP3MJCfPHx+5h5gf0WPjRIoI8bJJ0jlX3aYBkCY/qyhQvIirUPYYynB8b4B6CCbX8kVixbshTzly8d8vxteP5pMufeeVQ5t8DNxRFhoSEoKSqFWWKSwuDyc+Wll5B3PvgQY8NCUVFVi4/++R4uuNi+deTt4076uvrgTOXHPpqnzs7BGTQEgtGK6BgjFH8/X9LY1AI/T3c0dXQCdrxjleHp5knMvT0IDPaDsaoe6598CLfd+8CQpmH6yVPIlp+2wt3BGZGx0aiurELLAdUo7uvji4iwIKxduwZnnnPeIcW7e8d2smT5YuzOykJdXTNv/JHBwfANCEFxWQHa9nfAw80Vm3/6ERmTJg86L+OSUkjunjykREUjr7ocoT7eqKprsms9bVz/HLl5zl2IighGaUUtHluzCvMWif3/AoFAIBg5vPTsk+Qfd92H+EgD9pUZseTBeVj1yGN2ncuuuPhC8s9/fgJDTCRKi0uwaP48rHx48Gl44qE15P5Fi+BBZR0Pb09AllBdUwedApw/6yI88sSa/VGR8V6DiWNvfg45d9YslJZVwIEqx8lxiWjd347y6lrMOHHw1/Q11lePDQkNM/qN8Ud7Wyt6TBYQYl+5NHv3LjJ+wiQYwkNRVl6Ji84/G//6ROz/Fwj+G6JjjFDuvuMf5JnnX0RMeBhKqGL81Wcf46xZF9itPl995UVyw413IGFsGOqbGtDW1c0eD3n86556gtx+//08aEf634T4WLQd6EVHVxvY1YF0huEubGwPnU4nw2YjcHF3A7HZ4O3pDX+/MdiWuQvd3X1a8ujnTq5gV/ooMkFDeyvaW9tgMttwy/XXYcNrrw9JHvJ37ybJ6emICgpFI01rx4EuVJSWbImIij5pKMI/VJwd9cSBloubqxvqmlpAi0f0eYFAIBCMREhcWDgqaqugd3KicoD9V3dlSCQoyA+93Sa0dx6AdYi21BXvyyPjJ05AZ2cfxni6w83LC91dHWhsbqeTtoSYGAPOOe98nHXSqTh95tmHFOc3n39KcnLzsHT5CvSZzXBzcIB/YADaaLq79/egz2rCNZddijff/2DQefDz9iBNbR0IGeOLmrYWPLZqFeYttO9iw31ULn6SysWp8THILSjGxheexc233SVkHoHgvyA6xgglN3M7nSymIH5sBArKjbji4ovx1gf/tGt9Ojs6EovJhKTERO46f/app+CrH348Iml47snHybxF89HbY4Gzgw7RkbFwdNLxa/Xa2vejq+sATCYzbGDXB9L/Ehu7qoe79/t4eWLMGG+wsxLdXB1R29iM/c2t6GMv0Dfuuv0feHbdC0Oabnd3Z2LtsiDaMBa5pSVYvGAeVj/06NHobyQqLAylVbWIjQ5BUUml6PMCgUAgGHGcNuNEsvWPHfDx8URNUwsqS8pfDxkbNtueaZg+eRz5ZVsOJmSkYWdmNgxhATBWNQzZvLpm1VKybMVqWCw2hAR4U5nFEyZzH+obG9FjpRINfa7IMjxcndg1zLj0sktw8vSTIdEUrHlkLbr2d1KZLB7f/bgFVhvhYXq6usDfPxCuzg7I21sAdgxxsH8wvv/+KySlpg067Ruff4rcfMe9iA2PQGlNJfQ6HXr7zHaXNfSynjg5Ak46JzR1drIFIiHvCAR/g+gcIxgPF1diIWY46BzQ2dEJi53r86cfviMnn3omIgL9uKZd0dCAH7//GqecdtYRS8fzzz5KHl37BOoam+g8yCY3Ag86qTk5OqHXaoOTkx7uju6QdXpYrWb09PSgx2JCR/t+gE6aFpuN7ctHXEw4brz5Ntz/wNBuW2BMmZRBtu7IRJwhEsWVVWAnF1tMJrv3tQX330UeeuJZJMfGIr+oCBufexo333mP6PMCgUAgGHFs2vgSmX3zrUhLSEB2USFWLFmAZcvX2H1OU2QQR70DAgMCUEbn+FVLH8SSlY8MWTqaq2tmn3Xu2a9l5eyhij2Bo4OMoMAgsPP03FxcUVldhdaODpC/fEdP5QyrldD3JaoIS/Dx8UZQQBC6urvR2tqCpvYD/D03Rxf867MPcPoZ5wxluREfD3d+fWBFQz1+2fIzpp14kl3rpaq0JDssKnpcXGwUiotKYYiIQGlFhZB3BIK/QXSOEcwpJ00lP/78B1ISYpG3rwgfvvMWLrnyarvW6fy595KHn3gaKXGxqKqvRXdPH0x99lF29+Vmkw0bXsaLL70IK50kTSYrf67XyzCbbf/n3dCQIBx/4lRcd/mVOPv8i45Y+tY/9QSZc988hPn5YH93Fw509qCmynh9SJhh05GK8+/QO+qJbDFjzJhANDe3oM9qf4u8QCAQCARDQWN9zdjAwFBjUIAnGpsPwMJ8/qz2l2Pfem0DmX39rQgNDURvXy/qm9pQsDcL8YnjhzQt9XVVJ3356ceb771vAQ5QeYLh7e4CSZHh4eIBV3c3ODg6QeeowNrHjty38q2RNmJCd0cvmjsOcM8AhciYed4ZWDh/CSZNmTqkafT28SBtrR2ICgmAsaYeGSnx2JlXYPc6WbJoHlm15jEkRsdib0kRHn94NebOF+cdCQR/h+gcI5iivfkkNjEZcVHRKCotgcEQhjJjld3rlN1IoHPQISzQH8bKOkQbQlBsrD7m2lZtTeU9kVHRTylWAv9gOhlWVmPl0sVYumK13cvCWFr4syE6cfqEpERk5edh2olTsfnXP465OhEIBALB6MHX25V0d/Qhhso7ucUVqK83XhAYGPGJvdMRFOhL6upbEB8ZhYKyUshU07YdYZfzjS+sJwsWzgdRJH6ukMlk+T+fq6ccqYzx8cZ5s87AFVdcj1PPOOOIpCt9XBLJ27MPkWEhKK+tQ1+fpT8ZdsdBrxAnBxl6xREtBzqPWjoEgpGC6CAjnEB/b9LQ2E4no2DU1tewR3av0325uSQhNRWBfmPg6KBHRU0Drrz0UrzzwXvHTPsqNZaQKEM0XJydER0RjryCQgT4+aO+qfGolMGpJ08nP/y8BZNS07Ezezfyc/OQlJpyzNSHQCAQCEYf9955O3n6uXUYF5+IvMICzJp5Kj7+/LujMrdRPZxIig7h4YEoL6+GQp8ZK6tWhIaGLT8a6bEna9csJ4sWLcfY8DB0duxHc9sBPPPYw7hr3ny718UvP31Ppp18GhKjDSgsMSI5KRY5e4qEvCMQ/H8QHWSE8+qGF8gNt9yGhOix2Gcsx0OrlmHBwhV2r9eFD8wlax99HLGGSHT3dKO6vp5OEGuxcNHCY6KNeTu5kLbebiTGxqLYWMoP6jEfzQNodCCRgRGoqquCj+8YNDQeHUOEQCAQCARDClW8A7w90N1rQkdPL1v2Pirz2x+//EimTjsFbs56xERHoqC0Cj3dR+ZGpGEIcXdxho+HD5X3ajB37t145PFnjkq+Z546g3zxw2ZMHJeCnfn5+OemTbj4muuOhToQCAaM6CCjAEedjri7OaCPuYPJOnR0dh+Vej3n9NPJV999h6ix4WhtbUPrgQ5MSEnFrrzcUd3OfHzcSGtrFxIMBhTV1oD09WHrHz/juKn2PQSnn7l330kef+45xEUYUGgsx/JFD2D5mqE7oEggEAgEgqPFOWdOJz/8+Avi4+ORk1+I1158CtffevdRmeO2//YrOe6EE+GlnbRfW1cLYrWhy2z/g3/tQXFBEYlLjuWHKYf5BaCi8f+1dx4AUlT3H//OzO5e73cc1+/oB6JiQ8SGlVhCjCX2FpOYxKCoSRQL2LAkFiz/WLBjsKMSY4slsSuC0utxvfe2d7s78/6vzd4dxQrcwf0+CuzOzs688mvv996brURqYjJqGhr7rb4+n8US4+IQ8nej0e/vt4QQQexKkJLsBhxy2GT20X8/RkF2FooqKnDfPXfjT5fO6Je+jYyIZMHuLuTn5MFgNjaUl6NwzCisXrN7LsfyRfiYePhOQU4Bmtqa0NDchE//9x4mHXpEf9aXxcbHIAImWjrbEAqRnhMEQRC7Bx+/9w6bfMSxGDE8F2XFJTB8Brr8Tr/5uQfuv5v98ZIZyByahFAAqG9skj9DvGblYowZt99u43/nPfgAu+jiP4pfQZC/MFBRV4UYTxTau/z9VsfrrrmG3XTLLRhbUIA1xaWYeuyh+Peb7+82bU4QOwpSkt2ALz56nx1w8BRkpaTA392Jxna/ONxvfTt0SAqrrm1AXlYmGLNQWlmGuJgotHX0n5PY3qxctZQdytu8qbEZe4wai5KKjWjp6MY1V/8Ft9x6R7/V84aZM9nsOXN4mcZg+bo1OHbKJLz1/qe7TbsTBEEQREZ6Gquvb8SY4QXc123A4sUfYb/9Du43X3f33DvYjEv/goToGOTkZGLtuvUIMuDTj9/HpMlTdnkfPPeuv7FLL/8zYiK8yMvIwariYkSaBrocu1/rZng8LMpwkBCfiOqGZpSVlwyKZzAQxE9llzdKhKKgIIuVl1Vyw5yLDWUluOrKy3Hb3+/qt/496MAJ7JPPliI7Y6j4ZRrU1VcjkjvGJZ9/iVHjxu7Scjf94ovYvQ/Og4+/zsrMREtrKxrb2zHzz1dgzt/u7O+6seSYeMTGWCira0ZVRdmUoZnZH/RzmQiCIAhiu/HUU4+xC867CIXDxcxvEYZmDkV5aVW/+t9XX3mWTfvF6YiJisKo0bko31SJupY23Dj7Glw/+5b+jg1+NFfOmM7uuvteJCQlIc7nQ3lNDXy8Nl39vNT+0cceZr++8LcYP3I0Vmxciwl774MlS5bssu1MEDsTUpTdhA2rl7MRheORl52BusZ6GI6Bjq7+3YN23tnnsCfnP4OhqUlITExEUdFGhEwPTjj+WLz26uu7nOw1VNXkTzxk300lRRVISUtCSmIaioqL4e/uxoKnH8MZ51zYr3W6fMYf2V33PICRuTnYWFKOMSNysWpDyS7XzgRBEATxXXgtg3k9HqQkpaCsuhoVxRuezMofcX5/lunOv93GrvjzVTBhYY9RI9DU1oayqkpMmTIZ77//8S7njw85ZCL78MPPkTs0EZY3CpvKqpAQHy8mPvq9LiZ4/0eYGDVsJJavXoP33vwXjph6Qr+XiyB2BUhRdiNS4+NZc0cbxu+xB5Z+swKLXlqAE08+vV/7+K6/zWFX/nkmPF4TeTk56PT7UVFVi4SYSHzw3vuYMHHSLiGDX3z8Xzbp0CmwbQfDsrMQDDk84KiCj9drzcpVLcNGjUns7zJyWEpiPJK5c95YWi72IO4SbUsQBEEQP5Rr/nwlu+Vvf0fhyHysKyrFhP0mYPHnX/W73ystLbonN3f4pR4vQ35mDvzdflTW1MPr9eCFZ+Zj2qn9G5d9HxZ/8hk7YPIkOIwhJ3MIbH6ssrIWI/OzsL64ot/LP/euv7NLr7ySx2OZKCmrRFJSHOob2/q9XASxq0DKshuxdMnnbMI+E1GQn43WuiZ0Ojb8/q5+7+N/vfISO+EXJ8vXQ1KTERcbj6ryCnSGgjj04APw8sJXk1LTMpr7uZhbpaqkePYJ06bN+urrb+DzeTGmIBetnW0oLqvFKSdPw4svvdrv7SuIiYpknf5u5PO+Ly4pw7gxI7Bi9YYBUTaCIAiC2BFYpsE8Fo8tklNRVlOHqrLSGRk5uff0d7kEBx20H/vkk8VISYjBkLShqGus44PUVuw7YS98tfSbAemfK0o3zJ54wAGzKuqaEcGHCPl8wF9b34TGljZc/Kff4sH7Hh4Q5Y6Ni2J20EZCTCxqGxrx1RefY8IBEwdE2QhiV4CUZTdj/LjRbPnKtdijcAwfAK7F3NtvwaV/nTkg+vmQiQewDz//Qizbw7DcHPkbvlW1NbBthr9cMR2333nvgCiny5QjD2bvv/sReGyB1JQEJMQnoGhTOWw4OO/cs/DEU88MiPKWbNj4dd6I4XsNy8lDQ2szWltawEi3CYIgiN2cW2+cxa6+/gaMGj4MxZuKEJ8Qj/qm/l+e7nLOOaezp59+FqbJB9M87mlvakG98tEYPWIYXn31dYweVzggyjvjkuns7v+7H6ZhID0xHgUFI7B06RL4bRu333wT/nrtdQOinAtffJadfMrp2GP0aKxZvxbJacmorum/nyEkiF0RUpjdE5aZkoQ2PsBu6+gQ7wdMPz/z+GNs+vRL0dDWjpTEGGRm5qCqshr1zS38UwdHTjkMN998MyZNPqRfyvzoww+xe+66A2vWlCDIy5OanIC0tBRUV1Sgqd2PPccXYtny1QOmPQVRPh8zuMPOGJKOjWWluPXmW3D1tdcMqDISBEEQxI7A4/XIZwFkDcnAhpJiPDv/SZx+9rkDygcOTUtm1XWNiImLQXJiMg93AqiqqUMoxFA4Kh//WvQmho8evdPLXF1ecv7hRxz5+Mb1mxBkNmIiTKRl5KKhpgJt/iCGpKbiq6+WzM3Jy71sZ5dtW0REWsy0TSTFxaKysRlfff4h9p3Yf78AQRC7IqQwuyHHHXM4+/fb/8OeY8dg2apV2H///fHll18OqL4+8YSpbNG/3oTPYyIuKhLZGXloaWpCZVMNAtwhJsbH47STf4lpv5yG4088aYeW/YP/vMNuv+Nv+O9//4vO7m54eCCRkZiI2IQEVFVVoLmzCxYvwaOPz8P55180oNrxxutnsutvnIM9Ro7EhqINiIiOQEtb/2/7IAiCIIidwb9ff40dd/xJKBw5DBWVFWjt6BSHB5wffOG5Z9nZZ52Bbh7jZCenID0vC0UbitDU1g7xSLvkmGhc8JsLcOc99+3wss+++jp29/13obWtQ65GSEyMQ0pyItrb2tDY0o5gIIQTTzwKixb9Z0C149SjjmBvv/sB9h4zFivXrcKe++zF49ulA6qMBLErQEqzm8I7lkVG+TAkJQUl5VV49z/v4Mijjh5w/T08J4ttLKuQrzOTk5GaOhQdwQ7U1Tdxx9Qqjxv8v3323QNHHXUMzvzVWdhrn31+cj3m3nMnu+mm29HUWAubqWMp8fFITI5HUnwaVq1Yik5HHb9jzg34y8xZA67tNCwlLRExZgRKa2rx6UcfYNLBhw3UshIEQRDEdsfwgFk8VigcPRbLV67EnuNHYdnydQPSF5526i/YSy8vkg8VjrKAPffcC9W1lWhp7UIzj3tEofPysjDruutwwUUXb5c6zH/6UVZVXoqbbr4Tfn8ngo4DizdafkEW7FAIMR4fVhZtgkhE7L3naLzzzrtJaemZA+rZTMXr1zXnjxmdkD80E02tzWjv6oYdDA3IPiaIgQ4pzm7Ku2+/zo485gSMHzMSxcUlaOOGEgO4v39z7tnsqWdfQHegGxZ3iPHxCUhNSBI/NQOxCb+9vRXdfkfuvxeV8HpMMD5w/9VpJ2H8HnthzZpVuO76m1qGjRyZ+Nbrr7NS7uji46LR1t6Fqpoq3Df3Xn6NNnR3BXmUYMGxbfhMEzlZmYiJieHvgcaGalQ3toin5yMyKhInTj0BLyx8ccC2WXJyEmtpbkZuRibKqiswetRIrFy9fsCWlyAIgiB2BJ9+9jmbdOBEZKSmIGTaaGvo4P77WZz485MHrE+8bc5sdu2smxAK2oj3RSImPpbHLYnoCnShvLICtghyeMTjBUNCcgKOPPoIHHPEMWLLA0KBAHILCnD0sccZlaXFsw3TKm7vbH08Jibhgmtn/vXxJUu/QfrQIfh66VLU1DXxwb7Jr+cgKiICUTFRGJKQCOY4qKuvR6NaMYEJE8bhtUVv3JCTnTu7XxtmG8RGRbPurgCyc1KxqbQas6+Zidm3zBmw/UsQAxlSnN2YwjEj2Zp1G5GTnobSqhpM3GcCPl8ysJdKLf3iM3bCz3+O6rp6NTPPHZTX60NqUhJSU1PR1taMUCiEdn8n7EA32jqD/CQG0zKg/gNCDn/PjzlyZp8fMbgD9RqIiY5FRkoqAny0LxIA4kE31TU16JDJEUP+PywvBzfecCPOPu/8Ad1OZ511GlvwzPPIychCY1MD2rq6xOEBXWaCIAiC2FHccfut7Oq/zkR+QS6qqqrlz/UGQ8EB7xenT/8j+8eDDyAYkPMdfIAeg4SoKKSmpcDf4UfQDqGxsQl+7ucDjPV80TTVP/yYYTDY4rd/+UDfMBwZDXk9Xv63jZjYOGSm5/BwKoRmHi80tDYgELDl+T7Lg8tnXILb/n7PgG6ny/9wMbv3Hw9h+IjhKNpYhIhoH9rbabsjQfxYSHl2f1h0VASGDk1F0aYKrFm7DGNG77lL9PsLzyxgr/7rVbyw8CU5cy+llfs+D8R+tVikJCUhLi4JHo+B+qZG9VlEJLzchYa4owN3mpbXRFdnAB7TQlNnGxobGhHkTs/NhsdxJztq9GjcecffcPgxA2+LxNZ4YcE/2alnnImc1CQEeZ2rG5rwxLzHcP5FF+4S5ScIgiCIHYHlsVik14O05CSUVNTj1FNPwPMvvLJL+MYVK5axJ+c9ikcenYdm8QBnvQ0xKsJCfk4+/J2d8PoiwEJB+CKi4LEstLa3IRiyYfLXETzWcwJBRMfEICYuDi2tHejoaEFldZVY2Q87qJIHI4blYd/998PVV/4Ze+9/4IBvm5efW8B++aszEB0dAY9hyWc8LP70I+w3iR78RxA/FlKe3ZzHH/kHu+A3v0dGZibq6mvBAiHYu2C/f734c9bWEcCtt96AlavWoqKqSuz9AtvsPJEPF0nxkKOzBRABgSn32om348aOgB2w8ei8eZh8+JG7XDvU1lQkpqdnN0VEeDAyfwSWr12N4445Gv9++51dri4EQRAEsT3ZtH4FKxi5BzLTEpAUn461Retx06034uqrBsZP2H1fystKL3ts3iN3v/XWG1izbj0aGlu2OMfLaxTcPAgSmOIpUOKPyiCMG1uIgyZNxMV/+D323XfiLtUOghifxSxPNDIz0rFm4wZccfkM3HnX3btcPQhiIEEKNAgYNTKPrVtfgr3HjsGKtevk79k3NDXtNn2/YfVy1tTWhH8tegM1tbUYlpfFHUUWxowZt1tliOuryxNTM3KaIj0RSE9LQWVVJQyvB4HAwF/iSBAEQRA7gxtnXsOun3MLCjKGoMsGqnhcsHzJFxi/zwG7tK9cs2oFS05OKpg1a/amN994HUmJabAMB4XjxiA7Ox9V1ZXymU8X/fa3OGuA/QzijyU9PZU11tajIDcTReVVADMRcuzdom4E0Z+QEg0SDBhMTIEXjh6FNWvX4WfHHonX33qX+n8XIi8zlZVU1mP0iJEoLdkEr8eHVn8n9SFBEARB9KJw7Bi2dvUajBk2HFX1DWhqkQ+0J3+5C5GVlcoqeMwzPDcXxWWVsMXWTupDgtgukCINIjyWxdJTk5EQl4hVG9bjskun456595IM7AJM+9kx7NU33saY4cPQ2tqOhuYmlJWVFAwZmlnc32UjCIIgiIGGx+NhjhFCbkYWSkorMLZwDFauXrPbxjy1tZWJQ4YMrJ/u+7FcevHv2NwHH8Kw7Cw0tDShpcOPTz/+LyZNOnS37T+C2JmQIg0iZs2cyW6YMwcFmdlyX/yG0lLMuPQS3D33fpKDAczN189i1954A4ampHGFdVDV0ICpx07Fm2+9Sf1GEARBEFvh3ddfYUce/wukJiQiKS0J6zdswm/OPwuPPPEM+c4BTMmmja/kFQyflhIXj5iEOJSWV2LMiGys2VBG/UYQ2wlSpkHG6b86hb344stIT0uGz4rEpopyPDHvYZx/0W9JFgYgs2fOZLPnzEFCTBwS4hJQXV2BvfbZA18uWU79RRAEQRDfwsvPPc9O+dVpGJKeBBayUNNQj3kP/QMX/e735EMHKBbAIn0RyMrOxLqiTfD6vAjSs44IYrtCCjUIOfu809n8J59FfmaG/Hm8DeXleOD+u/DHSy4neRhAXHPVVeyW225DblYW7KAfVXVNyM3NQXFJKfUTQRAEQXwPDjn4APbhR19geL7YQteC+uZm3HT99bh29izypQMIMfO/57jx09o6O1E4ajgf/BcjIS4G9U2t1E8EsZ0hpRqknDTtBLZw0b8wesQwdDS1oLyuQRwmeRggTP/Dxeze/3sIQ5LiEBcbj41l5UiMj0Vzazv1EUEQBEH8ADIz01llZQ0KsnLQ2FKPTn83/vnMfJx6+pnkUwcIFizm8TgYPnwU1m5ch2jTgzaa+SeIHQIp1iAmO2Moq6qtRk56Bmoa6+HvCmL1N1+hcK99SS76kamHH87e/OADHrCkwTIjUVZehuioCBGwUL8QBEEQxI8gwgALMQtD01PR0e5Hc0crnn7yUZxz3q/Jt/YzvkiTWY6BrMxMVFbVorO7G+UVZTdkZ+XM7u+yEcTuCBm9QU5WegqrqmlE4fARKK0oRmdXEFOnHo3X33yHZKMfGJGbxyorK5CSnIyIyEhsKC1HlNcDfzBA/UEQBEEQPwFfhJcFu4PIy8xHs78RzU1tWPT88zjxtFPJx/YfzGt5MDQ9GY0NTejg/fPFJ5/ggIMOoj4hiB0EKReB6IhI1h3qQn5WBlo7AqhraMCB++2PzxZ/SfKxEznvvPPZk08+gUzuBD1mBEprahHpNdDVHaJ+IAiCIIjtA/NF+FCQmYvamgo0dfrxxmsv4mc/P4V87c6HeUwvstOGoLyhBiYLYenirzBuAq1EJYgdCSkYIcnMSGM1VXXIy8+BEwSKK8qw/4S98OXSb0hGdgKjRg5n69ZvROHwAvi7ulBaUYuUlATUNTRS+xMEQRDE9oWJEHh84XBsWFcEv+1g3n334aI//Yl87k5g3eo1bFThGPl67LBR2FSxHv5uhtUrlqJwjwnUBwSxgyElI8Kcd/op7MlnX0RCXCyGpKRhY3ExTA/w9ZLF2GNPysbuCGqqq/Lz8/I3+bu7UZCTj4C/HdX1DYiNj0ZLawe1OUEQBEHsAEyA8T/IG5aPtrYW1NY145RpJ+DFVxeR792B/P32m9mVf70WsZERyMkcik3lpegKMLz+2os4nlZhEMROgRSN6MOD997NLp4+A5EeA/n5+Vi/YRNsfvzRhx/Cr3/7O5KX7cj111zFbr7ldni9QFpyJlo7W3kQ0o5jDj8Mb33wAbU1QRAEQexA9hxXyJatXI287AwYloXiknKMHDYM64uKyAfvAE46+SS28KWFiI+JRmpqKioqSmGYFhYseJZ/Rs9hIIidBSkbsQVffPI/NvmwIxHhs5CfmY2iklJ02UGc+avTMP+fz5HMbAeOPfJo9ta77yA5IQ5piYmoqK1Du78bF//2Ijz48CPUxgRBEASxE5i8/z7ss8VfIy7Oh0ivB9UN7YjyRePlhQvws+OnkT/eTuy3x1i2eMUqDE1LRlJyClavXQ8vb90go7EIQexsSOmIbZKVnsoamtqQn5+DtqYWVNTVISYmEoteeRlHHH0cyc6PYPmyJWzifvujM2AjMzkRaWnpWL1+PQKOg3XrVmLUqHHUrgRBEASxE3nw/rvYHy65Al7LQEHBMKzdsAkMNqZfMR333nkv+eWfwPzHHmG/ufiP8AcCyE4fgk5/BxpbO5CXOQQllbXUtgTRD5DiEd9KenIiq21sRkJyHDJTs1BcugndQRtXTr8Et999D8nPD+D0005lzz7/MrwRBnd82WhsaOROsBXD8/OwsbiE2pIgCIIg+onVS79iEycfijY+QB0/fjyaG+pQWlGNvcYWYuFLL2NYYSH56R/IFZf8nt3zwD9gmiYKC8egsqwcDS2tmHHZdNx1DyVWCKK/IOUjvpM5s2azmTfMRmx0JHJyclBZWo4Wv19+NuPSS3D33PtJjr6Fl59fwM445ywEuh3ExsUgLSUFxcWlcPhnvzn3DDzy1AJqP4IgCIIYGDALJvJysmEYFjaWboLl8WDW7Jm4/tobyV9/D1Z9s5jtvf8kBAJBZKalIC4hFps2liHAHNw063pcdwO1I0H0J6SAxPeioqz0sgl77313bUMjYqM8GDa8EOXlZWhsboblNbBo4as47oSfkzz1Ytk3S9iZp5+CFWuLEGV6MbwgH40tjaitbYAvyoe1GzfOzcnMuay/y0kQBEEQRA+TD5zIPv7sc/g8XuSkZ6K2sQZdIRumYeDjj/6H/Q44kOKdbXDoQQexDz/9BCKJkj00E61tTWhu74IDG9XVFVOGDs36oL/LSBCDHTJgxA9i7t1/Z5fNuBKmCYwuGI7IaB/WFZWgvaMTvggf3nnrTRx2+BGDXq6mHXcse/Xfb8nXWWlpGDI0AytXLecKZ2D8+D2w+Otlg76NCIIgCGKg8tF/3mZHHHscAiyE3KFDIULmyqoahJiDk044Dvc9/OCM7Mzce/q7nAOFuXfdzWZcPgOMvx6SkoTU9KFYvWq1XO14zNFH4O133qO4hyAGCKSMxI9i/KgxbPm6NYj2epCdlQfDslFaXAw/t/RJMfF4+83XsP/Bhw86+Trp58ezha+9LjUrMTIaIwtHY83qFWjzBxEfH4vW1vZB1yYEQRAEsatyyCH7sQ8/XAwPLIwbNwL19fWoqmnkA1sDh0w6APPmPYTR4/YatL594fMvsHMvOhftrX4+8E9FetpQrCtej67uIHIyUlFGD/ojiAEHKSXxo/nsk0/Y1ON/huamFilIwzOzYERGoKS0GIGQg8SYWNx++xz87pLpu7Wc3XXHHeyBB+7FptIKmflOTYxBcmIa6upr0djeARNePPvUQzjtnAt363YgCIIgiN2VmCgf6/AHkJSYyH18PPwdbahuaIbjMKSnpuK9d9/DuL32HDR+fv5T89ivL/wdukM2IiwfRo0eiUBHM9aWVCDK58P1M/+Cq2ffPGjagyB2JUgxiZ/Mu28sYmefdx6qaxvlALggOxPRsT5sXFeBLu4YLdg4aPIBuPP2u3DAwZN3C5nbsG5186/OPDth2dJlCNpBeC3Ih/slD0lDcVEp2v1diPGZuORPv8ftf79vt6gzQRAEQQxmFj7/PDv3wgvR1tGF2CggP3+U/Hm7itJN6AraSEyMxf/efhd77j9xt/X7vzvzDDb/pRfQ0R1CbEwEsnMK0NXRgtKyKrnc/4JzzsbjT8/fbetPELsDpKDEduOtN15jZ5x3Pprrm+Ewhqz0IYiPjUVnhx/l1VWw+bHoqEhcfukfcNmlVxSkZmQV93eZfyiffPQh+9nPjkOHvxOhkI2EuBiMHDYGra11KKquRMgfgnhAwoVnno3H5j9F+kUQBEEQuxkP3f8AmzPnepTVNyEhKgYpccmITo7HsmXL4YGJmOQ4XH3VX3D26WfdkJ2bP7u/y/tT+fj9D9j0K6bjqyUr+DsHmRnpyM7OQnVFFcoqq2BaFiYduB8++vhzinsIYheAFJXY7nzJB8l/+OPv8eU3K+T7uIREDM/Jg+F0oWiT+AnBDil4ubnpOPKwI/HY0/8csHJYUVZ6/oJnnny8urIWDzz8MLq6AvBYJsYUjoDt70JDaytq6prkuUZUFF546H6ccu6vB2x9CIIgCILYPkw59CD21ZJlaO1sF+NijMnlsYEZQlNzExqbW+DweOHgSfvhtJNOxWFTJmOvfQ7aZeKDf736HLv6qpkoLa1Ce1cnHNtAVl4mUpLSULJuI5o723gsZ2Gf8aPx1fJVu0y9CILohwRAdXXl4YsWvvh+XHQsvJGR6Oz0w/KYYAx8YGXAMH18oBiSy4hE6Zj4QKwrN0z+loE5DAY/bvJjdu8q8IMOs+E1Pfxf+W0w8X1+vpiNhslPEf9YFj/HkNdjjqO/z6/MLyjuYHBjHewO8nP5veQjXsR5kDcUlzEsDyx+oZAoL78O4x+K4/IUXn5+M5jyvur+/ML8Ora+jSnr4zUseT1ZLlGnkDhX1MuQVY0QdeDXUa3A5JPjRQWY/NSRf4vriLKZvLzMZrJyBr+x+J6oh+3Yst1EnUV7OYasCS+/l5/nwLZFfWz1XXEffk9xnsELbZqmfMo/42UXrSyO27zsos0t/qetqwsRESa8Hi/8AT/aattxyJRDMW7vffrI09tvvsZOOe0MtLZ2yPce/ml6VjqSIqPQ0hlER3MzGnn/i/t7PBaOOvoI7mAY3n77P/3qSF5e8E/27PPP4dMvP0d5VY1sQ9GuQ+ITUDBmBKpKS1Hb0IyuYBA+eJCdn40FC57GxEmH9Cl30frVxV8vXZIXHR0Pg9evu7uLy1aA945of1v3t+pd0Re2Y8hjQvYM0dBMfa4VQPaLkFlHyiaTr20pb/y16F8hw7x/Pbal5AlCHA2pD1Jn+F+i3w1D3NsE9LWZLK362+SyGRQ/dSTkSsi/kB8p0KoMQp+4AsB0lGSKC0sdNYSUi7KYPBwQMmqq6/HrQKsZ0/diQbFKwpA6Ij53bP7C4PeScu9IOTN0nV2Jly3Bry1V1hSLLHi9eBuKesrrSOGVrQSb94vpUXZAao7p5d8LwTItecxjCVl3EBJtJwTdUcoqbACz1ecO/1yokCF11pYlt/i5huwTS+q4LUom2tN0W0+1k3gv9E+2ADNk+0kzJvqEv7B4G4eti6g3Uy0m9VT0bUjpvSObV+m5sCOGtFGmMDHytZBJD6+TaH9mKrmRNo9/37CUbVL2y5GrUkRbWLxuoVBIfV+UlfXIgJRHZZJU/0sj5ppfS/aECPZsOyjrZMgPVJsJu6mMLKQ947eR9zWEzDJD2SdDldWxQ7w4/LVoYGgDpetgOvx8S7WRrLbuWyXDhpQV2Ua6rkpNpGdQ+iHKxM8Rrx1DaZdyB0zJDFN9IDtH11fqd1j+DVkf0cGGK4Xaxss663oz97vim1qXZBlkJzra7iub7sh6GkpuZVUNaV8d17c5qi7KDsiLajsu7sOv7xha/jxKLpyg1HPZBm5VZP8Y0vaL/6X88ZvZ4g3XNynHsqzKORkeUQ9T9yGUPwoZ0ocZtrqoWLEl/aw+R8q50A9PhLw208KhXitZFzLjCPniflbKhqir27faVzPd2soW9dgFQ5fdEr6e/xFyJg5YQhYNLUfSryn9kH5XyrjBfSWTsmBwvTcN1uP7tHqrxlVyJPXS1VkmJFr3pxRTbsd4HS2P1isoHRHtK/o6ZCvNFf1syP72yCfCC1ukviNMmbKFXsMLeXH9XtRDXF/KoKnaPmx7mbLhShWUrKsGZ2EdNFVjKbuuZYsx19s42j5D6pVr/91ryLpJu+PI+EPZmh7rL/2Oez0npGw+lI1XsRbTMsTLIRpU2mJb65TWE9HHUn+Ufsp4SJbJ0f7E1IUPST/fWx+kreM3MoTqMVPaX2i/K64uyurzeZW/Y0KuQ1AxkaNshJRBU+kqnB7dFXaEqfKaUgbB+9BRSsOgY0Am7YpoM0vs5bNN6R+Ez/B6I1Xb8P7y8HgnOjoGsTGxOPDgvr5e8OZrr7Bzfn0+6upapQ8cNXwYMrJyULJxA0qrKxG0Vc9lpg/BX/78Z4wcORzHT/vlgBs0v/3Om+yZx57AU889K8VKyEoKj31yeZzTyeOXTUUbeezD7QAX74vOuhDXzL5ubk5eQfjnjNevWsZWrVgJD+8vg//p8vtln/EW5TpgIdDdLW2P0G8mfaMh5UApK/dpwjbx16GQ0gMpChZUTGoLuxFQ8iXiBWEf3PgHRjjGsWW8ow2X66fEufwigUBAjjWk/TUMHSNr28CvyRzXVzja1LCwfAs9MqXPt3pdmklfoy2YtCkmU7ZW6rrSGhVrQPk/IX9C5kV9TFPHeMJu8/cRXp+KOVhPPCG1VLaRoWN2ZWek3RLKIX0TlFIbrl32aBum4giJ0EXhFxjr0RumbLlhqhup8ql4AsJmCfslb6FiEDjKTglbLO2Fqe2KjKv4+Inbf1PbU2mfZXtaOpZVOu+4vstU8aOQDRUTSAMWrq9haxfJX1g8jvNwexsIdqvBlQVpd+W9eIOKvhXntne0IykhDieffvaA062Bxk5voJSEeNbY0gr2LedoNVKG333tJgM0ph7sKtUxdPilP9OKp66hK2lohyYG7uJzqEDE1MdkgCwDL0fq0GYFUvqpA1J5D0A7VTUosMOjHG7kDDUwEuXrKZXb1Mz1PVoxlQN066scfdhm9bSTDhB7LEFP8OCGquJvG25QpU7o3RZwx3Gy/KYc8BiODjihFd5tM0M5dtcDCOVSRkP1iAhFbVPdnekGS0uJxy9+eTIeeeTxLeTq1ptvYq++9iq+/GY5bO5ExFaAGJ8PGenZvBwOaqqqUNvSDB83WgHueEUfRUZE4OgjjsSlV1yGYaNHzc3Nzrts8+v+VBY89QSrqa9DenoarrzsSlTU1cvfrhUhe3x0BBKTkhAXF4e42DisWbNaPs3f4Q4oNs6H62ffjHPPOn9C+tAhX/e+5vrVa9mxU49CUUmZfO8VRpHLhY87nYAtBjdu8NVXAd33vVyJMszQBlcHQh6dnLFlYKMDXag+k0G71RP0GuGuVwa572DDvQ/TAWfPwMMdfLkyKgIpSzooWw0ioL1xr7KbeiAnr6isfFg/3br0pqf+Pfor/njcgYsM1k0t8lq+ZQJQldHVU7eM+iuynHpoppyDG1wDetCs7iraSob1cmAejrVl4Cp9r816ymao4FG0qwhQZJipHTFT/hfu2M/S91a5Ctd4uPZHDOSUFWB6IBtuI9nmTA6AmE57QAfpMjiXwZATlhHddD0DBKhEn+EGIzpAUANWfTrraWf3Omav67nvZYDPXOurECtfgmJwbejBba9r9SrKFq83x+h9RtgmydL3OWdb35dyqAe+7smOqwMI55t62Vd1mpvHMnr9K9vOTWJto6y92ypc/l7t7pbeLYcapiuJdnp9RyWN0DPoZuFxadjWqzoY4YQE0KtP3Ndbsx9ap12dMHSdXF/ifnlb/dP3fc87t1eUnkA2nLymFHaEC67kk8ljyi+qRmZa9lzfFdZVhm32r3tfo7cf1/olg1Zpn/XgHD3X7K1/dtimMG0bVUKLhevSU25tCOEKYy+tV4d1kOq2r8ftx3CdXBvaI4cIX7bXdfQxdyDqMKbP7xu/uD3gynFvOZCf6eDD0HZFls11+mFfr3pOVNOGG6/01AN9rmuowZIc1DtqIkT4e/Ha6BV36fKrhImyUdCDf9e+GTrZ3DuG6q1DAksm56BiCa1/YkAoon2VFNVnMid8UyaTQkxfuK+0bm7PDF0eIyxwul96lb/H0qBPPNa3rbdmhfRECv8vpyAHR045Co8+9lifJn1x/j/ZjTfNxooNG2RiIcobifzhudz/R6C7uxPrioqkH3Lx8YHTBeefg/POOxcHHTpli9hpR/PlJ/9jLy58Bc8tmI+KylqEVFiB3IxMxCfF8jcelGzaiJbObjlRNDI7HZMOPRhPzX9ui7JOmnwA+/TjL+RrU9sxj5AVU/mjEGO9bJkbwWp9R49eCR9j6+SePLNXzGJBx7XopW+9Ymf1Tidk9TXFhx5L2SydD1b6ZfT0tUgkqJjdVEkFfZ57HcfUyQjtUMO2BT02QNoXnRwNx0/q8uHrSf0JT+i5LaDtJ+vRkx7fYoTfbx5D9dBjQ9zknfT/6FsG9+uufel9OKwfymCGZXTzO5q9/OXWfEhvX9Xn3nD9rmo1ZT/6flddv+eLqghuOk8f1k5JFdMIT4B4TFNuy3Wvc8zhB+PtDz7a6fq0K9EfjcOy0zOQnZ3BFVwIvS1nsQyZeQM3PiEZQEmxN/RgVs+ci+yhyG6rWR09gyYyUtJ5OHIgLbNxvVVFRwWGDmiFBHo9Hhn8y5nHcBDqOkdHzq7AYHo2RcyMqGycOzsLS83gySjUY/QEompYLI8zPcMjgg2mRwjiXzm4EdloQ8+A6SkWx3XM4h5y+gwyU860Miol0EmKYLBnxkLPEMqg0bHlLCfTMwxyJsGdFdRhhvxfz3zactbClFlHtZLA4UWxZdnEjUQAIA0hU6kScdwUmb5IXj6RjePXD/LPurva+L0NNDS3YlNRMYbn5eM3v78Af73q+q3K179ff4VddeVVWLZ6jXxv8XaLivAhJSUZTqAb3uhIVNfX8+t2qyCWMZnvF4X38vbOyMxApM+LlMRkREVHIyoyQmYPIyKjkD4kDdGx0XKgYodCsLu7+fFoPmCPwk233onICC+6ugPoO1yALgeQl5fJ6+njA/9klJeUoj3Qgc72bpmhjI6JxhGHTsaJJ52E3/32D1vU7aMP/8eOmXos7ICNSK8PGRlDEBkVjejISO58ImRfB0XW1A7KIFYaOOF4wJQuyBloNbDyeT1qVsLSTkeUwJDzv1xuTLmSRWSJ3cGCmyQQ35GZXCHZTM2EqlmSnrSaG0A6OoGgD8s+FFcT9xMzyHLArWejxFjfEWE1/8zr47oqZoJDAbmywc1wy2uEQkqnmLqv6VGZBHF/kWQzmcr0OjqZJEfDMpOsvm/J7IXqDNEWbjJDll4k/eTsuNJHNcDvCaJlBlnP9shg3w7JTL07y6SKqIJcr2WpJCCze4J4cX/+SswQuatx5GDTHaWJ5IOlwkXVNiIZwNQMreOERyhy1insxLQ7YsqOicowrbOq/9TSJMOVRzloEjbIo/RbnK8DfNeGhWfzQk5PskfG77qtDR046YjIUEstlKyI7L6hAxDm9Aou9LBHy5BpqjCF9ckCQQ0ATWWPhZ2S8zq2no3XqwTg9AxnZFmFfTNUuyi3z/QAg6lgyQnJmVR3tp6ZtlwVoeyeDgmlTCqbycSKMWGTDfTM3kK1icUPBu2AKqPsf1MPktygyFZ1l6NxNRMuy6sHgXJVlamH30y1h+xnUyWfTD2oCA/ODLEKx7Umlp45hNRbyJlkvTrAMcLBilgiofpSzVK5aS69XkMnt/UdTBaOpFT9HbWiQCmxDJSlK9KBNgy9MsVRsixT3Nq32DKJpeVNlsNR1+Ry6Dhu4A09o2TJ64ZX2miBlj5NTP1Br8pwB7eufkrZUf7ODqiVKGqcqusoXsskpSVnWPX6FpW81OoiZ4MMVU53Bk65QCWTagWHni0ydSCpFCw8EJYTvyF9QS3vugZSp+TsoaGTKY47BDB1EGyrGX+mV4bYqp8Nd+WOHkyaWmccN/HJ62TYTk9iT+iipVbgyPqYRjhzpZKxyve4dssSq/P490QC3NS2IJwtgSvjwi6aekWiO/BXHkAkDpV+mypW0gla5o6MmClXHMkZOrnayu6ZfRS1MdTqC4e5BsVSM3R61aUsrSizrQftoi3dmUIdo6kZS6UNjmsT3YQkU30lZNLH/Yat7Y+0aeITR+miZdjhMssFZybCq2bcpI4om8N6JlPcwWG476DyB4aO4dxhpyFlXdlx0S9iVYbKY/Xooal9n1IRFcuJVWHiCgFudyzeP23+LlTVVKOprRWZqem4/K9/wfTpfX/taNO6tcU33Xxj3j9feB5d/iCEhYvgoVNMQgLS0tIRy+OJkuIStLW1oSMQ1BJqyvqavH1eevaf6OLxUIjrX15uDrJz8+d6PJ4PMrJyXsH3YNOG9cXLly3Ns3j8kRyTgHXr16O1vYPfcyMemTcPnZ0BHo+EwufH87grwOU3PydXrj6tKq9AB4/BBMKMTT1mCubecx+Gj9lji9hnzg2z2I23zYHT5WDM6GGwvBEyBuIdzdtLtLBH9pPHVLPJKrmt5MPQ8Qkz3T5jqs+YWrGrBU+vYjWkYtsqwJYFM3USynGTO45agWTLlWZmWI2kz7bVSkDoCUSPXK3Xs/pW/KuSYZZevcWUH3FjaKZm/+VCJFPJmozTVcCi9BkqpnZXKoYl1NVXw00dKFkUM9vuKi7R10IiHXf1rWnCXQHsaJujViQbclwiF4W5VpgpofeI8Y2MM91xT89EjSqGmPhTCQghZzpVqGIT7VMsy02YOrJhHXciBkrHmU6GqBUUurwG0+MmS5bbkWM1t/aWtAeWtMu2sv+6/930iYxReP1DOm6Vd9P+SCZ89IqFYKAbrr+RX3Ntr/D9Tre0Fes2bER7R6euMbEtdnrjxMdFsdY2f58CbCun9X1wY/OfdJGfUBLXvzk/sgzhGaqwnzR6ZcWUMqqlRLaePTB1cNi71N/j5ts4ZfPDbta2l9nqkx3see8uXVcO0nQzq/qqcgk7tzsWH3CfdMIJeOGlhVuVtaeffop9+sH7mPfYfARYsM99Y/jgOYp7zJy8Aj7YDMo9dYGuABoam7mRsMOzU2753ZnBbRHDHaHYupCckMIH87Fo62jh3/HyQXosN9hdaKirQ21za6+2sJCRmYJZs27EuLFjMfmQQ7eow99uu5XNnD0boe5uNSsmp1wMmdUXvw6weXGMHj/Rqwc2n/Pr+eS7RMotEOt9oNeX3BXuPV9wBW7rMx/fS4zdgFd3gJwdd4Pl70Hfud7vfdctzt5a+X/YFbZ2rKdF3ZnWvmdtPlf3w+/0Q77rfp/1OoZeJf0227f5zP7mZfp+fb3ZSVtrlG18Qa2OUgO6bbGlLGx2ld5T+Fs5y00AbfP6htasbSnIt7CFbm3t+ui74qDv99XR7/P9vqXTVzN6vWdb68Et77GlPd+2jpimGpS5/bO1Zv621vo+7fNdfJf/cuPn8LqXzeTh28rQe3C4+WyX+zmw2YqRPu1p6MTMtsvu8q1tsFn1DP2X60/d8v2QvnOFw13ByHolGje3ZCoB9p2l3KK4PfZn2zZv6/K/ea9uu3+3ZcOMzV6pVQVbWq0+73qMRvj+7pdV9XuSVeH2MY1w4mLLFth6hS2RBOendMsVWaZMjEt8PqQnJOKJeY/gZ9Om9YkVioo3FJ935ll5FXVVKN5ULhPZok5i0C10sHB0IepbmtDp70B9XaPcpmVvfmsx8HRsPYPK3P97EovhIpqI8JrwB0PYFtG8rBFiEiUtDakpQ1DfUItWfv/axhb5uZcHU5GREbjk95ehcOxInHth3+calZQXv3LXHXdMe/SxJ9De3q3am7elN5IPYv3B8NLzvm1p6FW0m3f21u2bu9Lsu1Zn9WkjbN2fbO2bW7MdP9RfbyZyfcoRli1Xf7ZyYo88sm3cvJc29tLxH1y+bXzW41q+5cxeH/VuMzUd6PSxX1uNZPss+doerf79vnfT7GtxHf0E5bfSL43z8QfvsM4uP+Ji4+Hu8Rczo5ZHzVCIvT+Oo+ZDxChSDOrELJNpqBkWMYMPhOR7kb1Tl1ArBIQqBYK2VD6phHoZvtpDqZbR2nr9pJoEYnoQz9Rsi3gGge2GRGomTc24GDqbZ8rMW3hfrzY5Iksoru3jZRADvwhfRHiWUmmY2kOnEvZqP7ehZ3fktgNHzxapjb8qQy2yeaaaKRKZwfCAS+ylErMRImOm9+HIMEUYYH6sOxSQM6qW3usn6wu1V0ZkysSMjrAllr62o/eVu/scZfaTX9eRKzNUllIYba/HktlKf3eXFB3RD8JEi/ynz6v2P7a3+ZGePhTNtVWI4IPsNWtWITE2Fiedee73krX5C55mKxcvxuv/fgPLV6/n1/WhO6gyfiohopaFJifE8z/JfEDvUbZRVN+jVm6ILL07GyUH5rwdxb4hIXN2kKGls3Mrd+b14V796COPwnHHHo+jj5qC0eO/+/d833v/XfbNkmUyQRAZGSW3B0RGx6LD36L2cglZcrrh4f+FxKyMyEp7vXKbiBILJle9iL2lltzHJTpbzWKLlTGi7xzHDq/2UKswDPm5zsAgHGy5M/u2mjVVS3Id7XwcuRdeZFnlLL3hzsjo2RYm9Mmrl2BCZoChV4U4eorZndmBXLrqLs+DzDI4ejWJkDuTqRlD95kFUsf0bKMMWt3lo3rvtAh2mN77J7ebCNei98uFbDcEVs8VULIPNcvufmKrTLIaDOo9gTC0/WBypomJzLpYgSD3wAd79FltOZPtLvRXzP5HeDyyzdQ+fp2Ac9RzEWQQ6qiZNDVzpwJxua/d61FO0AmvydBZdKU/hl6PLfeZ6r25asZCLRY39KobyJlGTS/7Ja8t+kY800DvZZb6KyogZl51udVMg1oaIO8uBwhqH67JlIzIFULimrxeIb0CSXwuymzpZ6S4M3ZKTN2tC9rl6u1Bsv0dtUfeMnU7yecv9AymVD86cubF0gkENftt6DJC2h1bhxDiPrbe/mHbapbRYWr/qLCHwQC3SSwk98TL5Yp66Z9YbSJWGxgetd/YHcrJfaEhPRtk9Ow39cjnxShZFfIpVoWJ+0kp0/GW3NPuuCvDLNk3as+howbPTA+PmJo5FO9C4jkfMvOmhxqmeiaL+L7QX+mn9JJ5d+uJWJUVXiVhqX3Lst/0fmpo/Vct5cjkJHR7u0ta1TYUPdhx1IDJ1KsoVOylhrxi9YutB0PunlkxiyXLaYsVPpbUHelNDWhfrFYWqdlSlYR2Z8XkCjGmBiZq9QK0L4b2b0z3n57VcfQyUkPJhmxxve9cDg6YlkEp70pO1f3c5yxo3TdcWbJ7BnPuvnRH2xm5+kjP2vPjET6u/0G1CsTSs5GOO/MFtTVA7DO1pe9VM/OOeOCPqVbGuc+RkDe0xSqgkFodaEL7d6UXbuLeHXe7yQYPl00Rnyibq8omowR9DWaaekYN4W0h4eeJiPYVOiye1+Ou9tHPXQjZju5/d02ZXh0p5UDJgLJ5lloVqPVTrRZSdpLpQJ3paXf51CVHyb9alaH6WsQVUmvE6iqt30FuU8UqHss09X5893kLSn5tvb/a1Bs4QmK/PfOEczpqz7+7Gko/H4m59hNq5afHfWaFki1bb4eSXkz4D25/Rf1CgYBaeSLjAl0ndzuB+5wkPfph7ko0Qw9gLEPNLtvK3kj7o2Mo9ztd3UFERkUgOjIGCakpXE647egIYGXRJnz52f/wm1//umXYqLGJ3xY3/N8D97PqilLcccc9iI+PQmNjB4+jQoiN5INyPiAXsUQ0P+6zItHt75D2TRQwyBW0s7NNxsO2XDklnlkV4mXqUj6dt398VLRss+jYKMTGxXN7GUSAx6TxMXGyfi3NLfDyuKm9qQUlVbWAXvkQGxuNQw6ZhIP2PRDX3PztA6fHH3+c1ZaWyFgmJz8fOdnZiIlPQFNjPdcfvQefOdpnWmplr6nieHeiy127KmVLTiS5q0hcmVTWTi764zJjWT6tdw7c7X1yykrPVLPwFhZ1faE3IpZwE0yG15SDVmWHVPxjO6E+8Yt8hpepYgQZEwhbZ2sdNdSKBOUjVOnC/+gxgrtKQP6rYzwpP/w/j7a/tv5cJe+Y9rPCb4kFxUp33ZhGxlpaxt2LWZYVToap3QhM+TexysqjZ9YZetpIy7ihV0PIFRJ6xY+7GliOCTxKH0131ZloW3ePvtxrr7YNw7V3TCdmmVr1ZvK4Rj6fg48/5DM3DL1Vjan4JRxvmdATiGpAI227o2fxRf08ETpe02MTILya1Y0/xfjIK1Zq26ptg0G16k/Id21ZNUaMGYk99z2ABv/fATUQMeD5+otP2dLlyzF0aDqauNP69IvPcd+9D/Q5RxhvtRSZbXtKDpBB3NSjDsX4CROw/JuVmDFjBo6eOpX0gCAIgiCInc7KZd+wjz76AAsXLsJ/3ntPPahwM0w9YBJJJLm3XiQ7+MBP5cwMuU3J0g9dlRNK/OygHBw64SvIHIgcDHvkVtK33nwdjfX1OPiww2/IzsmdvROrTBBEP0MDH4IgCIIgCIIYQPx70WssOysLr732Gq676UY5o+vRK13lc3UctXJVzvaqn26Cz6N+RcPRv0YSGRuDW/l3J+wzAVXVlThx2qkU9xMEQQkAgiAIgiAIgiAIghgMUAKAIAiCIAiCIAiCIAYBlAAgCIIgCIIgCIIgiEEAJQAIgiAIgiAIgiAIYhBACQCCIAiCIAiCIAiCGARQAoAgCIIgCIIgCIIgBgGUACAIgiAIgiAIgiCIQQAlAAiCIAiCIAiCIAhiEEAJAIIgCIIgCIIgCIIYBFACgCAIgiAIgiAIgiAGAZQAIAiCIAiCIAiCIIhBACUACIIgCIIgCIIgCGIQQAkAgiAIgiAIgiAIghgEUAKAIAiCIAiCIAiCIAYBlAAgCIIgCIIgCIIgiEEAJQAIgiAIgiAIgiAIYhBACQCCIAiCIAiCIAiCGARQAoAgCIIgCIIgCIIgBgGUACAIgiAIgiAIgiCIQQAlAAiCIAiCIAiCIAhiEEAJAIIgCIIgCIIgCIIYBFACgCAIgiAIgiAIgiAGAZQAIAiCIAiCIAiCIIhBACUACIIgCIIgCIIgCGIQQAkAgiAIgiAIgiAIghgEUAKAIAiCIAiCIAiCIAYB/w9zt/oySLQQXAAAAABJRU5ErkJggg==;movable=1;resizable=1;rotatable=1;deletable=1;editable=1;locked=0;connectable=1;opacity=50;" parent="1" vertex="1">
                    <mxGeometry x="70" y="40" width="757" height="378.5" as="geometry"/>
                </mxCell>
                <mxCell id="B18a2ED0e9zdHAKTgeij-7" value="&lt;div align=&quot;left&quot;&gt;&lt;font face=&quot;Verdana&quot;&gt;&lt;span style=&quot;color: light-dark(rgb(255, 255, 255), rgb(237, 237, 237));&quot;&gt;&amp;nbsp; Device HW&lt;/span&gt;&lt;/font&gt;&lt;/div&gt;&lt;div align=&quot;left&quot;&gt;&lt;font face=&quot;Verdana&quot;&gt;&lt;span style=&quot;color: rgba(0, 0, 0, 0);&quot;&gt;&lt;br&gt;&lt;/span&gt;&lt;/font&gt;&lt;/div&gt;&lt;div align=&quot;left&quot;&gt;&lt;font face=&quot;Verdana&quot;&gt;&lt;span style=&quot;color: rgba(0, 0, 0, 0);&quot;&gt;&lt;br&gt;&lt;/span&gt;&lt;/font&gt;&lt;/div&gt;&lt;div align=&quot;left&quot;&gt;&lt;font face=&quot;Verdana&quot;&gt;&lt;span style=&quot;color: rgba(0, 0, 0, 0);&quot;&gt;&lt;br&gt;&lt;/span&gt;&lt;/font&gt;&lt;/div&gt;&lt;div align=&quot;left&quot;&gt;&lt;font face=&quot;Verdana&quot;&gt;&lt;span style=&quot;color: rgba(0, 0, 0, 0);&quot;&gt;&lt;br&gt;&lt;/span&gt;&lt;/font&gt;&lt;/div&gt;&lt;div align=&quot;left&quot;&gt;&lt;font face=&quot;Verdana&quot;&gt;&lt;span style=&quot;color: rgba(0, 0, 0, 0);&quot;&gt;&lt;br&gt;&lt;/span&gt;&lt;/font&gt;&lt;/div&gt;&lt;div align=&quot;left&quot;&gt;&lt;font face=&quot;Verdana&quot;&gt;&lt;span style=&quot;color: rgba(0, 0, 0, 0);&quot;&gt;&lt;br&gt;&lt;/span&gt;&lt;/font&gt;&lt;/div&gt;&lt;div align=&quot;left&quot;&gt;&lt;font face=&quot;Verdana&quot;&gt;&lt;span style=&quot;color: rgba(0, 0, 0, 0);&quot;&gt;&lt;br&gt;&lt;/span&gt;&lt;/font&gt;&lt;/div&gt;&lt;div align=&quot;left&quot;&gt;&lt;font face=&quot;Verdana&quot;&gt;&lt;span style=&quot;color: rgba(0, 0, 0, 0);&quot;&gt;&lt;br&gt;&lt;/span&gt;&lt;/font&gt;&lt;/div&gt;&lt;div align=&quot;left&quot;&gt;&lt;font face=&quot;Verdana&quot;&gt;&lt;span style=&quot;color: rgba(0, 0, 0, 0);&quot;&gt;&lt;br&gt;&lt;/span&gt;&lt;/font&gt;&lt;/div&gt;&lt;div align=&quot;left&quot;&gt;&lt;font face=&quot;Verdana&quot;&gt;&lt;span style=&quot;color: rgba(0, 0, 0, 0);&quot;&gt;&lt;br&gt;&lt;/span&gt;&lt;/font&gt;&lt;/div&gt;" style="rounded=1;whiteSpace=wrap;html=1;align=left;fillColor=light-dark(#6acf65, #ededed);strokeColor=none;fillStyle=solid;shadow=0;glass=0;arcSize=5;" parent="1" vertex="1">
                    <mxGeometry x="520" y="100" width="200" height="180" as="geometry"/>
                </mxCell>
                <mxCell id="B18a2ED0e9zdHAKTgeij-4" style="edgeStyle=orthogonalEdgeStyle;rounded=0;orthogonalLoop=1;jettySize=auto;html=1;entryX=0.222;entryY=1.002;entryDx=0;entryDy=0;entryPerimeter=0;endArrow=none;startFill=0;strokeColor=#2BA83E;strokeWidth=3;" parent="1" target="B18a2ED0e9zdHAKTgeij-3" edge="1">
                    <mxGeometry relative="1" as="geometry">
                        <mxPoint x="570" y="240" as="sourcePoint"/>
                        <Array as="points">
                            <mxPoint x="570" y="220"/>
                            <mxPoint x="570" y="220"/>
                        </Array>
                    </mxGeometry>
                </mxCell>
                <mxCell id="B18a2ED0e9zdHAKTgeij-5" style="edgeStyle=orthogonalEdgeStyle;rounded=0;orthogonalLoop=1;jettySize=auto;html=1;exitX=0.5;exitY=0;exitDx=0;exitDy=0;entryX=0.8;entryY=1.001;entryDx=0;entryDy=0;entryPerimeter=0;endArrow=none;startFill=0;strokeWidth=3;strokeColor=light-dark(#2ba83e, #ededed);" parent="1" source="B18a2ED0e9zdHAKTgeij-2" edge="1">
                    <mxGeometry relative="1" as="geometry">
                        <mxPoint x="670" y="210.00000000000006" as="targetPoint"/>
                    </mxGeometry>
                </mxCell>
                <mxCell id="B18a2ED0e9zdHAKTgeij-12" style="edgeStyle=orthogonalEdgeStyle;rounded=0;orthogonalLoop=1;jettySize=auto;html=1;exitX=0.5;exitY=1;exitDx=0;exitDy=0;strokeColor=#CCCC00;strokeWidth=2;" parent="1" source="B18a2ED0e9zdHAKTgeij-18" edge="1">
                    <mxGeometry relative="1" as="geometry">
                        <mxPoint x="760" y="20" as="targetPoint"/>
                        <mxPoint x="400" y="190" as="sourcePoint"/>
                        <Array as="points">
                            <mxPoint x="570" y="310"/>
                            <mxPoint x="760" y="310"/>
                        </Array>
                    </mxGeometry>
                </mxCell>
                <mxCell id="B18a2ED0e9zdHAKTgeij-13" style="edgeStyle=orthogonalEdgeStyle;rounded=0;orthogonalLoop=1;jettySize=auto;html=1;exitX=0.5;exitY=1;exitDx=0;exitDy=0;fontColor=none;noLabel=1;strokeColor=#CCCC00;strokeWidth=2;" parent="1" source="B18a2ED0e9zdHAKTgeij-2" edge="1">
                    <mxGeometry relative="1" as="geometry">
                        <mxPoint x="740" y="20" as="targetPoint"/>
                        <Array as="points">
                            <mxPoint x="670" y="290"/>
                            <mxPoint x="740" y="290"/>
                            <mxPoint x="740" y="40"/>
                        </Array>
                    </mxGeometry>
                </mxCell>
                <mxCell id="B18a2ED0e9zdHAKTgeij-2" value="Satellite modem" style="rounded=0;whiteSpace=wrap;html=1;fillColor=#6A6A6A;fontFamily=Verdana;fontColor=#D1D1D1;" parent="1" vertex="1">
                    <mxGeometry x="630" y="229.91000000000003" width="80" height="40" as="geometry"/>
                </mxCell>
                <mxCell id="B18a2ED0e9zdHAKTgeij-3" value="&lt;font style=&quot;font-size: 14px;&quot;&gt;MCU&lt;/font&gt;" style="rounded=0;whiteSpace=wrap;html=1;fillColor=light-dark(#6a6a6a, #5e5e5e);strokeColor=default;strokeWidth=1;fontFamily=Verdana;fontColor=#D1D1D1;" parent="1" vertex="1">
                    <mxGeometry x="530" y="130" width="180" height="80" as="geometry"/>
                </mxCell>
                <mxCell id="B18a2ED0e9zdHAKTgeij-16" value="&lt;div&gt;Antennas&lt;/div&gt;" style="text;html=1;align=center;verticalAlign=middle;resizable=0;points=[];autosize=1;strokeColor=none;fillColor=none;fontSize=10;" parent="1" vertex="1">
                    <mxGeometry x="674" y="24" width="70" height="30" as="geometry"/>
                </mxCell>
                <mxCell id="B18a2ED0e9zdHAKTgeij-18" value="Gsm&lt;br&gt;modem" style="rounded=0;whiteSpace=wrap;html=1;fillColor=#6A6A6A;fontFamily=Verdana;fontColor=#D1D1D1;" parent="1" vertex="1">
                    <mxGeometry x="530" y="229.91000000000003" width="80" height="40" as="geometry"/>
                </mxCell>
            </root>
        </mxGraphModel>
    </diagram>
</mxfile>